<svg width="40" height="40" viewBox="0 0 40 40" fill="none" xmlns="http://www.w3.org/2000/svg">
<path fill-rule="evenodd" clip-rule="evenodd" d="M15.7771 8.88885H28.0538C30.9691 8.88885 33.3332 11.4074 33.3332 14.5158V21.0805C33.3332 24.7948 31.8387 27.3658 29.875 28.9609C28.0054 30.4796 25.8132 31.0415 24.3064 31.1091L24.262 31.1111H11.9459C9.03137 31.1111 6.6665 28.5943 6.6665 25.4851V18.6051C6.6665 15.0461 8.24038 12.5895 10.1842 11.0687C12.0421 9.61517 14.2125 9.01908 15.6951 8.89569L15.7771 8.88885ZM24.2176 28.8601C26.5522 28.7553 31.2214 27.0527 31.2214 21.0805V14.5158C31.2214 12.651 29.8032 11.1398 28.0538 11.1398H15.8595C13.4991 11.3363 8.77827 13.1044 8.77827 18.6051V25.4851C8.77827 27.3499 10.1965 28.8601 11.9459 28.8601H24.2176Z" fill="#281B55"/>
<path fill-rule="evenodd" clip-rule="evenodd" d="M14.0738 21.7681C14.6412 21.7681 15.1011 21.3082 15.1011 20.7408C15.1011 20.1734 14.6412 19.7135 14.0738 19.7135C13.5064 19.7135 13.0465 20.1734 13.0465 20.7408C13.0465 21.3082 13.5064 21.7681 14.0738 21.7681ZM14.0738 23.7038C15.7102 23.7038 17.0368 22.3772 17.0368 20.7408C17.0368 19.1044 15.7102 17.7778 14.0738 17.7778C12.4374 17.7778 11.1108 19.1044 11.1108 20.7408C11.1108 22.3772 12.4374 23.7038 14.0738 23.7038Z" fill="#281B55"/>
<path fill-rule="evenodd" clip-rule="evenodd" d="M25.9259 21.7681C26.4932 21.7681 26.9532 21.3082 26.9532 20.7408C26.9532 20.1734 26.4932 19.7135 25.9259 19.7135C25.3585 19.7135 24.8985 20.1734 24.8985 20.7408C24.8985 21.3082 25.3585 21.7681 25.9259 21.7681ZM25.9259 23.7038C27.5623 23.7038 28.8888 22.3772 28.8888 20.7408C28.8888 19.1044 27.5623 17.7778 25.9259 17.7778C24.2895 17.7778 22.9629 19.1044 22.9629 20.7408C22.9629 22.3772 24.2895 23.7038 25.9259 23.7038Z" fill="#281B55"/>
<path fill-rule="evenodd" clip-rule="evenodd" d="M17.7773 20.7408C17.8015 22.3828 18.7872 23.7037 19.9996 23.7037C21.212 23.7037 22.1976 22.3828 22.2218 20.7408H17.7773Z" fill="#281B55"/>
</svg>
