<svg width="40" height="40" viewBox="0 0 40 40" fill="none" xmlns="http://www.w3.org/2000/svg">
<path fill-rule="evenodd" clip-rule="evenodd" d="M21.5563 9.59806C20.7103 8.98677 19.5731 8.97994 18.72 9.58101L10.1645 15.8206C9.50901 16.2824 9.11861 17.0371 9.11861 17.8425V28.3311C9.11861 30.1323 10.9735 31.3269 12.5983 30.5721L17.1997 28.4345C16.9492 28.2433 16.7014 28.041 16.4575 27.8315C15.4829 26.9943 14.4925 25.973 13.551 24.9089C12.1485 23.324 12.2361 21.3398 13.279 19.9854C14.3037 18.6545 16.1753 18.0215 18.0803 18.7988L19.8527 19.522L21.7244 18.7784C23.647 18.0145 25.5191 18.6752 26.5298 20.0255C27.5578 21.3987 27.6195 23.3932 26.1866 24.9638C25.2248 26.0182 24.2184 27.028 23.2349 27.8553C23.0007 28.0523 22.7633 28.2428 22.524 28.4235L27.4227 30.6423C29.0454 31.3772 30.8811 30.1826 30.8811 28.3916V17.8145C30.8811 17.0195 30.5006 16.2732 29.859 15.8096L21.5563 9.59806ZM19.853 29.9202L26.4164 32.893C29.6618 34.3629 33.3332 31.9736 33.3332 28.3916V17.8145C33.3332 16.2245 32.5723 14.7319 31.2891 13.8047L22.9863 7.59316C21.2945 6.37058 19.02 6.35691 17.3138 7.55906L8.75834 13.7986C7.44731 14.7223 6.6665 16.2317 6.6665 17.8425V28.3311C6.6665 31.9335 10.3762 34.3226 13.6259 32.813L19.853 29.9202ZM19.8474 27.2221C20.3593 26.9648 20.971 26.5431 21.6625 25.9614C22.534 25.2283 23.4602 24.3032 24.3805 23.2945C24.9927 22.6234 24.9061 21.9578 24.5714 21.5107C24.2194 21.0405 23.5145 20.7206 22.6247 21.0741L20.5249 21.9084C20.0856 22.0829 19.5964 22.0807 19.1587 21.9021L17.159 21.0861C16.2772 20.7263 15.5723 21.0361 15.2172 21.4973C14.8802 21.935 14.7846 22.5921 15.3821 23.2674C16.2811 24.2834 17.1897 25.2157 18.0494 25.9542C18.7317 26.5403 19.3375 26.9642 19.8474 27.2221Z" fill="#281B55"/>
</svg>
