<svg width="40" height="40" viewBox="0 0 40 40" fill="none" xmlns="http://www.w3.org/2000/svg">
<path d="M15.9207 18.5955C19.0212 18.5955 21.5347 16.082 21.5347 12.9815C21.5347 9.88092 19.0212 7.36743 15.9207 7.36743C12.8201 7.36743 10.3066 9.88092 10.3066 12.9815C10.3066 16.082 12.8201 18.5955 15.9207 18.5955Z" stroke="#281B55" stroke-width="2.10526" stroke-linecap="round" stroke-linejoin="round"/>
<path d="M7.5 32.6305V29.8235C7.5 28.3346 8.09148 26.9066 9.14431 25.8538C10.1971 24.801 11.6251 24.2095 13.114 24.2095H18.7281C20.217 24.2095 21.645 24.801 22.6978 25.8538C23.7506 26.9066 24.3421 28.3346 24.3421 29.8235V32.6305" stroke="#281B55" stroke-width="2.10526" stroke-linecap="round" stroke-linejoin="round"/>
<path d="M25.7456 15.7893L34.1667 15.7893" stroke="#281B55" stroke-width="2.10526" stroke-linecap="round" stroke-linejoin="round"/>
<path d="M29.9561 20L29.9561 11.5789" stroke="#281B55" stroke-width="2.10526" stroke-linecap="round" stroke-linejoin="round"/>
</svg>
