<svg width="96" height="96" viewBox="0 0 96 96" fill="none" xmlns="http://www.w3.org/2000/svg">
<path fill-rule="evenodd" clip-rule="evenodd" d="M47.9996 95.9999C21.4906 95.9999 -0.000732422 74.5087 -0.000732422 47.9996C-0.000732422 39.3857 2.27476 31.1 6.52765 23.8219C7.0824 22.8665 8.31005 22.5429 9.26022 23.1028C10.2156 23.6575 10.5392 24.8852 9.97933 25.8405C6.08081 32.5076 4.00045 40.0996 4.00045 47.9997C4.00045 72.2997 23.6982 91.9987 47.9995 91.9987C51.3485 91.9987 54.6512 91.6289 57.8615 90.8944C58.935 90.6479 60.0085 91.3207 60.2551 92.3942C60.5016 93.4729 59.8287 94.5464 58.7501 94.7929C55.2521 95.5942 51.6517 95.9999 47.9996 95.9999ZM79.1886 84.4891C79.7073 85.5472 79.995 86.7389 79.995 88.0025C79.995 92.4199 76.4148 95.9999 71.9975 95.9999C67.5803 95.9999 63.995 92.4198 63.995 88.0025C63.995 83.5853 67.5803 80 71.9975 80C73.7029 80 75.29 80.5341 76.5896 81.4485C86.2872 73.1531 91.9993 61.0512 91.9993 47.9992C91.9993 37.2024 88.0955 27.0115 81.1306 19.0496C80.4063 18.2175 80.4885 16.9538 81.3206 16.2246C82.1527 15.5003 83.4163 15.5825 84.1405 16.4146C91.7372 25.1004 96.0005 36.2202 96.0005 47.9994C96.0005 62.2322 89.7643 75.4437 79.1886 84.4891ZM15.9941 5.99939C18.059 5.99939 19.9389 6.78013 21.3617 8.06423C29.1794 2.84039 38.3783 0 47.9996 0C56.3309 0 64.3587 2.12651 71.4686 6.11747C72.4342 6.66193 72.7732 7.87922 72.2339 8.83978C71.6946 9.80544 70.4722 10.1496 69.5116 9.60511C62.9986 5.94801 55.643 4.00125 48.0006 4.00125C39.1711 4.00125 30.7368 6.60548 23.5665 11.4029C23.8439 12.2196 23.9979 13.0928 23.9979 14.002C23.9979 18.4194 20.4126 21.9994 15.9954 21.9994C11.578 21.9994 7.99795 18.4192 7.99795 14.002C7.99795 9.57947 11.5769 5.99939 15.9941 5.99939ZM71.9972 91.9987C69.7885 91.9987 67.9958 90.2061 67.9958 87.9974C67.9958 85.7887 69.7885 84.0012 71.9972 84.0012C74.2059 84.0012 75.9985 85.7887 75.9985 87.9974C75.9985 90.2061 74.2059 91.9987 71.9972 91.9987ZM11.998 13.9968C11.998 16.2055 13.7856 17.9982 15.9943 17.9982C18.203 17.9982 19.9956 16.2055 19.9956 13.9968C19.9956 11.7881 18.203 9.99547 15.9943 9.99547C13.7856 9.99547 11.998 11.7881 11.998 13.9968ZM58.3705 38.2455C57.4819 37.5932 56.2286 37.7884 55.5763 38.677L45.0927 52.9927L40.6702 48.565L40.5726 48.4777C39.7867 47.7843 38.5899 47.8151 37.84 48.565C37.0593 49.3458 37.0593 50.6094 37.84 51.3952L43.9113 57.4716L44.0038 57.5538C44.877 58.3294 46.2381 58.1907 46.9419 57.2353L58.8019 41.0406L58.8738 40.9379C59.4389 40.0544 59.2283 38.8722 58.3705 38.2455Z" fill="#281B55"/>
<path fill-rule="evenodd" clip-rule="evenodd" d="M48.631 21.731C48.4307 21.6078 48.1739 21.6078 47.9735 21.731L25.6039 34.7314C25.4036 34.8495 25.2751 35.0653 25.2751 35.3015V54.3379C25.2751 54.4971 25.3316 54.6306 25.419 54.7334C27.0163 56.5824 31.4542 61.5751 35.8563 65.4428C39.9449 69.0333 45.4203 72.9729 47.9989 74.781C48.1992 74.9197 48.456 74.9248 48.6615 74.7861C51.502 72.8856 57.7017 68.648 61.3794 65.4377C65.2883 62.027 69.6594 56.7006 71.2004 54.7744C71.2774 54.6768 71.3288 54.5484 71.3288 54.3994V35.3026C71.3288 35.0664 71.2004 34.8506 71.0001 34.7325L48.631 21.731ZM45.9909 18.3204C47.4188 17.4883 49.1858 17.4883 50.6137 18.3204L72.9833 31.3207C74.401 32.1477 75.2742 33.6629 75.2742 35.3014V54.3982C75.2742 55.4152 74.9352 56.4169 74.2829 57.2335C72.747 59.1596 68.1808 64.7429 63.974 68.4104C60.0755 71.8107 53.6703 76.1767 50.8555 78.0618C49.2991 79.1045 47.2702 79.0839 45.7344 78.0053C43.1456 76.1921 37.5161 72.1497 33.2528 68.4052C28.6403 64.3526 24.0585 59.1853 22.4354 57.3104C21.7111 56.4732 21.3311 55.4151 21.3311 54.3365V35.3002C21.3311 33.6616 22.2043 32.1464 23.6219 31.3195L45.9909 18.3204Z" fill="#281B55"/>
</svg>
