<svg width="84" height="96" viewBox="0 0 84 96" fill="none" xmlns="http://www.w3.org/2000/svg">
<path d="M2.55959 11.3159H11.2862C12.2237 15.3047 15.6456 18.283 19.7393 18.283C23.833 18.283 27.2549 15.3046 28.1924 11.3159H77.3764C80.0795 11.2791 80.142 7.00391 77.3764 6.95071H28.1884C27.247 2.97008 23.829 0 19.7392 0C15.6494 0 12.2353 2.97008 11.29 6.95071H2.55949C-0.159314 6.99571 -0.194314 11.2627 2.55959 11.3159ZM19.7396 4.36112C25.7552 4.52886 25.7513 13.7543 19.7396 13.9179C13.724 13.7542 13.724 4.52471 19.7396 4.36112Z" fill="#281B55"/>
<path d="M2.5596 27.4257H56.8646C57.806 31.4104 61.2201 34.3846 65.3138 34.3846C69.4075 34.3846 72.8255 31.4104 73.763 27.4257H77.3724C80.0951 27.3807 80.1224 23.1096 77.3724 23.0605H73.763C71.6028 13.872 59.017 13.8761 56.865 23.0605H2.56C-0.139197 23.0973 -0.209897 27.3725 2.5596 27.4257ZM60.7546 25.237C60.9187 18.9409 69.7234 18.9491 69.8796 25.2452C69.7194 31.5495 60.903 31.5414 60.7546 25.237Z" fill="#281B55"/>
<path d="M81.3956 69.5803C82.5479 69.5803 83.4776 68.6025 83.4776 67.3998V65.3052C83.4776 59.6513 79.087 55.0488 73.6846 55.0488H69.9151C67.7901 55.0488 66.0596 53.2364 66.0596 51.0109V43.5406H77.3686C80.0952 43.5038 80.1147 39.2204 77.3686 39.1754H65.7596C65.0877 36.9335 63.0526 35.4034 60.7908 35.4116C58.4353 35.4157 56.4744 36.9703 55.826 39.1754H49.033C46.8963 29.9951 34.271 29.9745 32.131 39.1795H2.561C-0.134301 39.2286 -0.212401 43.4833 2.561 43.5447H32.135C34.3069 52.7332 46.869 52.7128 49.03 43.5406H55.5183V59.0744C51.655 60.1258 48.7683 63.8405 48.7683 68.2261C48.6902 72.0185 50.0417 75.7537 52.6199 78.8134C54.034 80.3762 54.4441 81.7672 55.2371 83.3422V91.8231C55.2371 94.1263 57.0262 96.0001 59.2215 96.0001H75.7525C77.9517 96.0001 79.7369 94.1263 79.7369 91.8231V83.7473C81.6314 81.9023 83.6158 79.6317 83.4713 76.7311C83.858 73.0205 78.9088 73.0492 79.3033 76.7311C79.4635 78.3676 77.5221 79.7708 76.6236 80.8386C76.44 81.0309 76.2017 81.1373 75.9517 81.1373H59.5137C58.9082 81.1373 58.5137 80.6218 58.3262 80.0981C57.7989 78.6949 56.916 77.2712 55.7207 75.8966C52.8457 72.5787 51.2441 66.1804 55.5137 63.6975V66.4999C55.5606 69.3637 59.6348 69.3718 59.6817 66.4999V40.9507C59.6544 39.8788 61.1153 39.2284 61.7794 40.4434C61.8497 40.5579 61.8888 40.7461 61.8888 40.9507V51.0106C61.8888 55.6418 65.4865 59.4096 69.9122 59.4096H73.6817C76.7833 59.4096 79.3067 62.0524 79.3067 65.3007V67.3954C79.3067 68.6022 80.2403 69.5759 81.3887 69.5759L81.3956 69.5803ZM45.1416 41.3761C44.958 47.6559 36.1807 47.6355 36.0205 41.3598C36.165 35.039 45.0166 35.0595 45.1416 41.3761ZM59.4116 85.5267H75.5796V91.6387H59.4116V85.5267Z" fill="#281B55"/>
</svg>
