<svg width="119" height="45" viewBox="0 0 119 45" fill="none" xmlns="http://www.w3.org/2000/svg">
<path d="M4.80037 0.03125H113.358C116.007 0.03125 118.159 2.39881 118.159 5.31208V38.7539C118.159 41.6671 116.007 44.0347 113.358 44.0347H4.80037C2.15216 44.0347 0 41.6671 0 38.7539V5.31208C0 2.39881 2.15216 0.03125 4.80037 0.03125Z" fill="#17161D"/>
<path d="M107.16 24.9163L105.398 29.8516H105.345L103.507 24.9163H101.845L104.599 31.8172L103.025 35.6542H104.641L108.888 24.9163H107.162H107.16ZM94.7091 20.821H93.1696V32.2055H94.7091V20.821ZM88.9181 20.821H85.2187V32.2055H86.7691V27.8963H88.9243C90.736 27.9647 92.2552 26.4046 92.3174 24.41C92.3174 24.3946 92.3174 24.3775 92.3174 24.3621C92.2801 22.364 90.7764 20.7782 88.9601 20.821C88.9461 20.821 88.9306 20.821 88.9166 20.821H88.9181ZM88.9601 26.3054H86.7691V22.429H88.9663C89.9398 22.429 90.7282 23.2963 90.7282 24.3672C90.7282 25.4381 89.9398 26.3054 88.9663 26.3054H88.9601ZM98.5033 24.6717C97.3511 24.5999 96.2703 25.2841 95.7494 26.4166L97.124 27.0632C97.4024 26.5038 97.956 26.1788 98.5329 26.237C99.3462 26.148 100.071 26.7998 100.153 27.6945C100.153 27.6979 100.153 27.6996 100.153 27.703V27.8193C99.6603 27.5268 99.1098 27.3729 98.55 27.3729C97.0758 27.3729 95.5721 28.2641 95.5721 29.9577C95.5721 31.4819 96.7757 32.4638 98.1379 32.4638C98.9278 32.5185 99.682 32.0926 100.099 31.3519H100.158V32.2311H101.662V27.8501C101.662 25.8281 100.287 24.7042 98.5142 24.7042L98.5018 24.6717H98.5033ZM98.3214 30.9122C97.816 30.9122 97.1116 30.6283 97.1116 29.9423C97.1116 29.063 97.9871 28.7277 98.7506 28.7277C99.2435 28.714 99.7302 28.8457 100.159 29.1092C100.043 30.1305 99.2575 30.9003 98.3214 30.9122ZM42.6343 32.4501C39.5926 32.4604 37.1092 29.7798 37.061 26.4354C37.1092 23.0911 39.5926 20.4087 42.6343 20.4207C44.0416 20.3951 45.3975 20.9938 46.399 22.0818L45.3353 23.2382C44.6138 22.4615 43.6435 22.0287 42.6343 22.0373C40.4386 22.0373 38.6581 23.996 38.6581 26.4115C38.6581 28.8269 40.4386 30.7856 42.6343 30.7856C43.6715 30.8318 44.6791 30.3939 45.4069 29.5779C45.8843 29.0117 46.1735 28.2812 46.2233 27.5097H42.6343V25.9137H47.685C47.7394 26.2524 47.7659 26.5962 47.7612 26.9418C47.8125 28.3719 47.3444 29.7661 46.4627 30.8181C45.4551 31.9369 44.0633 32.5322 42.6343 32.4535V32.4501ZM55.5721 28.5737C55.6514 30.6916 54.1539 32.4792 52.2303 32.5664C50.3052 32.6537 48.6802 31.0063 48.6009 28.8902C48.5962 28.7859 48.5962 28.6798 48.6009 28.5755C48.5216 26.4577 50.0191 24.67 51.9427 24.5828C53.8678 24.4955 55.4928 26.1429 55.5721 28.259C55.5768 28.3633 55.5768 28.4694 55.5721 28.5737ZM54.0451 28.5737C54.1477 27.3831 53.3546 26.3276 52.2723 26.2147C51.19 26.1018 50.2306 26.9743 50.1279 28.1649C50.1155 28.3018 50.1155 28.4386 50.1279 28.5737C50.0253 29.7644 50.8184 30.8199 51.9007 30.9328C52.983 31.0457 53.9424 30.1732 54.0451 28.9826C54.0575 28.8457 54.0575 28.7089 54.0451 28.5737ZM63.383 28.5737C63.383 30.6898 61.8233 32.4056 59.8997 32.4056C57.9762 32.4056 56.4165 30.6898 56.4165 28.5737C56.4165 26.4577 57.9762 24.7419 59.8997 24.7419C61.8233 24.7419 63.383 26.4577 63.383 28.5737ZM61.8622 28.5737C61.9648 27.3831 61.1718 26.3276 60.0895 26.2147C59.0072 26.1018 58.0477 26.9743 57.9451 28.1649C57.9326 28.3018 57.9326 28.4386 57.9451 28.5737C57.8424 29.7644 58.6355 30.8199 59.7178 30.9328C60.8001 31.0457 61.7596 30.1732 61.8622 28.9826C61.8746 28.8457 61.8746 28.7089 61.8622 28.5737ZM71.0058 24.9369V31.8959C71.0058 34.751 69.4616 35.9279 67.6407 35.9279C66.2754 35.9399 65.0391 35.0486 64.5042 33.6664L65.8368 33.0198C66.1199 33.8255 66.8134 34.3678 67.5987 34.3951C68.7727 34.3951 69.4896 33.5997 69.4896 32.1217V31.5657H69.4305C68.964 32.1371 68.2969 32.4604 67.5987 32.4501C65.6518 32.4501 64.075 30.7138 64.075 28.5737C64.075 26.4337 65.6533 24.6974 67.5987 24.6974C68.3016 24.6803 68.9764 24.995 69.4538 25.563H69.5129V24.9163H71.0042V24.9352L71.0058 24.9369ZM69.6373 28.5926C69.726 27.3865 68.9096 26.3294 67.8133 26.2318C67.7931 26.2301 67.7713 26.2284 67.7511 26.2267C66.6237 26.2678 65.7389 27.3079 65.7762 28.5481C65.7762 28.5618 65.7762 28.5772 65.7778 28.5909C65.7249 29.8208 66.5895 30.8643 67.7075 30.9208C67.7215 30.9208 67.7371 30.9208 67.7511 30.9225C68.8365 30.8763 69.6824 29.8704 69.6404 28.6764C69.6404 28.6473 69.6373 28.6199 69.6358 28.5909L69.6373 28.5926ZM73.7255 20.833V32.2106H72.1751V20.833H73.7255ZM79.8337 29.8533L81.0435 30.7326C80.3872 31.8103 79.2847 32.4552 78.1076 32.4518C76.2229 32.4809 74.6741 30.825 74.6476 28.7517C74.6476 28.6935 74.6476 28.6336 74.6476 28.5755C74.4937 26.6133 75.8139 24.8838 77.5975 24.7145C79.1012 24.5708 80.4961 25.5886 80.9611 27.1676L81.1197 27.6141L76.4219 29.7524C76.722 30.4931 77.4 30.9584 78.1371 30.9276C78.8338 30.9156 79.4744 30.5102 79.8337 29.855V29.8533ZM76.128 28.4574L79.2878 27.0239C79.0375 26.485 78.5212 26.1634 77.9723 26.2028C76.9055 26.2541 76.0798 27.2463 76.1265 28.4198C76.1265 28.4318 76.1265 28.4454 76.128 28.4574Z" fill="white"/>
<path d="M19.3633 21.4453L9.36133 32.9735C9.76875 34.5593 11.2678 35.483 12.7093 35.0348C12.9286 34.9664 13.1385 34.8689 13.3344 34.744L24.5897 27.6927L19.3648 21.4453H19.3633Z" fill="#EA4335"/>
<path d="M29.4772 19.4847L24.61 16.4175L19.1316 21.7069L24.6317 27.6754L29.4616 24.6424C30.757 23.8965 31.2561 22.1379 30.5782 20.713C30.3278 20.1878 29.939 19.7601 29.4616 19.4847H29.4772Z" fill="#FBBC04"/>
<path d="M9.35972 11.0974C9.29908 11.3438 9.26953 11.5969 9.26953 11.8518V32.219C9.26953 32.4739 9.30063 32.7271 9.35972 32.9734L19.7053 21.7395L9.35972 11.0957V11.0974Z" fill="#4285F4"/>
<path d="M19.4379 22.0354L24.6099 16.4192L13.3702 9.33538C12.9472 9.06338 12.4667 8.91798 11.9769 8.91798C10.7609 8.91456 9.69099 9.8041 9.36133 11.0905L19.4379 22.0371V22.0354Z" fill="#34A853"/>
<path d="M39.6733 16.524C38.0794 16.524 37.0593 15.2444 37.0593 13.248C37.0593 11.2517 38.0763 10.0371 39.6733 10.0371C40.9065 10.0371 41.8441 10.8411 42.0572 12.0899H41.3092C41.0713 11.2414 40.4742 10.759 39.6718 10.759C38.4977 10.759 37.7902 11.6896 37.7902 13.2429C37.7902 14.7962 38.5102 15.8003 39.6718 15.8003C40.6841 15.8003 41.3807 15.0784 41.3807 14.0247V13.9118H39.7713V13.2241H42.093V13.8194C42.093 15.5164 41.1957 16.5205 39.6733 16.5205V16.524Z" fill="white"/>
<path d="M46.539 16.4193H43.0044V10.1411H46.539V10.8459H43.715V12.8594H46.3928V13.5556H43.715V15.7128H46.539V16.4175V16.4193Z" fill="white"/>
<path d="M48.9212 16.4193V10.8459H47.1221V10.1411H51.4326V10.8459H49.6334V16.4193H48.9212Z" fill="white"/>
<path d="M53.8445 16.4193V10.1411H54.5567V16.4193H53.8445Z" fill="white"/>
<path d="M55.6638 16.4193V10.1411H56.3558L59.4799 15.0695H59.5156V10.1411H60.2201V16.4193H59.5281L56.404 11.5079H56.3682V16.4193H55.6638Z" fill="white"/>
<path d="M68.0262 13.2822C68.0262 15.2752 67.0139 16.524 65.3966 16.524C63.7794 16.524 62.7671 15.2752 62.7671 13.2822C62.7671 11.2893 63.7794 10.0371 65.3966 10.0371C67.0139 10.0371 68.0262 11.2893 68.0262 13.2822ZM63.498 13.2822C63.498 14.827 64.2288 15.8003 65.3966 15.8003C66.5645 15.8003 67.2953 14.8253 67.2953 13.2822C67.2953 11.7392 66.5645 10.759 65.3966 10.759C64.2288 10.759 63.498 11.7341 63.498 13.2822Z" fill="white"/>
<path d="M68.9111 16.4193V10.1411H69.6031L72.7272 15.0695H72.7629V10.1411H73.4674V16.4193H72.7754L69.6513 11.5079H69.6156V16.4193H68.9111Z" fill="white"/>
</svg>
