<svg width="119" height="45" viewBox="0 0 119 45" fill="none" xmlns="http://www.w3.org/2000/svg">
<path d="M4.95906 0.03125H113.517C116.165 0.03125 118.318 2.39881 118.318 5.31208V38.7539C118.318 41.6671 116.165 44.0347 113.517 44.0347H4.95906C2.31085 44.0347 0.158691 41.6671 0.158691 38.7539V5.31208C0.158691 2.39881 2.31085 0.03125 4.95906 0.03125Z" fill="#17161D"/>
<path d="M19.6604 13.8413C19.5002 12.4232 20.1393 10.9195 20.8515 9.99576C21.6601 8.94884 23.0674 8.14653 24.187 8.09521C24.3317 9.57323 23.803 11.0256 23.027 12.0913C22.2199 13.1383 20.923 13.9474 19.6604 13.8431V13.8413Z" fill="white"/>
<path d="M28.908 26.3808C28.8924 26.468 28.4446 28.1855 27.3327 29.9184C26.3966 31.4512 25.4278 32.9463 23.8759 32.972C22.3722 33.0062 21.8684 31.9952 20.1392 31.9952C18.41 31.9952 17.8595 32.9463 16.4196 33.0062C14.9392 33.0678 13.8211 31.3708 12.8523 29.8568C10.9241 26.7588 9.42815 21.1273 11.4357 17.2971C12.4045 15.4154 14.1881 14.2077 16.0837 14.1735C17.5547 14.1478 18.9309 15.2734 19.836 15.2734C20.741 15.2734 22.4189 13.9169 24.1636 14.1204C24.8929 14.1478 26.972 14.4455 28.3155 16.594C28.2113 16.6642 25.843 18.1969 25.8679 21.3463C25.899 25.1132 28.8676 26.3637 28.908 26.3808Z" fill="white"/>
<path d="M41.8739 19.7891H39.5226L35.7222 32.7884H37.6831L38.7296 28.9685H42.5689L43.673 32.7884H45.6883L41.8723 19.7891H41.8739ZM39.0655 27.3656L40.0498 23.9785C40.3048 22.9042 40.4883 22.0865 40.6096 21.5322H40.6485C40.9377 22.8169 41.1368 23.6261 41.241 23.9785L42.2408 27.3656H39.0655Z" fill="white"/>
<path d="M54.4337 24.533C53.762 23.6623 52.93 23.2227 51.9224 23.2227C50.6426 23.2227 49.6816 23.7855 49.0502 24.9025H49.0176L48.9134 23.4142H47.2495C47.2977 24.4697 47.321 25.491 47.321 26.4952V36.5898H49.2166V31.6699C49.7127 32.5595 50.5197 32.9991 51.6487 32.9991C52.689 32.9991 53.5691 32.5937 54.2736 31.7674C55.0666 30.8437 55.4569 29.5846 55.4569 27.992C55.4569 26.5585 55.1211 25.4123 54.4337 24.533ZM52.93 30.4554C52.5304 31.0541 51.9783 31.362 51.2661 31.362C50.6581 31.362 50.1621 31.1242 49.7858 30.6589C49.4094 30.1919 49.2182 29.6103 49.2182 28.9346V27.3676C49.2182 27.2 49.2493 26.9895 49.3068 26.7347C49.4188 26.1787 49.6754 25.739 50.0501 25.3969C50.4342 25.0633 50.8587 24.8871 51.3221 24.8871C52.011 24.8871 52.5615 25.1951 52.9704 25.8109C53.3468 26.4011 53.5303 27.1486 53.5303 28.0638C53.5303 29.0577 53.3297 29.8498 52.93 30.4571V30.4554Z" fill="white"/>
<path d="M64.2242 24.533C63.5524 23.6623 62.7205 23.2227 61.7128 23.2227C60.433 23.2227 59.4736 23.7855 58.8407 24.9025H58.8096L58.7054 23.4142H57.0415C57.0897 24.4697 57.113 25.491 57.113 26.4952V36.5898H59.0086V31.6699C59.5047 32.5595 60.3133 32.9991 61.4407 32.9991C62.481 32.9991 63.3611 32.5937 64.064 31.7674C64.8571 30.8437 65.2489 29.5846 65.2489 27.992C65.2489 26.5585 64.913 25.4123 64.2242 24.533ZM62.722 30.4554C62.3302 31.0541 61.7688 31.362 61.0581 31.362C60.4501 31.362 59.9541 31.1242 59.5777 30.6589C59.2014 30.1919 59.0086 29.6103 59.0086 28.9346V27.3676C59.0086 27.2 59.0413 26.9895 59.0972 26.7347C59.217 26.1787 59.4658 25.739 59.8421 25.3969C60.2262 25.0633 60.6492 24.8871 61.1141 24.8871C61.8014 24.8871 62.3535 25.1951 62.7609 25.8109C63.1372 26.4011 63.3207 27.1486 63.3207 28.0638C63.3207 29.0577 63.1294 29.8498 62.722 30.4571V30.4554Z" fill="white"/>
<path d="M75.4812 26.8834C75.9695 27.4907 76.2089 28.2468 76.2089 29.1449C76.2089 30.2534 75.8575 31.1515 75.1608 31.846C74.3927 32.6021 73.3212 32.9819 71.945 32.9819C70.6715 32.9819 69.6576 32.7082 68.8894 32.1728L69.3295 30.4381C70.1614 30.9753 71.0742 31.2473 72.0648 31.2473C72.777 31.2473 73.3368 31.0711 73.7287 30.7204C74.1283 30.368 74.3289 29.8924 74.3289 29.304C74.3289 28.7754 74.161 28.3357 73.8406 27.9748C73.5125 27.6138 72.9683 27.2785 72.2078 26.9706C70.1194 26.117 69.0885 24.8751 69.0885 23.2482C69.0885 22.1842 69.457 21.3117 70.1848 20.6258C70.9141 19.9483 71.8813 19.6045 73.0895 19.6045C74.161 19.6045 75.0566 19.8081 75.7688 20.2203L75.2899 21.9105C74.6181 21.5153 73.8655 21.3117 73.018 21.3117C72.354 21.3117 71.8253 21.4965 71.4506 21.8489C71.138 22.1739 70.9778 22.5622 70.9778 23.0292C70.9778 23.539 71.1629 23.9718 71.5221 24.2968C71.8346 24.6048 72.41 24.9383 73.2419 25.2993C74.2589 25.7492 75.0022 26.2761 75.4827 26.8834H75.4812Z" fill="white"/>
<path d="M80.3934 23.4144H82.4818V24.9814H80.3934V29.5317C80.3934 30.6847 80.762 31.2646 81.4975 31.2646C81.8334 31.2646 82.1133 31.2304 82.3372 31.1671L82.3932 32.7512C82.0169 32.9 81.5301 32.9804 80.9221 32.9804C80.1695 32.9804 79.5941 32.7256 79.1696 32.2226C78.7467 31.7214 78.5367 30.8763 78.5367 29.6977V24.9711H77.2974V23.4127H78.5367V21.6969L80.3934 21.0811V23.4127V23.4144Z" fill="white"/>
<path d="M90.7841 24.6032C90.0252 23.688 89.016 23.2295 87.7689 23.2295C86.5218 23.2295 85.441 23.6965 84.6728 24.6203C83.9124 25.544 83.5283 26.7329 83.5283 28.1836C83.5283 29.6342 83.8969 30.7273 84.6402 31.634C85.385 32.5406 86.3849 32.9974 87.632 32.9974C88.8792 32.9974 89.9677 32.5218 90.7514 31.5707C91.4947 30.6469 91.8711 29.4683 91.8711 28.0245C91.8711 26.5807 91.5103 25.4807 90.7825 24.6014L90.7841 24.6032ZM89.3923 30.3065C88.9772 31.0643 88.408 31.4424 87.688 31.4424C86.968 31.4424 86.3756 31.0729 85.9682 30.3236C85.6323 29.7163 85.4643 28.9773 85.4643 28.1152C85.4643 27.253 85.6245 26.4798 85.9682 25.8622C86.36 25.1146 86.9447 24.7434 87.7051 24.7434C88.4655 24.7434 89.0083 25.1129 89.4094 25.8622C89.7453 26.478 89.9133 27.2085 89.9133 28.0707C89.9133 28.9329 89.7376 29.6719 89.3939 30.3048L89.3923 30.3065Z" fill="white"/>
<path d="M98.0244 23.2571L98.0322 25.2449C97.8487 25.2107 97.6481 25.1919 97.4335 25.1919C96.7695 25.1919 96.2501 25.4656 95.8894 26.0198C95.5768 26.5022 95.4167 27.1284 95.4167 27.8674V32.7872H93.5211V26.3637C93.5211 25.2808 93.5055 24.2955 93.4651 23.4145H95.1134L95.185 25.2107H95.2409C95.44 24.5949 95.7525 24.0919 96.1848 23.7224C96.6094 23.3888 97.065 23.2212 97.5533 23.2212C97.729 23.2212 97.8891 23.2383 98.026 23.2554L98.0244 23.2571Z" fill="white"/>
<path d="M106.496 27.6567C106.496 26.4866 106.241 25.5098 105.737 24.699C105.112 23.6965 104.178 23.1953 102.952 23.1953C101.727 23.1953 100.713 23.6965 99.976 24.699C99.2716 25.6416 98.9202 26.8202 98.9202 28.2298C98.9202 29.6394 99.2965 30.8163 100.048 31.67C100.8 32.5236 101.839 32.9547 103.159 32.9547C104.255 32.9547 105.207 32.7614 106.016 32.373L105.72 30.9309C105.031 31.2218 104.263 31.3706 103.424 31.3706C102.665 31.3706 102.047 31.1499 101.568 30.7188C101.04 30.2347 100.769 29.5214 100.744 28.5976H106.423C106.471 28.3427 106.495 28.0262 106.495 27.655L106.496 27.6567ZM100.752 27.111C100.808 26.4849 101.001 25.9409 101.312 25.491C101.696 24.9282 102.2 24.646 102.816 24.646C103.487 24.646 103.993 24.9368 104.319 25.5184C104.574 25.9666 104.703 26.5037 104.688 27.1196L100.75 27.111H100.752Z" fill="white"/>
<path d="M39.8476 8.81543C41.8101 8.81543 42.9717 10.1429 42.9717 12.4335C42.9717 14.7241 41.8148 16.0755 39.8476 16.0755H37.5198V8.81543H39.8476ZM38.5446 15.0987H39.7512C41.1508 15.0987 41.9236 14.1578 41.9236 12.442C41.9236 10.7262 41.1461 9.78538 39.7512 9.78538H38.5446V15.0987Z" fill="white"/>
<path d="M43.6125 13.4292C43.6125 11.7288 44.5222 10.687 45.8953 10.687C47.2684 10.687 48.1781 11.7288 48.1781 13.4292C48.1781 15.1296 47.2731 16.1765 45.8953 16.1765C44.5176 16.1765 43.6125 15.1347 43.6125 13.4292ZM47.1705 13.4292C47.1705 12.2574 46.6666 11.5834 45.8938 11.5834C45.1209 11.5834 44.6171 12.2574 44.6171 13.4292C44.6171 14.601 45.1209 15.2801 45.8938 15.2801C46.6666 15.2801 47.1705 14.6061 47.1705 13.4292Z" fill="white"/>
<path d="M53.9518 16.0755H52.9223L51.9116 12.1102H51.8882L50.8868 16.0755H49.8667L48.5449 10.7827H49.5324L50.411 14.9482H50.4296L51.4311 10.7827H52.3827L53.3888 14.9482H53.4122L54.2907 10.7827H55.2689L53.9518 16.0755Z" fill="white"/>
<path d="M55.8738 10.7826H56.8161V11.6687H56.8394C57.1007 11.0648 57.6123 10.6919 58.3525 10.6919C59.413 10.6919 60.021 11.436 60.021 12.6489V16.0754H59.0289V12.861C59.0289 12.0656 58.6899 11.6276 58.0042 11.6276C57.3184 11.6276 56.8612 12.1716 56.8612 12.991V16.0754H55.8738V10.7826Z" fill="white"/>
<path d="M61.0085 8.81543H61.996V16.0755H61.0085V8.81543Z" fill="white"/>
<path d="M62.7966 13.4292C62.7966 11.7288 63.7063 10.687 65.0794 10.687C66.4525 10.687 67.3622 11.7288 67.3622 13.4292C67.3622 15.1296 66.4572 16.1765 65.0794 16.1765C63.7016 16.1765 62.7966 15.1347 62.7966 13.4292ZM66.3545 13.4292C66.3545 12.2574 65.8507 11.5834 65.0778 11.5834C64.305 11.5834 63.8012 12.2574 63.8012 13.4292C63.8012 14.601 64.305 15.2801 65.0778 15.2801C65.8507 15.2801 66.3545 14.6061 66.3545 13.4292Z" fill="white"/>
<path d="M67.933 14.57C67.933 13.6445 68.5783 13.0766 69.7212 13.0047L71.0383 12.9192V12.512C71.0383 11.9236 70.6776 11.5712 70.0727 11.5712C69.5004 11.5712 69.1443 11.8723 69.0572 12.3461H68.1242C68.1786 11.3899 68.9204 10.6851 70.1084 10.6851C71.2965 10.6851 72.0196 11.3642 72.0196 12.4265V16.0737H71.0725V15.2029H71.0492C70.7709 15.7914 70.1613 16.1643 69.5315 16.1643C68.5892 16.1643 67.9314 15.5211 67.9314 14.57H67.933ZM71.0383 14.0927V13.6753L69.8534 13.7557C69.2641 13.8002 68.9297 14.0876 68.9297 14.5409C68.9297 14.9942 69.278 15.3056 69.8083 15.3056C70.4987 15.3056 71.0383 14.7821 71.0383 14.0927Z" fill="white"/>
<path d="M72.7629 13.4291C72.7629 11.7595 73.5685 10.6972 74.7752 10.6972C75.4656 10.6972 76.0145 11.0804 76.2851 11.6637H76.3037V8.81543H77.2959V16.0755H76.3348V15.1757H76.3162C76.0332 15.7795 75.4842 16.1662 74.7845 16.1662C73.5684 16.1662 72.7629 15.1004 72.7629 13.4291ZM73.7737 13.4291C73.7737 14.5462 74.2636 15.2458 75.0457 15.2458C75.8279 15.2458 76.3131 14.5359 76.3131 13.4291C76.3131 12.3223 75.8061 11.6124 75.0457 11.6124C74.2853 11.6124 73.7737 12.3172 73.7737 13.4291Z" fill="white"/>
<path d="M79.9875 13.4292C79.9875 11.7288 80.8972 10.687 82.2703 10.687C83.6434 10.687 84.5531 11.7288 84.5531 13.4292C84.5531 15.1296 83.6481 16.1765 82.2703 16.1765C80.8926 16.1765 79.9875 15.1347 79.9875 13.4292ZM83.5455 13.4292C83.5455 12.2574 83.0416 11.5834 82.2688 11.5834C81.4959 11.5834 80.9921 12.2574 80.9921 13.4292C80.9921 14.601 81.4959 15.2801 82.2688 15.2801C83.0416 15.2801 83.5455 14.6061 83.5455 13.4292Z" fill="white"/>
<path d="M85.3167 10.7826H86.259V11.6687H86.2823C86.5436 11.0648 87.0552 10.6919 87.7954 10.6919C88.8559 10.6919 89.4639 11.436 89.4639 12.6489V16.0754H88.4718V12.861C88.4718 12.0656 88.1328 11.6276 87.4471 11.6276C86.7613 11.6276 86.3041 12.1716 86.3041 12.991V16.0754H85.3167V10.7826Z" fill="white"/>
<path d="M93.594 9.52881V10.781H94.5084V11.6415H93.594V14.5599C93.594 15.0183 93.7775 15.2236 94.1787 15.2236C94.2798 15.2236 94.44 15.2134 94.5038 15.198V16.0584C94.3933 16.0892 94.1741 16.108 93.9548 16.108C92.9814 16.108 92.6004 15.7009 92.6004 14.6796V11.6415H91.9006V10.781H92.6004V9.52881H93.5925H93.594Z" fill="white"/>
<path d="M95.3545 8.81543H96.3326V11.6688H96.3559C96.6218 11.0496 97.1474 10.692 97.8783 10.692C98.9342 10.692 99.5655 11.467 99.5655 12.6644V16.0755H98.5734V12.8766C98.5734 12.0965 98.2173 11.6295 97.5222 11.6295C96.7898 11.6295 96.3419 12.1837 96.3419 13.0185V16.0772H95.3545V8.81714V8.81543Z" fill="white"/>
<path d="M104.643 14.5206C104.506 15.4871 103.674 16.1765 102.571 16.1765C101.158 16.1765 100.302 15.1245 100.302 13.4549C100.302 11.7853 101.172 10.687 102.529 10.687C103.887 10.687 104.697 11.7237 104.697 13.3283V13.7012H101.299V13.7662C101.299 14.6865 101.803 15.2955 102.593 15.2955C103.156 15.2955 103.571 14.9842 103.705 14.5206H104.643ZM101.304 12.94H103.71C103.686 12.1291 103.22 11.5612 102.529 11.5612C101.839 11.5612 101.354 12.1394 101.304 12.94Z" fill="white"/>
</svg>
