<svg width="668" height="552" viewBox="0 0 668 552" fill="none" xmlns="http://www.w3.org/2000/svg">
<path opacity="0.8" d="M651.897 438.761L615.433 438.713L596.146 438.687C588.66 438.676 582.548 432.539 582.555 425.049L582.732 290.252C582.74 282.762 588.871 276.643 596.357 276.654L613.461 276.676L652.108 276.724C659.594 276.732 665.707 282.869 665.699 290.359L665.526 425.156C665.515 432.646 659.384 438.765 651.897 438.757V438.761Z" fill="#FFBDC4"/>
<path d="M659.672 400.555L658.711 393.46L657.751 386.362C657.507 384.552 656.54 383.007 655.188 381.973C653.833 380.942 652.089 380.421 650.276 380.668C650.076 380.694 649.881 380.735 649.689 380.779C650.353 379.818 650.73 378.739 650.834 377.638C652.063 380.591 655.295 382.324 658.501 381.559C662.058 380.713 664.27 377.11 663.424 373.552L661.766 366.587L660.108 359.618C659.683 357.841 658.571 356.396 657.12 355.505C655.668 354.611 653.881 354.267 652.104 354.692C648.547 355.539 646.335 359.145 647.181 362.699L649.681 373.197C649.301 372.65 648.835 372.151 648.278 371.726C647.133 370.847 645.788 370.411 644.44 370.37C645.102 369.52 645.537 368.526 645.726 367.492C645.977 366.136 645.803 364.71 645.183 363.413C645.936 360.922 645.19 358.103 643.07 356.348L632.046 347.214C629.231 344.882 625.021 345.278 622.69 348.093C620.533 350.698 620.714 354.493 622.982 356.895C622.395 356.895 621.804 356.957 621.213 357.12L614.306 359.004L607.4 360.889C604.996 361.543 603.26 363.457 602.698 365.729L601.974 363.993L599.223 357.382C597.816 354.005 593.908 352.394 590.536 353.802C587.161 355.21 585.55 359.119 586.957 362.496L589.709 369.107L591.474 373.341C589.133 374.272 587.408 376.5 587.271 379.175L586.902 386.325L586.533 393.479C586.44 395.3 587.101 397.004 588.239 398.268C589.38 399.531 590.998 400.366 592.822 400.459C593.602 400.499 594.355 400.392 595.064 400.182C594.374 401.563 594.182 403.156 594.532 404.675C593.306 405.38 592.291 406.474 591.711 407.875L588.97 414.489L586.23 421.106C585.532 422.795 585.587 424.617 586.237 426.191C586.887 427.765 588.136 429.091 589.823 429.793C592.457 430.887 595.408 430.133 597.247 428.153C597.679 429.176 598.37 430.107 599.308 430.828C602.207 433.052 606.399 432.502 608.622 429.597L612.977 423.915L617.335 418.232C617.926 417.459 618.314 416.595 618.521 415.701C620.035 415.856 621.605 415.497 622.949 414.574L624.09 413.79L622.509 415.852L618.155 421.535C615.932 424.436 616.482 428.629 619.381 430.854C622.28 433.078 626.472 432.528 628.696 429.623L633.05 423.94L637.408 418.257C637.464 418.184 637.512 418.106 637.563 418.032C637.914 418.597 638.343 419.1 638.834 419.532L637.283 421.553C635.059 424.454 635.61 428.648 638.513 430.872C641.412 433.097 645.604 432.546 647.827 429.642L656.54 418.276C657.651 416.828 658.069 415.05 657.847 413.362C657.626 411.673 656.761 410.069 655.314 408.953C654.819 408.573 654.283 408.281 653.725 408.059C653.807 408.052 653.884 408.048 653.969 408.041C657.592 407.549 660.152 404.187 659.661 400.562L659.672 400.555ZM599.803 394.151L599.928 391.713C600.346 392.422 600.9 393.065 601.59 393.597C601.849 393.797 602.122 393.967 602.399 394.118L599.352 396.217C599.603 395.574 599.762 394.879 599.799 394.155L599.803 394.151ZM644.584 388.147L645.877 397.691C645.316 396.546 644.444 395.6 643.388 394.953C642.103 394.162 640.555 393.804 638.982 394.029C639.661 393.616 640.282 393.08 640.791 392.411L644.533 387.534C644.54 387.737 644.555 387.944 644.584 388.151V388.147ZM629.497 362.356L631.17 363.741L629.445 364.928C629.626 364.1 629.652 363.228 629.497 362.356ZM630.919 383.436C630.749 382.401 630.343 381.437 629.745 380.613C630.24 380.428 630.72 380.188 631.174 379.874L636.415 376.268L630.919 383.436ZM635.251 395.881C633.848 394.706 632.027 394.17 630.243 394.366L630.387 392.577C630.705 392.962 631.063 393.324 631.473 393.638C632.943 394.765 634.745 395.179 636.452 394.935C636.012 395.204 635.61 395.526 635.251 395.884V395.881ZM621.893 370.71C620.43 372.909 620.353 375.872 621.937 378.17C621.967 378.211 622 378.248 622.029 378.292C621.545 378.477 621.087 378.714 620.663 378.998C620.966 378.052 621.054 377.058 620.929 376.09C620.707 374.402 619.847 372.798 618.395 371.682C618.388 371.678 618.38 371.675 618.377 371.667L621.896 370.707L621.893 370.71ZM615.263 386.687L617.83 383.34C617.793 383.547 617.763 383.757 617.749 383.968L617.257 390.116C616.297 389.248 615.123 388.694 613.885 388.487L615.267 386.684L615.263 386.687ZM603.238 414.773L603.991 412.955C604.541 411.629 604.619 410.217 604.316 408.913C604.467 408.824 604.619 408.735 604.767 408.636L616.559 400.514C616.637 400.462 616.703 400.403 616.777 400.348C616.936 400.994 617.191 401.608 617.523 402.169L615.426 403.614C614.011 404.586 613.102 406.02 612.737 407.579C610.521 407.361 608.246 408.248 606.798 410.136L603.238 414.78V414.773ZM634.509 406.611L634.875 408.148C634.28 407.882 633.663 407.708 633.035 407.623L634.509 406.607V406.611ZM648.544 408.178L648.034 406.034L647.938 405.628C648.658 406.511 649.589 407.202 650.649 407.627C649.925 407.697 649.212 407.878 648.544 408.178ZM608.331 373.892L604.719 378.599L600.364 384.282C600.346 384.308 600.327 384.337 600.309 384.363L600.541 379.855C600.549 379.741 600.541 379.626 600.541 379.512C600.745 379.449 600.948 379.379 601.151 379.294C603.858 378.167 605.424 375.425 605.214 372.643C606.122 373.311 607.193 373.747 608.331 373.892Z" fill="#FF7281"/>
<path opacity="0.5" d="M615.437 438.713L596.15 438.687C588.664 438.676 582.551 432.539 582.559 425.049L582.736 290.252C582.743 282.762 588.874 276.643 596.361 276.654L613.464 276.676C614.875 279.1 615.695 281.997 615.688 285.097L615.488 437.35C615.488 437.808 615.47 438.262 615.433 438.709L615.437 438.713Z" fill="#FF6171"/>
<path d="M664.816 283.098L613.032 283.032L583.641 282.991C582.182 282.991 580.996 281.797 581 280.338L581.015 267.646C581.015 266.19 582.208 265 583.667 265.004L613.017 265.041H613.025L664.846 265.107C666.301 265.107 667.49 266.301 667.487 267.76L667.472 280.452C667.472 281.912 666.279 283.102 664.82 283.098H664.816Z" fill="#FF475A"/>
<path d="M613.032 283.028L583.641 282.987C582.182 282.987 580.996 281.794 581 280.334L581.015 267.642C581.015 266.186 582.208 264.996 583.667 265L613.017 265.037H613.025C614.476 265.041 615.662 266.234 615.662 267.69L615.647 280.382C615.643 281.827 614.476 283.009 613.04 283.028H613.032Z" fill="#953441"/>
<rect x="411" y="88" width="6" height="47" rx="2.29166" fill="#2B1B1D"/>
<rect x="222" y="51" width="3" height="15" rx="1.5" fill="#2B1B1D"/>
<rect x="222" y="79" width="4" height="27" rx="1.6946" fill="#2B1B1D"/>
<rect x="222" y="116" width="3" height="27" rx="1.5" fill="#2B1B1D"/>
<rect x="224" width="190" height="386" rx="35.694" fill="#2B1B1D"/>
<rect x="300" y="12" width="27" height="5" rx="2.5" fill="#E6E8EC"/>
<path d="M334 18C335.657 18 337 16.6569 337 15C337 13.3431 335.657 12 334 12C332.343 12 331 13.3431 331 15C331 16.6569 332.343 18 334 18Z" fill="#E6E8EC"/>
<path d="M403 25.0897V360.916C402.998 369.248 396.223 376.001 387.867 376H251.133C242.777 376.001 236.002 369.248 236 360.916V25.0897C236 21.0875 237.594 17.2492 240.432 14.4193C243.27 11.5893 247.119 9.99966 251.133 10H271.594V12.6205C271.596 19.4819 277.174 25.0437 284.055 25.0456H353.592C360.474 25.0456 366.053 19.4827 366.053 12.6205V10H387.867C391.881 9.99966 395.73 11.5893 398.568 14.4193C401.406 17.2492 403 21.0875 403 25.0897Z" fill="white"/>
<path d="M464.387 387.715C464.387 390.106 463.408 392.279 461.831 393.856C460.254 395.434 458.083 396.413 455.693 396.413H414.642C409.862 396.413 405.951 392.497 405.951 387.715C405.951 385.325 406.93 383.152 408.503 381.574C410.08 380 412.252 379.021 414.642 379.021H455.693C460.472 379.021 464.387 382.934 464.387 387.715Z" fill="#953441"/>
<path d="M443.21 387.715C443.21 390.106 442.231 392.279 440.657 393.856C439.08 395.434 436.909 396.413 434.519 396.413H414.642C409.862 396.413 405.951 392.497 405.951 387.715C405.951 385.325 406.93 383.152 408.503 381.574C410.08 380 412.252 379.021 414.642 379.021H434.519C439.298 379.021 443.21 382.934 443.21 387.715Z" fill="#ADAFAF"/>
<path opacity="0.4" d="M417.234 380.95H456.391C457.071 380.95 457.625 381.5 457.625 382.184V382.461C457.625 383.141 457.074 383.695 456.391 383.695H417.234C416.555 383.695 416.001 383.145 416.001 382.461V382.184C416.001 381.504 416.551 380.95 417.234 380.95Z" fill="#E9F3FE"/>
<path d="M429.356 363.081C430.49 365.346 430.597 367.873 429.851 370.116C429.105 372.359 427.513 374.321 425.245 375.455L386.336 394.961C381.804 397.234 376.238 395.379 373.971 390.849C372.837 388.584 372.73 386.056 373.476 383.813C374.222 381.57 375.817 379.612 378.081 378.478L416.991 358.972C421.522 356.699 427.088 358.551 429.359 363.081H429.356Z" fill="#FF475A"/>
<path d="M409.286 373.146C410.42 375.411 410.527 377.938 409.785 380.181C409.039 382.424 407.447 384.386 405.179 385.52L386.34 394.965C381.808 397.237 376.242 395.382 373.974 390.852C372.84 388.587 372.733 386.06 373.479 383.817C374.225 381.574 375.821 379.616 378.085 378.482L396.925 369.037C401.456 366.765 407.018 368.616 409.29 373.15L409.286 373.146Z" fill="#FFC3C9"/>
<path opacity="0.5" d="M420.447 361.315L420.315 361.052C419.993 360.409 419.203 360.147 418.56 360.468L381.446 379.076C380.803 379.398 380.541 380.189 380.862 380.832L380.995 381.094C381.317 381.737 382.107 381.999 382.75 381.678L419.864 363.07C420.507 362.748 420.769 361.957 420.447 361.315Z" fill="#FFE2CC"/>
<g clip-path="url(#clip0_305_987)">
<path d="M302.842 213.604H287V172.954L315.713 156.788L344.426 172.954V213.604H315.713V205.134" stroke="black" stroke-width="4" stroke-linecap="round" stroke-linejoin="round"/>
<path fill-rule="evenodd" clip-rule="evenodd" d="M333.579 180.634C330.687 177.963 325.997 177.963 323.105 180.634L316.122 187.082L309.139 180.634C306.246 177.963 301.557 177.963 298.664 180.634C295.772 183.305 295.772 187.636 298.664 190.307L305.647 196.755L316.122 206.427L333.579 190.306C336.471 187.635 336.471 183.305 333.579 180.634Z" fill="#EB5757"/>
<path d="M316.122 187.082L314.765 188.552C315.531 189.259 316.712 189.259 317.478 188.552L316.122 187.082ZM305.647 196.755L304.291 198.224C305.057 198.933 306.24 198.932 307.006 198.222L305.647 196.755ZM305.647 196.755L307.004 195.285C306.237 194.577 305.055 194.578 304.289 195.287L305.647 196.755ZM316.122 206.427L314.765 207.896C315.531 208.604 316.712 208.604 317.479 207.896L316.122 206.427ZM324.461 182.103C326.588 180.14 330.096 180.14 332.222 182.103L334.936 179.165C331.277 175.786 325.406 175.786 321.748 179.165L324.461 182.103ZM317.478 188.552L324.461 182.103L321.748 179.165L314.765 185.613L317.478 188.552ZM307.782 182.104L314.765 188.552L317.478 185.613L310.496 179.165L307.782 182.104ZM300.021 182.104C302.147 180.14 305.656 180.14 307.782 182.104L310.496 179.165C306.837 175.787 300.966 175.787 297.308 179.165L300.021 182.104ZM300.021 188.837C297.986 186.958 297.986 183.983 300.021 182.104L297.308 179.165C293.558 182.628 293.558 188.313 297.308 191.776L300.021 188.837ZM307.004 195.285L300.021 188.837L297.308 191.776L304.291 198.224L307.004 195.285ZM317.479 204.958L307.004 195.285L304.291 198.224L314.765 207.896L317.479 204.958ZM332.222 188.837L314.765 204.958L317.479 207.896L334.936 191.776L332.222 188.837ZM332.222 182.103C334.257 183.983 334.257 186.958 332.222 188.837L334.936 191.776C338.686 188.313 338.686 182.628 334.936 179.165L332.222 182.103Z" fill="black"/>
</g>
<path d="M556.295 409.773C556.295 409.773 561.673 414.758 560.624 418.301C559.575 421.845 554.722 424.206 554.068 428.536C553.411 432.867 550.789 435.228 548.429 435.228H537.175C537.175 435.228 535.439 432.18 539.635 431.263C543.83 430.343 545.415 425.259 545.153 420.533C544.89 415.811 545.544 409.511 545.544 409.511L554.464 407.412L556.299 409.773H556.295Z" fill="#342527"/>
<path d="M489.28 435.043C489.195 435.088 489.077 435.125 488.925 435.165H458.825C459.087 434.101 460.051 432.073 463.574 431.5C468.276 430.739 476.42 428.004 478.241 421.989C478.296 421.797 478.351 421.597 478.396 421.394C479.84 414.965 490.329 423.363 490.329 423.363C490.329 423.363 490.362 423.618 490.406 424.054C490.646 426.412 491.271 434.042 489.28 435.04V435.043Z" fill="#342527"/>
<path d="M464.823 263.089C464.823 263.089 466.414 282.979 468.287 306.886C470.832 339.361 473.893 379.252 474.196 386.812C474.721 399.937 476.819 420.925 476.819 420.925C476.819 420.925 481.801 425.913 491.769 423.811C491.769 423.811 500.652 393.844 503.189 362.141C503.23 361.62 503.267 361.099 503.307 360.574C505.667 328.298 509.338 260.336 509.338 260.336L464.819 263.093L464.823 263.089Z" fill="#FF475A"/>
<path d="M464.823 263.089C464.823 263.089 466.414 282.979 468.287 306.886L503.193 362.141C503.233 361.62 503.27 361.099 503.311 360.574C505.671 328.298 509.342 260.336 509.342 260.336L464.823 263.093V263.089Z" fill="#953441"/>
<path d="M472.102 265.45C472.102 265.45 500.822 337.481 519.706 371.33C538.59 405.18 544.492 414.628 544.492 414.628C544.492 414.628 555.309 410.298 556.296 407.346C556.296 407.346 549.075 341.996 536.429 326.067C529.282 317.066 520.888 290.052 520.496 280.607C520.101 271.159 517.94 252.462 517.94 252.462L472.106 265.45H472.102Z" fill="#FF475A"/>
<path d="M482.418 138.213C493.099 141.583 511.584 132.482 511.584 132.482C511.584 132.482 503.248 126.226 502.317 113.246C502.303 113.068 502.292 112.891 502.284 112.71C502.229 111.749 502.218 110.748 502.251 109.71L499.326 112.067L488.382 120.894C488.382 120.894 488.944 125.247 489.169 132.5C487.433 133.454 486.045 134.503 484.992 135.438C483.256 136.979 482.418 138.213 482.418 138.213Z" fill="#FF475A"/>
<path d="M523.44 131.1C523.44 131.1 495.204 126.644 476.601 138.963C476.601 138.963 463.962 221.62 474.968 229.439C485.971 237.261 523.44 229.439 523.44 229.439V131.1Z" fill="#FF475A" fill-opacity="0.91"/>
<path d="M485.76 318.359H536.784C536.784 318.359 530.856 231.257 529.161 210.055C527.787 192.858 524.876 151.622 523.827 136.654L523.44 131.104L511.259 129.027L490.336 156.156C490.336 156.156 487.027 228.5 487.149 239.903C487.225 247.196 486.663 267.997 486.23 283.998C485.987 293.016 485.784 300.509 485.76 303.202C485.694 310.67 485.76 318.363 485.76 318.363V318.359Z" fill="white"/>
<path d="M485.76 318.359H536.784C536.784 318.359 530.856 231.257 529.161 210.055C527.787 192.858 524.876 151.622 523.827 136.654L523.44 131.104L511.259 129.027L490.336 156.156C490.336 156.156 487.027 228.5 487.149 239.903C487.225 247.196 486.663 267.997 486.23 283.998C485.987 293.016 485.784 300.509 485.76 303.202C485.694 310.67 485.76 318.363 485.76 318.363V318.359Z" stroke="black"/>
<path d="M490.34 156.152L485.764 318.359H461.724C461.724 318.359 462.836 211.673 462.917 201.874C462.998 192.071 460.306 149.848 467.807 143.293C474.078 137.814 489.169 132.497 489.169 132.497L490.34 156.152Z" fill="white"/>
<path d="M489.014 128.757C489.014 128.757 482.159 133.48 482.418 135.176C482.676 136.872 483.614 139.554 483.614 139.554L487.806 138.701L484.268 141.191C484.268 141.191 488.279 152.893 490.336 156.152L489.01 128.754L489.014 128.757Z" fill="white"/>
<path d="M488.603 130.004C488.603 130.004 481.749 134.726 482.007 136.422C482.266 138.118 483.204 140.8 483.204 140.8L487.396 139.947L483.857 142.437C483.857 142.437 487.868 154.139 489.926 157.398L488.6 130L488.603 130.004Z" fill="#FFD8D8"/>
<path d="M489.014 128.757C489.014 128.757 482.159 133.48 482.418 135.176C482.676 136.872 483.614 139.554 483.614 139.554L487.806 138.701L484.268 141.191C484.268 141.191 488.279 152.893 490.336 156.152L489.01 128.754L489.014 128.757Z" fill="white"/>
<path d="M489.014 128.757C489.014 128.757 482.159 133.48 482.418 135.176C482.676 136.872 483.614 139.554 483.614 139.554L487.806 138.701L484.268 141.191C484.268 141.191 488.279 152.893 490.336 156.152L489.01 128.754L489.014 128.757Z" fill="white"/>
<path d="M502.317 113.246C502.365 112.913 502.473 112.751 502.473 112.751L502.284 112.71L499.326 112.067L488.382 120.894C488.382 120.894 488.855 125.003 489.195 132.519C489.225 132.482 500.474 126.252 502.317 113.246Z" fill="#FF475A"/>
<path d="M483.925 123.577C483.925 123.577 502.979 123.045 502.465 111.177C501.952 99.312 504.064 91.2495 491.876 91.0906C479.688 90.928 477.524 95.5616 476.734 99.5632C475.943 103.565 478.957 123.411 483.928 123.577H483.925Z" fill="#FF475A"/>
<path d="M502.473 112.751C502.473 112.751 499.991 113.405 498.026 110.785C496.061 108.165 492.785 98.0704 488.464 97.4164C484.139 96.7624 478.444 99.9734 476.604 98.1369C473.927 95.4618 470.47 91.0869 470.47 91.0869C470.47 91.0869 491.913 75.7933 500.471 82.8692C509.028 89.9451 512.027 100.302 502.473 112.751Z" fill="#342527"/>
<path d="M488.479 318.359C488.497 318.196 490.148 301.857 489.671 287.657C489.472 281.657 489.642 274.603 489.804 267.782C490.037 258.053 490.562 248.679 489.775 242.571C488.431 232.114 488.7 184.585 489.25 179.434C489.79 174.413 489.273 168.904 488.778 167.241C488.268 165.549 490.443 156.278 490.469 156.185L490.214 156.119C490.115 156.507 487.769 165.637 488.298 167.396C488.789 169.04 489.524 174.417 488.992 179.401C488.438 184.556 487.382 232.077 488.73 242.545C489.513 248.634 489.779 258.053 489.546 267.771C489.383 274.595 489.21 281.653 489.413 287.661C489.889 301.846 487.481 318.193 487.467 318.355H488.486L488.479 318.359Z" fill="#D3D3D5"/>
<path d="M446.227 187.881C446.227 187.881 439.771 198.999 446.541 201.926C453.311 204.852 454.042 201.767 454.042 201.767L446.227 187.881Z" fill="white"/>
<path d="M500.319 194.732C500.319 194.732 499.293 196.827 499.407 198.707C499.529 200.673 500.449 203.644 500.449 203.644C500.449 203.644 540.303 212.131 548.048 205.037C556.366 197.418 540.935 140.186 534.331 134.584C531.487 132.172 525.486 130.697 519.946 129.818C516.895 129.33 513.981 129.023 511.817 128.839C509.586 128.643 508.138 128.58 508.138 128.58L509.036 131.906L512.53 144.827L516.603 159.899C516.603 159.899 528.788 184.988 529.179 187.345C529.571 189.706 500.312 194.732 500.312 194.732H500.319Z" fill="white"/>
<path d="M491 157.203L506.83 127C506.83 127 512.735 128.197 514.719 130.056C514.719 130.056 513.71 139.138 512.924 141.148C512.924 141.148 509.866 140.797 509.43 141.059C509.43 141.059 510.914 143.332 511.35 143.594C511.35 143.594 497.589 150.012 491 157.199V157.203Z" fill="#FFD8D8"/>
<path opacity="0.5" d="M487.644 174.949C487.644 174.247 487.075 173.677 486.373 173.677C485.672 173.677 485.103 174.247 485.103 174.949C485.103 175.651 485.672 176.22 486.373 176.22C487.075 176.22 487.644 175.651 487.644 174.949Z" fill="#A8A9AB"/>
<path opacity="0.5" d="M487.644 246.173C487.644 245.471 487.075 244.902 486.373 244.902C485.672 244.902 485.103 245.471 485.103 246.173C485.103 246.875 485.672 247.445 486.373 247.445C487.075 247.445 487.644 246.875 487.644 246.173Z" fill="#A8A9AB"/>
<path opacity="0.5" d="M487.005 213.62C487.005 212.918 486.436 212.349 485.734 212.349C485.033 212.349 484.464 212.918 484.464 213.62C484.464 214.322 485.033 214.892 485.734 214.892C486.436 214.892 487.005 214.322 487.005 213.62Z" fill="#A8A9AB"/>
<path opacity="0.5" d="M487.005 277.123C487.005 276.421 486.436 275.852 485.734 275.852C485.033 275.852 484.464 276.421 484.464 277.123C484.464 277.825 485.033 278.394 485.734 278.394C486.436 278.394 487.005 277.825 487.005 277.123Z" fill="#A8A9AB"/>
<path d="M501.062 135.689C501.062 135.689 496.656 137.858 489.535 136.517L490.336 156.152L501.062 135.689Z" fill="#FFC3C9"/>
<path d="M473.232 158.92L432.011 162.615L457.163 207.317L495.965 205.089L473.232 158.92Z" fill="#FFC3C9"/>
<path d="M469.436 158.717C469.436 158.717 469.417 152.398 465.927 152.834C462.437 153.27 461.38 159.618 461.38 159.618L469.432 158.717H469.436Z" fill="#CBCBCB"/>
<path d="M432.281 162.053L473.502 158.358L496.234 204.523L495.954 205.096L473.225 158.931L432 162.626L432.281 162.053Z" fill="#B8B8B8"/>
<path d="M465.927 152.834C465.927 152.834 460.103 155.694 462.16 164.861C464.217 174.029 466.784 179.057 465.288 184.478L437.522 187.028C437.522 187.028 440.539 179.819 437.185 172.521C433.832 165.223 436.214 156.887 439.291 156.16L465.923 152.827L465.927 152.834Z" fill="white"/>
<path d="M452.059 198.996C452.059 198.996 456.28 193.922 455.408 190.25C454.533 186.581 451.39 185.731 449.47 187.028C447.549 188.325 444.753 191.295 445.278 193.568C445.802 195.84 449.935 200.049 452.062 198.992L452.059 198.996Z" fill="#FF475A"/>
<path d="M502.428 195.977C502.428 195.977 495.278 192.832 492.002 193.749C488.726 194.665 484.309 195.323 483.961 196.501C483.614 197.68 486.318 202.048 490.336 202.269C494.358 202.491 501.431 204.368 503.134 202.269C504.836 200.174 502.424 195.98 502.424 195.98L502.428 195.977Z" fill="#FF475A"/>
<path d="M490 156.203L505.83 126C505.83 126 511.735 127.197 513.719 129.056C513.719 129.056 512.71 138.138 511.924 140.148C511.924 140.148 508.866 139.797 508.43 140.059C508.43 140.059 509.914 142.332 510.35 142.594C510.35 142.594 496.589 149.012 490 156.199V156.203Z" fill="white"/>
<path d="M75.1126 136.593C75.1126 136.593 62.3042 142.657 59.3938 141.892C56.4835 141.127 45.4293 139.176 43.8744 139.863C43.8744 139.863 42.1127 142.672 43.4423 144.523C44.7719 146.37 55.5269 151.37 59.4123 151.551C63.2977 151.732 78.0489 149.06 81.1771 146.614L75.1126 136.597V136.593Z" fill="white"/>
<path d="M44.266 139.915C44.266 139.915 39.328 137.864 37.7103 140.155C36.0927 142.446 35.1767 144.767 35.3762 145.942C35.5756 147.117 38.9107 147.634 40.244 146.721C41.5773 145.809 44.8791 144.534 44.8791 144.534L44.2623 139.915H44.266Z" fill="white"/>
<path d="M50.637 142.605C50.637 142.605 56.3468 165.666 64.7713 182.906C67.1314 187.74 69.7093 192.118 72.435 195.403C73.7535 196.992 75.109 198.329 76.4866 199.331C90.8832 209.791 113.601 193.105 113.601 193.105C114.413 182.962 96.0354 165.943 84.2832 155.774C79.6666 151.78 76.0766 148.842 75.0684 147.793C73.1183 145.761 68.9596 144.526 64.6199 143.776C57.8537 142.605 50.6407 142.609 50.6407 142.609L50.637 142.605Z" fill="#FF8C98"/>
<path d="M20.6582 427.523C20.6582 427.523 23.3839 431.935 23.443 437.056C23.4577 438.194 22.527 439.121 21.3858 439.121H4.38906C2.74183 439.121 1.53042 437.573 1.93299 435.977C2.72337 432.862 4.41861 428.158 7.81278 425.302C13.2272 420.746 20.6545 427.519 20.6545 427.519L20.6582 427.523Z" fill="#342527"/>
<path d="M47.5493 423.008C47.5493 423.008 48.5244 438.774 51.5751 439C51.9813 439.029 67.039 439.029 67.039 439.029H86.4623C86.4623 439.029 86.1336 434.285 80.516 433.306C74.8985 432.326 65.4916 428.376 62.09 420.946C58.5075 413.131 47.5493 423.008 47.5493 423.008Z" fill="#342527"/>
<path d="M39.4128 325.611C40.0924 334.368 40.181 341.282 39.2835 344.563C35.2762 359.224 46.5077 425.435 46.5077 425.435C54.7881 429.4 66.5477 425.395 66.5477 425.395C65.8349 416.224 70.193 334.121 74.2483 284.031C75.9472 263.003 77.2177 248.289 77.2177 248.289L27.6089 242.51C27.6089 242.51 37.0601 295.194 39.4091 325.611H39.4128Z" fill="#953441"/>
<path d="M27.6126 242.51C27.6126 242.51 37.0638 295.194 39.4128 325.611L74.2483 284.031C75.9472 263.003 77.2177 248.289 77.2177 248.289L27.6089 242.51H27.6126Z" fill="#802A35"/>
<path d="M51.948 253.747C51.948 253.747 26.8371 400.032 22.5159 428.358C22.5159 428.358 13.1126 430.985 3.50996 426.913C3.50996 426.913 2.26899 358.936 5.55606 338.459C8.84313 317.981 3.80542 254.678 9.10166 248.792C14.3979 242.902 51.948 253.747 51.948 253.747Z" fill="#953441"/>
<path d="M49.3629 129.004C49.3629 129.004 51.2908 142.003 50.445 145.886C49.6029 149.77 36.691 151.879 31.2914 148.672C25.8917 145.465 27.5168 144.271 27.5168 144.271C27.5168 144.271 28.3404 129.388 29.0975 128.328C29.8547 127.267 49.3629 129.004 49.3629 129.004Z" fill="white"/>
<path d="M6.18764 255.798C6.18764 255.798 9.8145 257.922 18.9296 259.722C25.6183 261.045 35.2579 262.186 48.5871 262.186C72.9668 262.186 80.9924 255.236 80.9924 255.236C82.3036 255.258 76.3868 221.36 76.3868 192.417C76.3868 165.651 68.5533 145.613 55.0468 143.267C52.406 142.808 50.6406 142.531 50.6406 142.609C50.6406 144.807 47.1763 148.868 41.8394 149.215C35.5053 149.629 27.6533 146.259 27.6533 142.609C27.6533 142.435 12.8763 143.337 8.16357 170.473C6.55328 179.718 6.11747 192.011 7.82379 208.343C8.41472 213.981 4.16369 255.772 6.19503 255.801L6.18764 255.798Z" fill="#FFC3C9"/>
<path d="M6.18768 255.798C6.18768 255.798 9.81453 257.922 18.9297 259.722C31.5276 254.139 56.5278 239.713 57.5065 215.489C58.8029 183.265 19.48 164.077 19.48 164.077C19.48 164.077 14.2059 167.011 8.15992 170.469C6.54962 179.714 6.11381 192.007 7.82013 208.339C8.41106 213.978 4.16003 255.768 6.19137 255.798H6.18768Z" fill="#FF8C98"/>
<path d="M49.566 130.467C49.566 130.467 44.5578 137.528 39.2653 137.591C33.9727 137.654 28.5657 130.578 28.5657 130.578L49.566 130.467Z" fill="#FFC3C9"/>
<path d="M50.0497 130.116C48.6647 131.206 45.566 132.714 43.0324 133.711C41.1119 134.469 38.9845 134.513 37.0307 133.837C34.1093 132.828 29.6847 131.254 28.5656 130.578C25.9138 128.971 26.0837 125.715 25.9507 121.189C25.7882 115.831 25.249 111.626 25.8473 108.537C26.5564 104.842 28.898 102.743 35.4537 102.171C47.4866 101.125 52.4984 104.14 52.7089 108.175C52.7643 109.258 52.8124 110.292 52.8493 111.272C53.3294 123.857 52.3359 128.32 50.0571 130.116H50.0497Z" fill="white"/>
<path d="M52.7754 109.664C52.7754 109.664 50.8069 106.76 47.1025 107.898C43.3981 109.036 43.0214 112.203 36.691 111.696C30.3643 111.19 28.8426 108.194 27.7051 109.69C26.5676 111.187 25.9064 120.04 25.9064 120.04C25.9064 120.04 13.1829 91.0155 38.9735 91.0155C38.9735 91.0155 65.5507 89.4082 52.7754 118.913V109.664Z" fill="#FF475A"/>
<path d="M99.6328 137.155L99.5994 137.174C99.6291 137.189 99.6328 137.155 99.6328 137.155Z" fill="white"/>
<path d="M113.531 95.6823C113.745 95.1982 113.9 94.8842 113.9 94.8842C113.738 95.1059 113.619 95.3793 113.531 95.6823Z" fill="#D35C2B"/>
<path d="M40.2771 226.423C40.2771 226.423 43.6528 229.083 48.5871 229.083C48.5871 229.083 53.6211 223.533 57.8648 218.164C60.6126 214.687 63.0243 211.288 63.5229 209.518C64.7897 205.025 88.4751 203.757 91.3744 200.594C94.2773 197.428 79.6074 189.487 79.6074 189.487C79.6074 189.487 55.5601 193.168 51.948 197.893C50.5113 199.774 48.3692 204.677 46.312 209.898C43.2022 217.798 40.2808 226.426 40.2808 226.426L40.2771 226.423Z" fill="white"/>
<path d="M73.9344 160.47C73.9344 160.47 69.3769 151.617 67.1239 151.876C64.871 152.135 72.2983 170.199 72.9742 178.979C73.6501 187.758 73.9344 160.47 73.9344 160.47Z" fill="#FDFDFD"/>
<path d="M59.6709 221.408C62.8324 229.068 66.9283 236.048 67.4527 236.931C67.4897 236.99 67.5081 237.023 67.5081 237.023H67.582C68.3502 237.016 74.9502 236.872 75.5965 234.219C75.5965 234.219 75.8108 225.041 75.4451 217.75C75.2789 214.491 75.0019 211.613 74.5402 210.091C74.5402 210.091 110.347 209.85 109.716 199.719C109.088 189.587 90.3662 184.226 79.6075 189.48C79.6075 189.48 65.3365 194.668 57.8279 201.518C54.1383 204.884 56.406 213.505 59.6746 221.405L59.6709 221.408Z" fill="white"/>
<path d="M108.652 185.511C108.652 185.511 113.42 192.521 112.301 199.061C111.182 205.601 97.5829 209.097 88.0615 209.514C88.0615 209.514 60.838 203.273 65.0595 192.414C66.016 189.953 108.652 185.511 108.652 185.511Z" fill="#FF475A"/>
<path d="M98.7648 99.3662C98.7648 99.3662 103.09 90.2692 113.531 95.6823C123.975 101.096 113.808 121.736 119.289 126.835C124.77 131.934 117.302 135.271 118.413 138.929C119.525 142.583 116.349 146.744 109.04 146.252C101.731 145.764 94.0336 146.156 90.7318 139.76C87.43 133.364 88.1797 119.286 89.4576 117.309C90.7318 115.332 98.7648 99.3625 98.7648 99.3625V99.3662Z" fill="#AA443E"/>
<path d="M81.8381 147.896L99.5957 137.173C99.496 137.133 99.1377 136.597 97.8118 132.754C97.2467 131.117 96.9476 129.695 96.7998 128.568C96.7851 128.453 96.7703 128.346 96.7592 128.239C96.5782 126.602 96.7112 125.656 96.7112 125.656L92.8221 127.064L85.6275 129.673C85.7124 131.498 85.4539 132.784 85.0661 133.663C84.128 135.803 82.3774 135.817 82.3257 135.817L81.8381 147.896Z" fill="white"/>
<path d="M85.0662 133.66C92.0207 134.251 95.9357 129.713 96.7999 128.568C96.9292 128.402 96.992 128.306 96.992 128.306C96.992 128.306 96.907 128.28 96.7593 128.235C96.1942 128.069 94.6578 127.607 92.8185 127.06L85.6239 129.669C85.7088 131.494 85.4503 132.78 85.0625 133.66H85.0662Z" fill="#FFC3C9"/>
<path d="M84.7152 131.162C84.7152 131.162 100.164 132.858 100.482 122.408C100.8 111.959 103.082 107.174 92.3937 106.243C81.7052 105.312 79.1789 109.162 78.5511 112.698C76.5825 123.746 80.3645 130.692 84.7189 131.158L84.7152 131.162Z" fill="white"/>
<path d="M91.5628 111.349C97.0289 109.963 94.9385 119.655 96.3198 118.99C97.8673 118.248 100.523 118.259 100.102 120.125C99.6844 121.991 99.0787 122.659 98.7611 123.823C98.4471 124.987 98.7611 127.297 100.035 126.831C101.306 126.366 113.128 112.86 104.781 102.341C96.4343 91.821 71.5412 98.302 79.3821 109.306C80.7597 111.242 87.67 112.332 91.5628 111.345V111.349Z" fill="#AA443E"/>
<path d="M71.7221 189.473C71.7221 189.473 76.3647 191.937 83.6738 191.823C88.3311 191.752 98.2181 189.728 104.574 187.433C108.197 186.129 110.676 184.732 110.377 183.561C109.948 181.872 106.846 168.917 103.976 156.931C101.354 145.968 98.9309 135.817 98.9309 135.817C98.9309 135.817 91.6957 140.961 87.4779 139.147C83.2601 137.329 83.803 135.278 83.803 135.278C83.803 135.278 78.8355 134.668 77.4874 134.827C75.3342 135.082 67.737 137.85 67.737 137.85C67.737 137.85 66.7398 140.658 69.3879 145.04C71.5818 148.669 73.7165 149.374 73.7165 149.374C73.7165 149.374 67.508 168.958 71.7258 189.473H71.7221Z" fill="#6BB7BF"/>
<path d="M94.9716 171.988C94.9716 171.988 90.5101 171.153 88.7632 172.298C87.0162 173.44 86.5028 175.228 87.7586 175.96C91.6957 178.251 95.6882 175.716 95.6882 175.716L94.9679 171.988H94.9716Z" fill="white"/>
<path d="M104.574 187.433C108.197 186.129 110.676 184.732 110.377 183.561C109.948 181.872 106.846 168.917 103.976 156.931C103.13 155.375 102.591 154.448 102.591 154.448C102.591 154.448 97.1507 179.33 104.574 187.429V187.433Z" fill="#599DAD"/>
<path d="M98.7499 137.214C98.7499 137.214 112.493 140.126 117.915 161.501C118.446 163.593 117.896 165.825 116.452 167.428C113.959 170.192 108.467 174.231 95.6882 175.72C94.2921 175.882 94.1074 172.342 94.1074 172.342C94.2478 172.623 102.787 166.822 106.421 163.704C107.078 163.138 107.053 161.956 106.576 161.232C105.346 159.355 103.289 156.114 102.595 154.451C101.583 152.024 94.9089 138.319 98.7499 137.218V137.214Z" fill="white"/>
<path d="M98.9309 135.817C98.9309 135.817 107.012 136.394 113.601 145.181C113.601 145.181 111.37 153.265 100.903 155.423C100.903 155.423 94.4509 140.865 98.9309 135.817Z" fill="#6BB7BF"/>
<path d="M59.6709 221.408C62.8324 229.068 66.9283 236.048 67.4528 236.931C67.4971 236.961 67.5377 236.99 67.582 237.023C68.3502 237.016 74.9502 236.872 75.5965 234.219C75.5965 234.219 75.8108 225.041 75.4451 217.75C74.3962 218.759 70.3409 221.767 59.6709 221.408Z" fill="#EBF2F9"/>
<path d="M40.2771 226.422C40.2771 226.422 43.6528 229.083 48.5871 229.083C48.5871 229.083 53.6211 223.533 57.8648 218.164C53.0893 216.099 48.0479 211.55 46.3083 209.898C43.1985 217.798 40.2771 226.426 40.2771 226.426V226.422Z" fill="#EBF2F9"/>
<path d="M57.3218 246.93C57.4695 247.765 58.2931 248.304 59.1241 248.134C61.1038 247.732 64.6789 246.967 66.1636 246.427C68.2688 245.662 72.3019 243.275 74.4071 242.511C75.131 242.248 76.8669 241.546 77.9934 241.088C78.5917 240.844 78.9056 240.194 78.7283 239.573C78.3553 238.291 77.6351 236.103 76.6047 234.274C76.4163 233.934 76.1098 233.68 75.7257 233.495C74.6324 234.37 72.9113 235.335 70.6104 235.342C68.7231 235.35 67.1571 234.888 65.9974 234.37C65.8534 234.662 62.9837 240.452 60.9523 241.191C59.1241 241.857 56.7308 243.604 57.3218 246.926V246.93Z" fill="#953441"/>
<path d="M27.2839 226.489C26.885 227.239 27.1953 228.17 27.9561 228.551C29.7584 229.46 33.0418 231.074 34.5413 231.57C36.6687 232.272 41.3112 232.9 43.4385 233.602C44.1698 233.842 45.9685 234.37 47.1356 234.707C47.756 234.884 48.4061 234.57 48.6498 233.971C49.1521 232.733 49.9388 230.568 50.2638 228.495C50.3229 228.111 50.2417 227.723 50.057 227.339C48.6572 227.35 46.7108 227.039 44.8974 225.621C43.4127 224.457 42.4672 223.126 41.8762 222C41.5845 222.14 35.7453 224.907 33.6918 224.231C31.8452 223.622 28.8831 223.511 27.2913 226.485L27.2839 226.489Z" fill="#953441"/>
<path d="M56.2544 214.909C56.2544 214.909 57.2849 220.884 61.1665 223.633C61.1665 223.633 76.9334 221.464 91.6144 217.747C102.406 215.016 112.611 211.454 115.532 207.301C122.428 197.509 111.924 185.593 111.924 185.593C111.924 185.593 91.6809 195.366 69.7646 207.338C65.2772 209.788 60.7233 212.333 56.2544 214.905V214.909Z" fill="#FFC3C9"/>
<path d="M79.9767 223.633C79.9767 223.633 84.6599 224.013 86.4327 225.787C88.2055 227.56 90.8905 232.715 88.9774 234.758C87.0643 236.802 77.9528 232.32 77.6979 231.584C77.4431 230.849 79.9767 223.629 79.9767 223.629V223.633Z" fill="white"/>
<path d="M56.2544 214.909C56.2544 214.909 57.2849 220.884 61.1665 223.633C61.1665 223.633 76.9334 221.464 91.6144 217.747C84.7152 211.746 75.6961 208.757 69.7646 207.342C65.2772 209.791 60.7233 212.337 56.2544 214.909Z" fill="#FDFDFD"/>
<path d="M80.6083 222.007C58.585 206.008 42.9585 200.177 42.5079 200.221C39.7194 188.549 37.1858 170.392 26.6377 142.701C26.6377 142.701 5.90698 142.986 2.75287 150.479C-1.7493 161.18 -5.0179 195.887 29.271 218.297C29.4741 218.438 29.692 218.582 29.9284 218.726C30.0244 218.789 30.1168 218.848 30.2128 218.911H30.2313C40.8274 225.122 78.7765 233.502 78.7765 233.502C82.913 228.329 80.6083 222.011 80.6083 222.011V222.007Z" fill="#FFC3C9"/>
<path d="M211.738 402.337H246.101C248.937 402.337 251.239 404.639 251.239 407.475V426.763H245.493V408.477H211.738V402.337Z" fill="#3C161B"/>
<path d="M205.168 389.31L215.817 378.073C215.817 378.073 227.219 384.341 240.508 390.336C244.161 383.975 250.124 363.058 250.446 362.06C250.767 361.059 243.461 348.494 245.095 348.18C246.728 347.866 248.852 354.891 250.578 354.179C252.304 353.467 256.746 337.168 257.788 338.057C259.735 339.723 255.451 348.196 256.477 348.812C257.502 349.427 260.101 339.417 262.085 339.848C264.064 340.274 258.742 348.961 259.325 349.793C259.908 350.63 265.473 342.479 266.623 344.366C267.247 345.392 261.49 351.463 262.672 352.139C263.855 352.819 269.045 348.993 269.665 350.232C270.284 351.471 264.825 352.763 263.308 355.897C261.791 359.031 259.035 360.25 258.122 366.176C257.209 372.098 254.706 403.778 248.249 406.32C242.612 408.541 205.168 389.31 205.168 389.31Z" fill="#FF475A"/>
<path d="M106.919 535.359C106.079 529.384 106.143 518.353 106.573 506.713C101.359 506.448 96.9497 506.118 91.7435 505.776C93.9121 520.638 95.3725 535.946 95.3725 535.946L95.0145 538.883L94.8214 547.59L124.32 547.811C124.32 547.811 118.104 545.055 109.406 539.608C108.762 539.205 107.281 537.922 106.919 535.359Z" fill="#FF8C98"/>
<path d="M94.0245 549.461L125.129 549.827C126.255 549.726 126.529 548.817 126.138 548.254C125.334 547.099 121.781 546.25 117.79 544.407C110.785 545.14 96.1327 540.352 95.0263 538.743C94.3866 541.961 93.3969 549.32 94.0245 549.457V549.461Z" fill="#AA443E"/>
<path d="M54.0655 529.203C56.4995 523.684 62.3695 514.341 68.8711 504.678C64.5823 501.704 60.3256 498.679 56.0811 495.641C50.0904 509.417 43.9388 523.615 43.9388 523.615L42.0881 525.924L37.3366 533.223L62.289 548.958C62.289 548.958 58.4588 543.337 53.9367 534.124C53.6028 533.444 53.0194 531.569 54.0614 529.203H54.0655Z" fill="#FF8C98"/>
<path d="M36.0372 535.049L61.915 551.098C62.9248 551.605 63.6369 550.977 63.6007 550.293C63.5283 548.885 60.9534 546.294 58.5314 542.625C52.1947 539.555 42.3256 527.691 42.2331 525.739C39.9921 528.141 35.5746 534.599 36.0332 535.045L36.0372 535.049Z" fill="#AA443E"/>
<path d="M66.1996 286.242C63.8942 274.992 71.1281 263.844 81.2708 259.656C81.2024 253.255 83.2744 245.148 87.6477 240.766C96.2696 232.12 112.721 229.091 119.061 240.111C127.434 244.85 134.024 255.109 131.526 264.456C139.641 272.86 136.559 288.072 124.726 295.254C124.915 304.684 119.926 314.059 111.679 318.09C109.699 319.055 106.601 320.407 106.211 320.826C106.726 320.339 100.104 338.786 79.5207 330.341C58.5191 321.727 52.5084 297.475 66.1955 286.242H66.1996Z" fill="#342527"/>
<path d="M107.462 526.922C104.908 512.752 113.783 477.621 119.194 462.176C124.823 446.111 128.404 378.121 128.404 378.121L122.023 370.658L95.9759 369.097C95.9759 369.097 107.06 403.15 107.06 414.85C107.06 426.549 101.669 456.752 95.3362 472.467C89.4944 486.967 91.9205 517.363 93.6907 527.361C98.402 528.121 102.868 527.848 107.466 526.918L107.462 526.922Z" fill="#712B35"/>
<path d="M89.3899 372.259C88.195 373.45 81.1945 381.742 81.1945 387.536C81.1945 393.329 94.3869 445.483 91.2205 448.645C88.0542 451.808 76.3424 459.721 68.8672 470.745C62.5707 480.035 48.1272 506.89 45.3712 513.279C50.8107 517.065 55.5381 518.791 60.9896 520.618C61.8627 515.862 104.521 468.838 109.394 459.005C114.266 449.172 116.905 404.216 119.367 398.246C121.83 392.275 128.4 377.107 128.4 377.107L89.3859 372.255L89.3899 372.259Z" fill="#953441"/>
<path d="M127.39 333.825C127.39 333.825 143.471 352.179 161.266 359.083C164.05 360.161 166.44 362.274 166.44 362.274C166.44 364.148 162.69 361.919 162.69 361.919C162.69 361.919 164.219 364.611 163.635 366.836C163.052 369.061 159.17 367.58 157.057 367.58C156.092 367.58 151.127 362.028 144.428 358.765C136.498 354.903 127.144 351.121 125.998 349.982C123.885 347.874 126.762 333.153 127.39 333.825Z" fill="#FF8C98"/>
<path d="M94.6843 282.178C94.6843 282.178 110.87 280.541 119.311 285.924C127.756 291.311 133.151 310.506 133.151 318.701C133.151 326.897 127.064 369.978 129.405 378.169C129.405 378.169 102.662 376.999 93.5135 376.999C84.3646 376.999 82.4897 373.486 82.4897 373.486C82.4897 373.486 101.488 354.754 101.488 346.563C101.488 338.371 94.6843 282.174 94.6843 282.174V282.178Z" fill="#8F9393"/>
<path d="M315.671 502.911V530.978H312.633V505.458H292.513V514.217C300.29 515.054 306.369 522.235 306.369 530.974C306.369 540.276 299.485 547.815 290.996 547.815C282.507 547.815 275.623 540.276 275.623 530.974C275.623 522.235 281.702 515.05 289.479 514.217V505.458H285.303V502.131H289.479V492.024H285.303V488.697H289.479V477.456H234.433V472.467H264.845V443.886C264.845 436.254 257.828 427.712 248.438 427.712H222.287V422.723H248.438C259.607 422.723 269.403 432.613 269.403 443.886V472.467H289.479V456.434H292.517V488.697H302.704C309.857 488.697 315.675 495.07 315.675 502.907L315.671 502.911ZM292.513 502.135H312.605C312.239 496.494 307.938 492.028 302.696 492.028H292.509V502.135H292.513Z" fill="#712B35"/>
<path d="M303.75 507.317C303.75 507.317 303.139 518.139 303.135 518.164C302.909 519.536 302.024 522.931 302.024 524.182C302.024 528.874 322.905 520.199 318.226 518.119C317.804 517.93 315.39 515.331 314.786 513.847C313.708 511.203 313.237 506.021 313.237 506.021L303.754 507.317H303.75Z" fill="#BD3543"/>
<path d="M318.174 518.075C318.174 518.075 313.273 519.511 310.759 519.869C308.248 520.228 304.937 517.206 303.163 518.023C301.207 518.92 301.095 527.176 301.095 527.176C301.095 527.176 327.339 528.049 334.967 526.93C338.012 526.484 328.196 521.418 318.174 518.075Z" fill="#466EB6"/>
<path d="M199.221 484.199H193.452V374.307C193.452 370.602 189.823 367.584 185.361 367.584H133.473C132.089 367.584 130.966 366.51 130.966 365.186C130.966 363.863 132.089 362.789 133.473 362.789H185.361C193.001 362.789 199.221 367.954 199.221 374.303V484.195V484.199Z" fill="#712B35"/>
<path d="M226.262 531.384C207.037 531.384 191.452 515.661 191.452 496.265C191.452 476.869 207.037 461.146 226.262 461.146C245.487 461.146 261.071 476.869 261.071 496.265C261.071 515.661 245.487 531.384 226.262 531.384Z" fill="#712B35"/>
<path d="M268.647 496.265C268.647 519.882 249.669 539.028 226.262 539.028C202.855 539.028 183.877 519.882 183.877 496.265C183.877 472.648 202.855 453.501 226.262 453.501C249.669 453.501 268.647 472.648 268.647 496.265ZM264.632 496.265C264.632 474.885 247.453 457.553 226.262 457.553C205.071 457.553 187.892 474.885 187.892 496.265C187.892 517.645 205.071 534.977 226.262 534.977C247.453 534.977 264.632 517.645 264.632 496.265Z" fill="#712B35"/>
<path d="M198.437 447.539H181.406V381.561H198.437V447.539Z" fill="#712B35"/>
<path d="M282.789 530.978H279.494V502.911C279.494 496.913 274.658 492.028 268.711 492.028H249.822V488.701H268.711C276.476 488.701 282.793 495.074 282.793 502.911V530.978H282.789Z" fill="#953441"/>
<path d="M305.042 459.468H260.259V451.784H305.042V459.468Z" fill="#712B35"/>
<path d="M249.818 502.135H281.139V505.462H249.818V502.135Z" fill="#953441"/>
<path d="M194.595 472.471H256.002V477.46H194.595V472.471Z" fill="#953441"/>
<path d="M261.357 459.468H181.406V451.671H261.357V459.468Z" fill="#712B35"/>
<path d="M183.881 490.077H178.936V380.185C178.936 376.48 175.826 373.462 172 373.462H125.362V368.671H172C178.554 368.671 183.885 373.837 183.885 380.185V490.077H183.881Z" fill="#953441"/>
<path d="M274.557 530.978C274.557 540.28 266.249 547.819 255.998 547.819C245.747 547.819 237.439 540.28 237.439 530.978C237.439 521.676 245.747 514.136 255.998 514.136C266.249 514.136 274.557 521.676 274.557 530.978Z" fill="#FF8C98"/>
<path d="M267.299 530.978C267.299 536.643 262.242 541.233 255.998 541.233C249.754 541.233 244.697 536.643 244.697 530.978C244.697 525.313 249.754 520.722 255.998 520.722C262.242 520.722 267.299 525.313 267.299 530.978Z" fill="#AA4C59"/>
<path d="M255.897 539.777C258.287 539.777 260.226 537.837 260.226 535.448V523.764H251.572V535.448C251.572 537.837 253.511 539.777 255.901 539.777H255.897Z" fill="#953441"/>
<path d="M301.26 422.727C295.893 417.36 221.1 419.947 221.1 419.947C221.1 419.947 284.462 435.409 288.164 437.428C291.865 439.444 305.633 507.494 305.649 508.383C309.471 507.474 311.785 508.162 315.675 507.365C315.051 495.541 309.91 431.373 301.26 422.727Z" fill="#B6B6B6"/>
<path d="M293.97 507.647C293.97 507.647 293.358 518.469 293.354 518.494C293.129 519.869 292.244 523.265 292.244 524.512C292.244 529.203 313.125 520.529 308.446 518.449C308.023 518.26 305.146 515.774 305.006 514.177C304.792 511.714 304.905 507.8 304.905 507.8L293.974 507.647H293.97Z" fill="#FF475A"/>
<path d="M308.389 518.405C308.389 518.405 303.489 519.841 300.978 520.199C298.468 520.558 295.157 517.536 293.382 518.353C291.427 519.25 291.314 527.502 291.314 527.502C291.314 527.502 317.558 528.375 325.186 527.256C328.232 526.81 318.415 521.744 308.393 518.401L308.389 518.405Z" fill="#466EB6"/>
<path d="M209.437 435.308C209.437 435.308 210.084 452.286 215.733 452.488C221.386 452.689 257.648 453.501 278.074 451.667L291.817 512.406L307.955 510.853C307.955 510.853 303.094 470.287 301.364 454.857C299.663 439.678 294.762 426.944 286.181 426.634C277.599 426.324 221.18 417.598 221.18 417.598L209.433 435.308H209.437Z" fill="#CDCDCD"/>
<path d="M194.228 356.046C194.228 356.046 185.071 358.367 186.315 376.251C187.558 394.134 197.447 448.239 215.737 452.488C234.027 456.736 245.94 418.221 245.94 418.221C245.94 418.221 234.401 414.427 229.593 396.528C226.266 384.124 217.342 356.138 215.105 354.79C209.557 351.447 194.228 356.046 194.228 356.046Z" fill="#50BFA5"/>
<path d="M232.558 476.309H227.614V443.886C227.614 436.254 219.994 427.712 209.799 427.712H181.406V422.723H209.799C221.921 422.723 232.558 432.613 232.558 443.886V476.309Z" fill="#953441"/>
<path d="M181.406 541.233C159.329 541.233 141.431 523.175 141.431 500.9C141.431 478.624 159.329 460.566 181.406 460.566C203.484 460.566 221.382 478.624 221.382 500.9C221.382 523.175 203.484 541.233 181.406 541.233Z" fill="#AA4C59"/>
<path d="M230.084 500.9C230.084 528.025 208.29 550.016 181.406 550.016C154.523 550.016 132.729 528.025 132.729 500.9C132.729 473.775 154.523 451.784 181.406 451.784C208.29 451.784 230.084 473.771 230.084 500.9ZM225.469 500.9C225.469 476.346 205.739 456.438 181.402 456.438C157.065 456.438 137.335 476.346 137.335 500.9C137.335 525.454 157.065 545.361 181.402 545.361C205.739 545.361 225.469 525.454 225.469 500.9Z" fill="#AA4C59"/>
<path d="M181.406 534.164C163.197 534.164 148.435 519.271 148.435 500.9C148.435 482.528 163.197 467.635 181.406 467.635C199.615 467.635 214.377 482.528 214.377 500.9C214.377 519.271 199.615 534.164 181.406 534.164Z" fill="#FF8C98"/>
<path d="M188.825 500.9C188.825 505.032 185.502 508.383 181.406 508.383C177.31 508.383 173.987 505.032 173.987 500.9C173.987 496.768 177.31 493.416 181.406 493.416C185.502 493.416 188.825 496.768 188.825 500.9Z" fill="#712B35"/>
<path d="M328.453 536.095H278.118V527.377H328.453V536.095Z" fill="#712B35"/>
<path d="M306.691 536.095H278.118V527.377H306.691V536.095Z" fill="#953441"/>
<path d="M254.352 459.375H257.647V536.095H254.352V459.375Z" fill="#953441"/>
<path d="M257.957 531.955C257.957 533.09 257.048 534.007 255.921 534.007C254.795 534.007 253.886 533.086 253.886 531.955C253.886 530.825 254.795 529.904 255.921 529.904C257.048 529.904 257.957 530.821 257.957 531.955Z" fill="#712B35"/>
<path d="M199.752 308.169C199.752 308.169 193.339 303.831 190.628 311.427C190.648 311.367 188.362 311.391 188.053 311.496C186.733 311.942 185.458 313.314 184.283 314.071C180.095 316.75 178.163 321.96 177.934 326.744C177.656 332.55 180.058 336.798 183.876 340.99C185.003 342.226 186.202 343.433 187.678 344.221C189.457 345.175 190.861 344.418 192.531 344.821C193.939 345.163 194.43 346.647 196.091 346.112C198.417 345.36 200.859 342.451 203.739 342.881C206.62 343.312 213.267 340.721 213.287 340.713C221.828 337.382 216.063 320.85 214.425 314.98C212.884 309.464 205.039 306.173 199.756 308.169H199.752Z" fill="#342527"/>
<path d="M207.473 345.734L209.694 351.789L210.889 355.172C210.889 355.172 210.973 361.227 209.561 362.797C207.131 365.496 197.133 355.49 197.133 355.49L193.967 336.448L207.473 345.738V345.734Z" fill="#FF475A"/>
<path d="M194.993 342.62C198.795 348.514 205.345 351.206 209.714 351.849L207.473 345.738L193.967 336.448L194.993 342.62Z" fill="#953441"/>
<path d="M196.562 316.883C201.651 313.769 208.33 316.135 210.426 321.626C211.335 324.012 212.353 327.046 213.162 330.425C215.113 338.552 212.643 347.432 208.938 348.248C205.232 349.065 193.822 346.044 190.893 334.541C189.083 327.44 191.219 320.15 196.562 316.883Z" fill="#FF475A"/>
<path d="M193.826 334.855C194.224 336.653 193.351 338.379 191.879 338.705C190.406 339.031 188.889 337.836 188.495 336.034C188.097 334.235 188.97 332.509 190.442 332.184C191.915 331.858 193.432 333.053 193.83 334.855H193.826Z" fill="#FF475A"/>
<path d="M203.675 341.98C203.675 341.98 203.703 343.98 204.371 344.338C205.019 344.688 205.84 344.982 206.596 345.054C207.827 345.171 208.934 344.648 209.581 343.698C209.646 343.606 209.702 343.509 209.754 343.408C210.253 342.411 210.354 340.653 210.354 340.653C210.354 340.653 208.294 340.154 207.099 340.355C205.904 340.556 203.675 341.984 203.675 341.984V341.98Z" fill="#FF475A"/>
<path d="M150.857 365.295C148.922 363.364 139.95 360.379 133.147 355.462C130.138 353.285 124.356 350.425 118.728 347.315C114.616 349.592 110.898 352.453 108.122 355.872C118.305 360.552 129.357 365.259 131.035 366.936C134.201 370.099 139.713 377.24 141.004 377.24C142.296 377.24 152.089 374.371 153.553 372.907C155.018 371.443 152.793 367.23 150.857 365.299V365.295Z" fill="#FF8C98"/>
<path d="M118.732 347.311C111.635 343.384 104.787 339.059 104.067 335.209C102.775 328.301 108.641 298.448 105.358 292.715C102.075 286.978 94.6845 282.178 94.6845 282.178C93.5138 282.178 89.2893 284.753 88.1185 289.903C86.9437 295.053 89.0559 341.413 90.2307 345.625C90.7819 347.605 98.8084 355.482 107.821 359.626C110.597 356.206 114.624 349.588 118.732 347.311Z" fill="#CDCDCD"/>
<path d="M191.847 409.833L220.146 417.248C220.146 417.248 228.467 423.246 232.208 424.437C235.95 425.628 240.524 429.748 239.627 431.015C238.73 432.279 234.031 427.982 233.266 428.115C232.502 428.247 236.03 433.333 236.602 436.664C237.173 439.999 238.32 443.234 236.409 442.976C234.497 442.715 233.109 435.204 233.109 435.204C233.109 435.204 230.168 429.527 229.694 430.199C229.219 430.866 231.657 434.765 231.657 434.765C231.657 434.765 232.236 438.977 232.49 440.462C232.679 441.568 231.661 444.888 230.792 443.668C230.281 442.952 230.522 440.212 229.931 438.647C228.716 435.441 226.732 432.898 226.732 432.898C226.732 432.898 228.857 442.506 227.521 442.735C226.185 442.964 224.801 435.006 224.801 435.006C224.801 435.006 221.534 428.38 220.11 427.789C218.686 427.197 214.767 424.675 211.738 423.621C208.708 422.57 196.184 426.034 190.595 426.107C185.007 426.179 175.939 422.719 175.186 418.338C174.957 416.998 175.794 415.518 177.065 414.109C180.763 410.014 186.508 408.437 191.851 409.837L191.847 409.833Z" fill="#FF475A"/>
<path d="M194.228 356.045C194.228 356.045 185.667 354.521 177.918 368.461C170.169 382.402 175.186 418.334 175.186 418.334L191.851 409.833L194.232 356.045H194.228Z" fill="#96D9C9"/>
<path d="M151.722 363.279C151.722 363.279 155.094 368.079 156.1 368.079C157.105 368.079 162.376 368.409 163.205 367.584C164.034 366.759 160.227 360.523 158.864 360.523C157.5 360.523 160.477 364.643 160.119 365.001C159.761 365.359 156.82 358.484 155.311 359.127C153.802 359.771 158.252 364.571 157.749 365.074C157.246 365.577 154.088 359.63 152.869 359.63C151.65 359.63 155.738 365.005 155.311 365.432C154.881 365.862 152.298 362.708 151.722 363.283V363.279Z" fill="#FF8C98"/>
<path d="M103.089 267.731C103.089 267.731 104.892 277.64 104.53 281.547C104.167 285.453 105.906 298.05 113.687 298.09C121.472 298.13 116.181 285.015 115.449 281.184C114.717 277.354 113.526 262.565 113.526 262.565L103.089 267.731Z" fill="#FF8C98"/>
<path d="M114.004 268.173C113.884 264.93 113.296 262.351 113.296 262.351L103.085 267.73C103.085 267.73 103.455 269.758 103.825 272.337C108.396 273.315 112.025 271.178 114.004 268.173Z" fill="#FF475A"/>
<path d="M102.868 238.948C102.868 238.948 98.4824 240.509 96.0966 245.277C93.7108 250.044 92.9223 263.393 102.542 268.519C112.162 273.645 118.506 264.19 117.911 255.717C117.315 247.244 114.648 236.14 102.868 238.948Z" fill="#FF8C98"/>
<path d="M120.767 253.359C121.021 255.556 120.244 257.431 119.033 257.543C117.822 257.66 116.636 255.97 116.382 253.774C116.129 251.577 116.905 249.702 118.116 249.589C119.327 249.473 120.514 251.163 120.767 253.359Z" fill="#FF8C98"/>
<path d="M96.9416 257.057C97.7865 259.185 97.364 261.414 96.0002 262.042C94.6363 262.669 92.8418 261.454 91.997 259.326C91.1521 257.198 91.5705 254.969 92.9384 254.341C94.3023 253.713 96.0967 254.928 96.9416 257.057Z" fill="#FF8C98"/>
<defs>
<clipPath id="clip0_305_987">
<rect width="62" height="62" fill="white" transform="translate(285 154)"/>
</clipPath>
</defs>
</svg>
