<!-- <svg width="255" height="331" viewBox="0 0 255 331" fill="none" xmlns="http://www.w3.org/2000/svg">
<g clip-path="url(#clip0_309_1642)">
<path d="M239.18 20.79H15.26C6.83214 20.79 0 27.6221 0 36.05V315.29C0 323.718 6.83214 330.55 15.26 330.55H239.18C247.608 330.55 254.44 323.718 254.44 315.29V36.05C254.44 27.6221 247.608 20.79 239.18 20.79Z" fill="#FF475A"/>
<path d="M235.98 50.71H18.47V308.15H235.98V50.71Z" fill="#F2F2F2"/>
<path d="M154.51 206.24H140.3V192.06H114.14V206.24H99.9299V232.4H114.14V246.65H140.3V232.4H154.51V206.24Z" fill="#069CD0"/>
<path d="M184.88 29.9H69.5601C66.274 29.9 63.6101 32.5639 63.6101 35.85V57.35C63.6101 60.6361 66.274 63.3 69.5601 63.3H184.88C188.166 63.3 190.83 60.6361 190.83 57.35V35.85C190.83 32.5639 188.166 29.9 184.88 29.9Z" stroke="#454545" stroke-width="3.96" stroke-miterlimit="10"/>
<path d="M170.79 16.17H137.39V5.95C137.39 2.67 134.73 0 131.44 0H117.43C114.15 0 111.48 2.66 111.48 5.95V16.17H83.6399C80.3599 16.17 77.6899 18.83 77.6899 22.12V34.27C77.6899 37.55 80.3499 40.22 83.6399 40.22H170.79C174.07 40.22 176.74 37.56 176.74 34.27V22.12C176.74 18.84 174.08 16.17 170.79 16.17ZM124.44 3.15C127.19 3.15 129.41 5.38 129.41 8.12C129.41 10.86 127.18 13.09 124.44 13.09C121.7 13.09 119.47 10.86 119.47 8.12C119.47 5.38 121.7 3.15 124.44 3.15Z" fill="#454545"/>
<path d="M57.5455 152H54.7273C54.5606 151.189 54.2689 150.477 53.8523 149.864C53.4432 149.25 52.9432 148.735 52.3523 148.318C51.7689 147.894 51.1212 147.576 50.4091 147.364C49.697 147.152 48.9545 147.045 48.1818 147.045C46.7727 147.045 45.4962 147.402 44.3523 148.114C43.2159 148.826 42.3106 149.875 41.6364 151.261C40.9697 152.648 40.6364 154.348 40.6364 156.364C40.6364 158.379 40.9697 160.08 41.6364 161.466C42.3106 162.852 43.2159 163.902 44.3523 164.614C45.4962 165.326 46.7727 165.682 48.1818 165.682C48.9545 165.682 49.697 165.576 50.4091 165.364C51.1212 165.152 51.7689 164.837 52.3523 164.42C52.9432 163.996 53.4432 163.477 53.8523 162.864C54.2689 162.242 54.5606 161.53 54.7273 160.727H57.5455C57.3333 161.917 56.947 162.981 56.3864 163.92C55.8258 164.86 55.1288 165.659 54.2955 166.318C53.4621 166.97 52.5265 167.466 51.4886 167.807C50.4583 168.148 49.3561 168.318 48.1818 168.318C46.197 168.318 44.4318 167.833 42.8864 166.864C41.3409 165.894 40.125 164.515 39.2386 162.727C38.3523 160.939 37.9091 158.818 37.9091 156.364C37.9091 153.909 38.3523 151.788 39.2386 150C40.125 148.212 41.3409 146.833 42.8864 145.864C44.4318 144.894 46.197 144.409 48.1818 144.409C49.3561 144.409 50.4583 144.58 51.4886 144.92C52.5265 145.261 53.4621 145.761 54.2955 146.42C55.1288 147.072 55.8258 147.867 56.3864 148.807C56.947 149.739 57.3333 150.803 57.5455 152ZM81.7358 156.364C81.7358 158.818 81.2926 160.939 80.4062 162.727C79.5199 164.515 78.304 165.894 76.7585 166.864C75.2131 167.833 73.4479 168.318 71.4631 168.318C69.4782 168.318 67.7131 167.833 66.1676 166.864C64.6222 165.894 63.4063 164.515 62.5199 162.727C61.6335 160.939 61.1903 158.818 61.1903 156.364C61.1903 153.909 61.6335 151.788 62.5199 150C63.4063 148.212 64.6222 146.833 66.1676 145.864C67.7131 144.894 69.4782 144.409 71.4631 144.409C73.4479 144.409 75.2131 144.894 76.7585 145.864C78.304 146.833 79.5199 148.212 80.4062 150C81.2926 151.788 81.7358 153.909 81.7358 156.364ZM79.0085 156.364C79.0085 154.348 78.6714 152.648 77.9972 151.261C77.3305 149.875 76.4252 148.826 75.2812 148.114C74.1449 147.402 72.8722 147.045 71.4631 147.045C70.054 147.045 68.7775 147.402 67.6335 148.114C66.4972 148.826 65.5919 149.875 64.9176 151.261C64.2509 152.648 63.9176 154.348 63.9176 156.364C63.9176 158.379 64.2509 160.08 64.9176 161.466C65.5919 162.852 66.4972 163.902 67.6335 164.614C68.7775 165.326 70.054 165.682 71.4631 165.682C72.8722 165.682 74.1449 165.326 75.2812 164.614C76.4252 163.902 77.3305 162.852 77.9972 161.466C78.6714 160.08 79.0085 158.379 79.0085 156.364ZM86.4744 144.727H89.8381L97.7472 164.045H98.0199L105.929 144.727H109.293V168H106.656V150.318H106.429L99.1562 168H96.6108L89.3381 150.318H89.1108V168H86.4744V144.727ZM114.943 168V144.727H122.807C124.633 144.727 126.125 145.057 127.284 145.716C128.451 146.367 129.314 147.25 129.875 148.364C130.436 149.477 130.716 150.72 130.716 152.091C130.716 153.462 130.436 154.708 129.875 155.83C129.322 156.951 128.466 157.845 127.307 158.511C126.148 159.17 124.663 159.5 122.852 159.5H117.216V157H122.761C124.011 157 125.015 156.784 125.773 156.352C126.53 155.92 127.08 155.337 127.42 154.602C127.769 153.86 127.943 153.023 127.943 152.091C127.943 151.159 127.769 150.326 127.42 149.591C127.08 148.856 126.527 148.28 125.761 147.864C124.996 147.439 123.981 147.227 122.716 147.227H117.761V168H114.943ZM135.256 168V144.727H138.074V165.5H148.892V168H135.256ZM156.074 144.727V168H153.256V144.727H156.074ZM162.679 168H159.724L168.27 144.727H171.179L179.724 168H176.77L169.815 148.409H169.634L162.679 168ZM163.77 158.909H175.679V161.409H163.77V158.909ZM201.804 144.727V168H199.077L186.395 149.727H186.168V168H183.349V144.727H186.077L198.804 163.045H199.031V144.727H201.804ZM206.17 147.227V144.727H223.625V147.227H216.307V168H213.489V147.227H206.17Z" fill="#454545"/>
<path d="M69.2812 104.812V112.688H45.7188V104.812H69.2812ZM48.9375 86.5V132H38.75V86.5H48.9375ZM76.3125 86.5V132H66.1562V86.5H76.3125ZM94.7188 86.5V132H84.5625V86.5H94.7188ZM120.875 116.188H109.438V108.281H120.875C122.562 108.281 123.917 108 124.938 107.438C125.979 106.875 126.74 106.104 127.219 105.125C127.719 104.125 127.969 103 127.969 101.75C127.969 100.458 127.719 99.2604 127.219 98.1562C126.74 97.0312 125.979 96.125 124.938 95.4375C123.917 94.75 122.562 94.4062 120.875 94.4062H113.125V132H102.938V86.5H120.875C124.5 86.5 127.604 87.1562 130.188 88.4688C132.792 89.7812 134.781 91.5833 136.156 93.875C137.552 96.1458 138.25 98.75 138.25 101.688C138.25 104.625 137.552 107.177 136.156 109.344C134.781 111.51 132.792 113.198 130.188 114.406C127.604 115.594 124.5 116.188 120.875 116.188ZM157.969 95.1562L146.219 132H135.344L152.188 86.5H159.062L157.969 95.1562ZM167.719 132L155.938 95.1562L154.719 86.5H161.688L178.594 132H167.719ZM167.219 115.062V122.938H143.5V115.062H167.219ZM201.281 95.1562L189.531 132H178.656L195.5 86.5H202.375L201.281 95.1562ZM211.031 132L199.25 95.1562L198.031 86.5H205L221.906 132H211.031ZM210.531 115.062V122.938H186.812V115.062H210.531Z" fill="#2B1B1D"/>
<path d="M46.94 264.44C45.17 271.99 45.18 281.36 50.97 287.2C57.89 293.18 66.27 284.44 70.42 278.99C76.31 270.9 78.28 260.19 76.83 250.38C76.45 248.57 75.52 243.25 72.9 245.41C70.6 247.18 69.08 249.87 67.75 252.44C62.43 263 61.41 276.28 66.89 286.92C68.74 290.5 71.95 292.33 75.67 290.13C79.83 287.74 84.96 281.12 81.07 276.6C80.89 276.39 80.69 276.2 80.49 276.07C80.73 276.19 81.23 276.05 81.42 275.77C81.52 275.62 81.53 275.55 81.53 275.56C81.55 275.52 81.55 275.43 81.55 275.49C81.64 276.71 82.08 277.92 82.47 279.12C83.45 281.87 84.61 284.67 86.26 287.06C86.58 287.53 87.32 288.4 87.68 288.47C87.67 288.47 87.54 288.49 87.54 288.53C87.78 288.14 87.92 287.57 88.05 286.99C89 280.65 93.32 277.53 99.39 276.67C106.7 275.71 114.15 276.67 121.1 279.04C121.72 279.33 122.35 279.51 122.81 280.22C122.88 280.29 123.06 280.73 123.02 281.11C123.01 281.5 122.69 281.97 122.58 282.04C122.02 282.55 121.53 282.55 120.97 282.65C106.36 283.01 91.86 281.13 77.34 279.9C63.16 278.39 48.98 276.86 34.93 274.35C32.32 273.75 29.51 273.55 27.05 272.19C27 272.15 26.94 272.11 26.86 272.04C26.78 271.95 26.75 271.94 26.63 271.79C26.53 271.63 26.47 271.57 26.39 271.29C26.23 270.89 26.44 270.26 26.68 270C26.9 269.76 27.11 269.6 27.32 269.5C28.7 268.91 30.12 268.85 31.48 268.67C37.6 268.07 43.71 267.92 49.84 267.78C66.11 267.47 82.37 267.52 98.64 267.8V268.1C84.27 268.63 64.07 269.15 49.92 269.85C42.94 270.32 35.8 270.32 28.94 271.59C28.75 271.64 28.53 271.72 28.48 271.75C28.48 271.75 28.46 271.76 28.54 271.71C28.78 271.52 28.98 271 28.86 270.64C28.78 270.42 28.77 270.41 28.7 270.3C28.62 270.2 28.64 270.22 28.6 270.19C28.56 270.16 28.56 270.16 28.56 270.16C32.56 271.56 37.14 271.95 41.39 272.65C61.49 275.33 81.7 277.39 101.9 279.08C108.08 279.51 115.14 280.25 120.91 279.94C120.9 279.95 120.82 279.99 120.67 280.12C120.62 280.15 120.31 280.56 120.32 280.89C120.27 281.21 120.45 281.58 120.47 281.6C120.55 281.73 120.61 281.79 120.61 281.79C120.72 281.89 120.64 281.81 120.6 281.79C115.94 279.82 110.65 279.11 105.61 278.82C100.38 278.73 93.18 279.05 91.06 284.73C90.3 286.46 90.45 288.62 89.09 290.18C88.03 291.21 86.4 290.64 85.53 289.68C82.99 286.87 81.7 283.28 80.43 279.8C80 278.23 79.21 276.57 79.53 274.86C79.67 274.24 80.52 273.81 81.12 274.05C81.76 274.26 82.22 274.74 82.63 275.2C88.91 281.89 77.75 295.61 69.89 292.49C65.69 290.46 64.23 285.95 63 281.92C60.06 271.88 61.71 260.97 66.39 251.75C67.87 248.99 69.5 246.18 72.09 244.26C77.98 240.43 78.51 252.94 78.46 256.34C78.38 260.46 77.78 264.56 76.59 268.51C75.41 272.45 73.6 276.23 71.1 279.51C66.67 285.27 57.76 294 50.53 287.63C44.65 281.59 44.72 272.05 46.61 264.35L46.9 264.42L46.94 264.44Z" fill="#454545"/>
<path d="M199.25 255H184.375C180.854 255 178 257.854 178 261.375V282.625C178 286.146 180.854 289 184.375 289H205.625C209.146 289 212 286.146 212 282.625V270.937" stroke="#2B1B1D" stroke-width="5" stroke-linecap="round" stroke-linejoin="round"/>
<path d="M209.875 260.312L195 275.187L190.75 270.937" stroke="#FF475A" stroke-width="5" stroke-linecap="round" stroke-linejoin="round"/>
</g>
<defs>
<clipPath id="clip0_309_1642">
<rect width="254.44" height="330.54" fill="white"/>
</clipPath>
</defs>
</svg> -->
<svg width="255" height="331" viewBox="0 0 255 331" fill="none" xmlns="http://www.w3.org/2000/svg">
<g clip-path="url(#clip0_309_1642)">
<path d="M239.18 20.79H15.26C6.83214 20.79 0 27.6221 0 36.05V315.29C0 323.718 6.83214 330.55 15.26 330.55H239.18C247.608 330.55 254.44 323.718 254.44 315.29V36.05C254.44 27.6221 247.608 20.79 239.18 20.79Z" fill="#156d10"/>
<path d="M235.98 50.71H18.47V308.15H235.98V50.71Z" fill="#F2F2F2"/>
<path d="M154.51 206.24H140.3V192.06H114.14V206.24H99.9299V232.4H114.14V246.65H140.3V232.4H154.51V206.24Z" fill="#069CD0"/>
<path d="M184.88 29.9H69.5601C66.274 29.9 63.6101 32.5639 63.6101 35.85V57.35C63.6101 60.6361 66.274 63.3 69.5601 63.3H184.88C188.166 63.3 190.83 60.6361 190.83 57.35V35.85C190.83 32.5639 188.166 29.9 184.88 29.9Z" stroke="#454545" stroke-width="3.96" stroke-miterlimit="10"/>
<path d="M170.79 16.17H137.39V5.95C137.39 2.67 134.73 0 131.44 0H117.43C114.15 0 111.48 2.66 111.48 5.95V16.17H83.6399C80.3599 16.17 77.6899 18.83 77.6899 22.12V34.27C77.6899 37.55 80.3499 40.22 83.6399 40.22H170.79C174.07 40.22 176.74 37.56 176.74 34.27V22.12C176.74 18.84 174.08 16.17 170.79 16.17ZM124.44 3.15C127.19 3.15 129.41 5.38 129.41 8.12C129.41 10.86 127.18 13.09 124.44 13.09C121.7 13.09 119.47 10.86 119.47 8.12C119.47 5.38 121.7 3.15 124.44 3.15Z" fill="#454545"/>
<path d="M57.5455 152H54.7273C54.5606 151.189 54.2689 150.477 53.8523 149.864C53.4432 149.25 52.9432 148.735 52.3523 148.318C51.7689 147.894 51.1212 147.576 50.4091 147.364C49.697 147.152 48.9545 147.045 48.1818 147.045C46.7727 147.045 45.4962 147.402 44.3523 148.114C43.2159 148.826 42.3106 149.875 41.6364 151.261C40.9697 152.648 40.6364 154.348 40.6364 156.364C40.6364 158.379 40.9697 160.08 41.6364 161.466C42.3106 162.852 43.2159 163.902 44.3523 164.614C45.4962 165.326 46.7727 165.682 48.1818 165.682C48.9545 165.682 49.697 165.576 50.4091 165.364C51.1212 165.152 51.7689 164.837 52.3523 164.42C52.9432 163.996 53.4432 163.477 53.8523 162.864C54.2689 162.242 54.5606 161.53 54.7273 160.727H57.5455C57.3333 161.917 56.947 162.981 56.3864 163.92C55.8258 164.86 55.1288 165.659 54.2955 166.318C53.4621 166.97 52.5265 167.466 51.4886 167.807C50.4583 168.148 49.3561 168.318 48.1818 168.318C46.197 168.318 44.4318 167.833 42.8864 166.864C41.3409 165.894 40.125 164.515 39.2386 162.727C38.3523 160.939 37.9091 158.818 37.9091 156.364C37.9091 153.909 38.3523 151.788 39.2386 150C40.125 148.212 41.3409 146.833 42.8864 145.864C44.4318 144.894 46.197 144.409 48.1818 144.409C49.3561 144.409 50.4583 144.58 51.4886 144.92C52.5265 145.261 53.4621 145.761 54.2955 146.42C55.1288 147.072 55.8258 147.867 56.3864 148.807C56.947 149.739 57.3333 150.803 57.5455 152ZM81.7358 156.364C81.7358 158.818 81.2926 160.939 80.4062 162.727C79.5199 164.515 78.304 165.894 76.7585 166.864C75.2131 167.833 73.4479 168.318 71.4631 168.318C69.4782 168.318 67.7131 167.833 66.1676 166.864C64.6222 165.894 63.4063 164.515 62.5199 162.727C61.6335 160.939 61.1903 158.818 61.1903 156.364C61.1903 153.909 61.6335 151.788 62.5199 150C63.4063 148.212 64.6222 146.833 66.1676 145.864C67.7131 144.894 69.4782 144.409 71.4631 144.409C73.4479 144.409 75.2131 144.894 76.7585 145.864C78.304 146.833 79.5199 148.212 80.4062 150C81.2926 151.788 81.7358 153.909 81.7358 156.364ZM79.0085 156.364C79.0085 154.348 78.6714 152.648 77.9972 151.261C77.3305 149.875 76.4252 148.826 75.2812 148.114C74.1449 147.402 72.8722 147.045 71.4631 147.045C70.054 147.045 68.7775 147.402 67.6335 148.114C66.4972 148.826 65.5919 149.875 64.9176 151.261C64.2509 152.648 63.9176 154.348 63.9176 156.364C63.9176 158.379 64.2509 160.08 64.9176 161.466C65.5919 162.852 66.4972 163.902 67.6335 164.614C68.7775 165.326 70.054 165.682 71.4631 165.682C72.8722 165.682 74.1449 165.326 75.2812 164.614C76.4252 163.902 77.3305 162.852 77.9972 161.466C78.6714 160.08 79.0085 158.379 79.0085 156.364ZM86.4744 144.727H89.8381L97.7472 164.045H98.0199L105.929 144.727H109.293V168H106.656V150.318H106.429L99.1562 168H96.6108L89.3381 150.318H89.1108V168H86.4744V144.727ZM114.943 168V144.727H122.807C124.633 144.727 126.125 145.057 127.284 145.716C128.451 146.367 129.314 147.25 129.875 148.364C130.436 149.477 130.716 150.72 130.716 152.091C130.716 153.462 130.436 154.708 129.875 155.83C129.322 156.951 128.466 157.845 127.307 158.511C126.148 159.17 124.663 159.5 122.852 159.5H117.216V157H122.761C124.011 157 125.015 156.784 125.773 156.352C126.53 155.92 127.08 155.337 127.42 154.602C127.769 153.86 127.943 153.023 127.943 152.091C127.943 151.159 127.769 150.326 127.42 149.591C127.08 148.856 126.527 148.28 125.761 147.864C124.996 147.439 123.981 147.227 122.716 147.227H117.761V168H114.943ZM135.256 168V144.727H138.074V165.5H148.892V168H135.256ZM156.074 144.727V168H153.256V144.727H156.074ZM162.679 168H159.724L168.27 144.727H171.179L179.724 168H176.77L169.815 148.409H169.634L162.679 168ZM163.77 158.909H175.679V161.409H163.77V158.909ZM201.804 144.727V168H199.077L186.395 149.727H186.168V168H183.349V144.727H186.077L198.804 163.045H199.031V144.727H201.804ZM206.17 147.227V144.727H223.625V147.227H216.307V168H213.489V147.227H206.17Z" fill="#454545"/>
<path d="M69.2812 104.812V112.688H45.7188V104.812H69.2812ZM48.9375 86.5V132H38.75V86.5H48.9375ZM76.3125 86.5V132H66.1562V86.5H76.3125ZM94.7188 86.5V132H84.5625V86.5H94.7188ZM120.875 116.188H109.438V108.281H120.875C122.562 108.281 123.917 108 124.938 107.438C125.979 106.875 126.74 106.104 127.219 105.125C127.719 104.125 127.969 103 127.969 101.75C127.969 100.458 127.719 99.2604 127.219 98.1562C126.74 97.0312 125.979 96.125 124.938 95.4375C123.917 94.75 122.562 94.4062 120.875 94.4062H113.125V132H102.938V86.5H120.875C124.5 86.5 127.604 87.1562 130.188 88.4688C132.792 89.7812 134.781 91.5833 136.156 93.875C137.552 96.1458 138.25 98.75 138.25 101.688C138.25 104.625 137.552 107.177 136.156 109.344C134.781 111.51 132.792 113.198 130.188 114.406C127.604 115.594 124.5 116.188 120.875 116.188ZM157.969 95.1562L146.219 132H135.344L152.188 86.5H159.062L157.969 95.1562ZM167.719 132L155.938 95.1562L154.719 86.5H161.688L178.594 132H167.719ZM167.219 115.062V122.938H143.5V115.062H167.219ZM201.281 95.1562L189.531 132H178.656L195.5 86.5H202.375L201.281 95.1562ZM211.031 132L199.25 95.1562L198.031 86.5H205L221.906 132H211.031ZM210.531 115.062V122.938H186.812V115.062H210.531Z" fill="#2B1B1D"/>
<path d="M46.94 264.44C45.17 271.99 45.18 281.36 50.97 287.2C57.89 293.18 66.27 284.44 70.42 278.99C76.31 270.9 78.28 260.19 76.83 250.38C76.45 248.57 75.52 243.25 72.9 245.41C70.6 247.18 69.08 249.87 67.75 252.44C62.43 263 61.41 276.28 66.89 286.92C68.74 290.5 71.95 292.33 75.67 290.13C79.83 287.74 84.96 281.12 81.07 276.6C80.89 276.39 80.69 276.2 80.49 276.07C80.73 276.19 81.23 276.05 81.42 275.77C81.52 275.62 81.53 275.55 81.53 275.56C81.55 275.52 81.55 275.43 81.55 275.49C81.64 276.71 82.08 277.92 82.47 279.12C83.45 281.87 84.61 284.67 86.26 287.06C86.58 287.53 87.32 288.4 87.68 288.47C87.67 288.47 87.54 288.49 87.54 288.53C87.78 288.14 87.92 287.57 88.05 286.99C89 280.65 93.32 277.53 99.39 276.67C106.7 275.71 114.15 276.67 121.1 279.04C121.72 279.33 122.35 279.51 122.81 280.22C122.88 280.29 123.06 280.73 123.02 281.11C123.01 281.5 122.69 281.97 122.58 282.04C122.02 282.55 121.53 282.55 120.97 282.65C106.36 283.01 91.86 281.13 77.34 279.9C63.16 278.39 48.98 276.86 34.93 274.35C32.32 273.75 29.51 273.55 27.05 272.19C27 272.15 26.94 272.11 26.86 272.04C26.78 271.95 26.75 271.94 26.63 271.79C26.53 271.63 26.47 271.57 26.39 271.29C26.23 270.89 26.44 270.26 26.68 270C26.9 269.76 27.11 269.6 27.32 269.5C28.7 268.91 30.12 268.85 31.48 268.67C37.6 268.07 43.71 267.92 49.84 267.78C66.11 267.47 82.37 267.52 98.64 267.8V268.1C84.27 268.63 64.07 269.15 49.92 269.85C42.94 270.32 35.8 270.32 28.94 271.59C28.75 271.64 28.53 271.72 28.48 271.75C28.48 271.75 28.46 271.76 28.54 271.71C28.78 271.52 28.98 271 28.86 270.64C28.78 270.42 28.77 270.41 28.7 270.3C28.62 270.2 28.64 270.22 28.6 270.19C28.56 270.16 28.56 270.16 28.56 270.16C32.56 271.56 37.14 271.95 41.39 272.65C61.49 275.33 81.7 277.39 101.9 279.08C108.08 279.51 115.14 280.25 120.91 279.94C120.9 279.95 120.82 279.99 120.67 280.12C120.62 280.15 120.31 280.56 120.32 280.89C120.27 281.21 120.45 281.58 120.47 281.6C120.55 281.73 120.61 281.79 120.61 281.79C120.72 281.89 120.64 281.81 120.6 281.79C115.94 279.82 110.65 279.11 105.61 278.82C100.38 278.73 93.18 279.05 91.06 284.73C90.3 286.46 90.45 288.62 89.09 290.18C88.03 291.21 86.4 290.64 85.53 289.68C82.99 286.87 81.7 283.28 80.43 279.8C80 278.23 79.21 276.57 79.53 274.86C79.67 274.24 80.52 273.81 81.12 274.05C81.76 274.26 82.22 274.74 82.63 275.2C88.91 281.89 77.75 295.61 69.89 292.49C65.69 290.46 64.23 285.95 63 281.92C60.06 271.88 61.71 260.97 66.39 251.75C67.87 248.99 69.5 246.18 72.09 244.26C77.98 240.43 78.51 252.94 78.46 256.34C78.38 260.46 77.78 264.56 76.59 268.51C75.41 272.45 73.6 276.23 71.1 279.51C66.67 285.27 57.76 294 50.53 287.63C44.65 281.59 44.72 272.05 46.61 264.35L46.9 264.42L46.94 264.44Z" fill="#454545"/>
<path d="M199.25 255H184.375C180.854 255 178 257.854 178 261.375V282.625C178 286.146 180.854 289 184.375 289H205.625C209.146 289 212 286.146 212 282.625V270.937" stroke="#2B1B1D" stroke-width="5" stroke-linecap="round" stroke-linejoin="round"/>
<path d="M209.875 260.312L195 275.187L190.75 270.937" stroke="#156d10" stroke-width="5" stroke-linecap="round" stroke-linejoin="round"/>
</g>
<defs>
<clipPath id="clip0_309_1642">
<rect width="254.44" height="330.54" fill="white"/>
</clipPath>
</defs>
</svg>
