<svg width="1133" height="1158" viewBox="0 0 1133 1158" fill="none" xmlns="http://www.w3.org/2000/svg">
<path opacity="0.5" d="M300.066 273.65C180.128 374.172 280.525 388.921 199.296 529.15C173.824 573.123 84.3623 606.642 65.2993 660.773C-103 849.5 102 899.5 162.388 1023.63C205.577 1112.41 245.736 1113.59 300.066 1133.37C341.845 1148.59 583.523 1122.1 627.5 1122.5L1201.08 1157.55C1287.11 1158.42 1382.69 1155.27 1444.53 1088.86C1487.16 1043.13 1504.48 976.342 1519.17 912.594C1537.23 834.263 1553.59 749.196 1525.5 674.59C1493.41 589.232 1412.26 540.86 1361.85 467.205C1280.04 347.873 1281.92 167.382 1177.73 72.1165C1129.09 27.6542 1064.92 10.218 1002.38 1.49994C884.479 -14.9588 837.077 174.483 721.296 170.15C622.327 166.452 382.169 204.83 300.066 273.65Z" fill="#EDEDED"/>
</svg>
