<svg width="384" height="449" viewBox="0 0 384 449" fill="none" xmlns="http://www.w3.org/2000/svg">
<path d="M235.914 196.975L241.378 172.122C241.378 172.122 259.268 183.474 269.692 199.68C280.129 215.887 285.09 259.121 288.073 260.739C291.057 262.357 324.067 211.51 329.836 203.487C336.971 193.567 339.636 182.188 344.106 173.541C348.575 164.894 364.317 161.95 370.285 163.037C376.253 164.125 362.102 189.402 362.102 189.402C362.102 189.402 326.335 251.548 314.412 285.592C302.489 319.635 265.236 335.842 259.268 330.988C253.3 326.121 235.914 196.975 235.914 196.975Z" fill="#F48C7F"/>
<path d="M344.504 178.302C344.504 178.302 345.989 171.764 350.007 170.424C354.026 169.085 361.015 170.278 361.452 170.424C361.903 170.57 369.635 166.406 369.635 166.406L363.243 178.302C363.243 178.302 350.75 193.023 346.585 187.519C342.421 182.015 344.504 178.302 344.504 178.302Z" fill="#F7A491"/>
<path d="M371.863 166.95C371.863 166.95 376.372 189.906 375.231 194.707C374.091 199.534 371.213 196.948 370.669 195.901C368.455 191.591 366.903 176.87 366.903 176.87L371.863 166.95Z" fill="#F48C7F"/>
<path d="M362.156 186.034C362.156 186.034 364.304 200.264 366.518 201.948C367.951 203.036 369.794 202.399 370.391 199.521C370.988 196.643 367.513 179.098 367.513 179.098L362.156 186.034Z" fill="#F48C7F"/>
<path d="M350.611 226L342 221.87L378.614 148C383.378 150.283 385.347 155.929 383.027 160.615L350.627 226H350.611Z" fill="#184655"/>
<path d="M269.095 94.7512C273.578 74.3542 277.981 53.8245 266.151 31.4117C256.576 13.2693 240.025 2.84531 220.875 0.564238C166.593 -5.88111 178.198 44.7932 102.339 55.7609C78.7589 59.1692 56.8634 62.4449 37.1826 74.1685C1.64035 95.3347 -11.7677 129.299 11.7989 184.615C69.5019 320.073 211.154 205.078 228.66 178.408C241.67 158.568 266.218 107.881 269.109 94.7512H269.095Z" fill="#953441"/>
<path d="M183.675 159.138C183.675 159.138 156.276 162.255 139.871 180.079C123.479 197.917 166.368 341.252 169.352 363.944C172.336 386.635 144.923 439.577 144.923 439.577C144.923 439.577 247.333 458.502 275.156 440.134C275.156 440.134 278.14 276.945 275.156 260.725C272.173 244.519 247.333 178.594 241.378 172.109C235.41 165.623 183.675 159.138 183.675 159.138Z" fill="#FF475A"/>
<path d="M144.923 193.54C147.562 185.556 156.62 181.71 164.339 185.039C174.922 189.615 189.523 198.301 196.658 213.168C208.581 238.021 250.316 323.402 263.22 326.651C276.137 329.9 328.801 238.034 328.801 238.034C328.801 238.034 327.316 221.828 331.785 212.637C336.254 203.447 349.662 193.726 351.651 196.962C353.641 200.198 344.198 208.314 344.198 209.932C344.198 211.55 348.177 212.637 353.641 209.388C359.105 206.139 362.062 199.588 362.062 199.588C362.062 199.588 371.027 215.873 361.585 230.462C352.142 245.05 348.177 250.991 348.177 250.991C348.177 250.991 287.065 386.622 264.719 388.253C243.897 389.765 123.996 256.773 144.91 193.527L144.923 193.54Z" fill="#F7A491"/>
<path d="M197.467 103.889C197.467 103.889 197.255 105.109 196.871 107.178C195.027 117.124 187.906 150.107 183.105 159.165C177.296 170.119 202.984 205.065 227.718 200.808C235.079 199.535 221.498 168.7 222.148 165.425C223.395 159.165 225.092 150.637 226.83 141.898C227.811 136.964 228.792 131.965 229.734 127.256C232.373 113.888 234.535 102.96 234.535 102.96L197.481 103.889H197.467Z" fill="#F7A491"/>
<path d="M197.54 106.217C197.925 104.148 198.137 102.928 198.137 102.928L235.191 102C235.191 102 233.029 112.928 230.39 126.296C229.462 130.978 226.381 144.093 225.413 149C219.697 148.164 215.413 141 209.821 132.012C203.283 126.309 198.999 119.44 196.413 112.119C196.864 109.785 197.248 107.769 197.54 106.231V106.217Z" fill="#F47458"/>
<path d="M230.875 17.7585C230.875 17.7585 215.626 17.5653 202.676 29.9002C189.726 42.2352 171.516 83.6715 194.835 111.232C218.164 138.807 248.762 116.245 256.973 88.6374C265.182 61.043 270.196 22.6757 230.862 17.7566L230.875 17.7585Z" fill="#F7A491"/>
<path d="M254.226 17.3895C254.226 17.3895 219.082 60.5797 196.197 61.0024C173.294 61.4382 168.537 85.4055 168.537 85.4055C168.537 85.4055 180.76 30.2654 204.063 21.1691C227.367 12.0728 254.227 17.375 254.227 17.375L254.226 17.3895Z" fill="#953441"/>
<path d="M197.727 72.4039C196.556 79.838 191.496 85.2203 186.433 84.4092C181.369 83.5981 178.205 76.905 179.362 69.4661C180.533 62.0321 185.593 56.6499 190.656 57.461C195.72 58.2721 198.884 64.965 197.713 72.3991L197.727 72.4039Z" fill="#F7A491"/>
</svg>
