<svg width="62" height="62" viewBox="0 0 62 62" fill="none" xmlns="http://www.w3.org/2000/svg">
<path d="M17.8416 59.6038H2V18.9539L30.7129 2.7876L59.4257 18.9539V59.6038H30.7129V51.134" stroke="black" stroke-width="4" stroke-linecap="round" stroke-linejoin="round"/>
<path fill-rule="evenodd" clip-rule="evenodd" d="M48.579 26.6341C45.6866 23.9631 40.9971 23.9631 38.1047 26.6341L31.1216 33.0824L24.1389 26.6344C21.2464 23.9634 16.5569 23.9634 13.6645 26.6344C10.7721 29.3053 10.7721 33.6357 13.6645 36.3067L20.6474 42.7549L20.6476 42.7547L31.1218 52.4269L48.579 36.3064C51.4715 33.6354 51.4715 29.305 48.579 26.6341Z" fill="#EB5757"/>
<path d="M38.1047 26.6341L36.7478 25.1647V25.1647L38.1047 26.6341ZM48.579 26.6341L47.2222 28.1034V28.1034L48.579 26.6341ZM31.1216 33.0824L29.7648 34.5518C30.531 35.2593 31.7122 35.2593 32.4784 34.5518L31.1216 33.0824ZM24.1389 26.6344L25.4957 25.165L24.1389 26.6344ZM13.6645 26.6344L12.3077 25.165H12.3077L13.6645 26.6344ZM13.6645 36.3067L15.0213 34.8373L15.0213 34.8373L13.6645 36.3067ZM20.6474 42.7549L19.2906 44.2242C20.0575 44.9325 21.2402 44.9317 22.0062 44.2224L20.6474 42.7549ZM20.6476 42.7547L22.0044 41.2854C21.2374 40.5772 20.0547 40.5779 19.2887 41.2872L20.6476 42.7547ZM31.1218 52.4269L29.7649 53.8963C30.5311 54.6038 31.7124 54.6038 32.4786 53.8963L31.1218 52.4269ZM48.579 36.3064L47.2222 34.837V34.837L48.579 36.3064ZM39.4615 28.1034C41.5877 26.14 45.096 26.14 47.2222 28.1034L49.9359 25.1647C46.2773 21.7862 40.4065 21.7862 36.7478 25.1647L39.4615 28.1034ZM32.4784 34.5518L39.4615 28.1034L36.7478 25.1647L29.7648 31.6131L32.4784 34.5518ZM22.782 28.1037L29.7648 34.5518L32.4784 31.6131L25.4957 25.165L22.782 28.1037ZM15.0213 28.1037C17.1475 26.1403 20.6558 26.1403 22.782 28.1037L25.4957 25.165C21.8371 21.7865 15.9663 21.7865 12.3077 25.165L15.0213 28.1037ZM15.0213 34.8373C12.9865 32.9583 12.9865 29.9828 15.0213 28.1037L12.3077 25.165C8.55769 28.6278 8.55769 34.3132 12.3077 37.776L15.0213 34.8373ZM22.0042 41.2855L15.0213 34.8373L12.3077 37.776L19.2906 44.2242L22.0042 41.2855ZM19.2887 41.2872L19.2886 41.2874L22.0062 44.2224L22.0064 44.2223L19.2887 41.2872ZM32.4786 50.9576L22.0044 41.2854L19.2907 44.2241L29.7649 53.8963L32.4786 50.9576ZM47.2222 34.837L29.7649 50.9576L32.4786 53.8963L49.9359 37.7757L47.2222 34.837ZM47.2222 28.1034C49.2571 29.9825 49.2571 32.958 47.2222 34.837L49.9359 37.7757C53.6859 34.3129 53.6859 28.6275 49.9359 25.1647L47.2222 28.1034Z" fill="black"/>
</svg>
