<!-- <svg width="78" height="21" viewBox="0 0 78 21" fill="none" xmlns="http://www.w3.org/2000/svg">
    <path d="M4.86523 1.51562V20H0.40918V1.51562H4.86523ZM15.8975 1.51562L8.7373 10.8848L4.54785 15.4678L3.73535 11.3799L6.41406 7.31738L10.4004 1.51562H15.8975ZM10.6289 20L5.85547 11.6719L9.32129 9.12012L15.8975 20H10.6289ZM23.9717 16.5469V10.8848C23.9717 10.4954 23.9167 10.1611 23.8066 9.88184C23.6966 9.60254 23.5231 9.38672 23.2861 9.23438C23.0492 9.07357 22.7318 8.99316 22.334 8.99316C22.0124 8.99316 21.7373 9.04818 21.5088 9.1582C21.2803 9.26823 21.1068 9.43327 20.9883 9.65332C20.8698 9.87337 20.8105 10.1527 20.8105 10.4912H16.5322C16.5322 9.85645 16.6719 9.26823 16.9512 8.72656C17.2389 8.17643 17.6452 7.69824 18.1699 7.29199C18.7031 6.88574 19.3379 6.57259 20.0742 6.35254C20.819 6.12402 21.6484 6.00977 22.5625 6.00977C23.6543 6.00977 24.6276 6.19173 25.4824 6.55566C26.3457 6.9196 27.027 7.46549 27.5264 8.19336C28.0257 8.91276 28.2754 9.81836 28.2754 10.9102V16.5342C28.2754 17.4313 28.3262 18.1126 28.4277 18.5781C28.5293 19.0352 28.6732 19.4372 28.8594 19.7842V20H24.5684C24.3652 19.5768 24.2129 19.0605 24.1113 18.4512C24.0182 17.8333 23.9717 17.1986 23.9717 16.5469ZM24.4922 11.6084L24.5176 13.8936H22.626C22.2282 13.8936 21.8896 13.9486 21.6104 14.0586C21.3395 14.1686 21.1195 14.321 20.9502 14.5156C20.7894 14.7018 20.6709 14.9134 20.5947 15.1504C20.527 15.3874 20.4932 15.637 20.4932 15.8994C20.4932 16.1533 20.5524 16.3818 20.6709 16.585C20.7979 16.7796 20.9671 16.932 21.1787 17.042C21.3903 17.152 21.6273 17.207 21.8896 17.207C22.3636 17.207 22.7656 17.1182 23.0957 16.9404C23.4342 16.7542 23.6924 16.5299 23.8701 16.2676C24.0479 16.0052 24.1367 15.7598 24.1367 15.5312L25.0762 17.2832C24.9069 17.6217 24.7122 17.9645 24.4922 18.3115C24.2806 18.6585 24.014 18.9801 23.6924 19.2764C23.3792 19.5641 22.9941 19.8011 22.5371 19.9873C22.0801 20.165 21.5257 20.2539 20.874 20.2539C20.0277 20.2539 19.249 20.0804 18.5381 19.7334C17.8356 19.3864 17.2728 18.904 16.8496 18.2861C16.4264 17.6598 16.2148 16.9404 16.2148 16.1279C16.2148 15.417 16.3418 14.7822 16.5957 14.2236C16.8581 13.665 17.2516 13.1911 17.7764 12.8018C18.3011 12.4124 18.9697 12.1162 19.7822 11.9131C20.5947 11.71 21.5511 11.6084 22.6514 11.6084H24.4922ZM35.1689 6.26367V20H30.8779V6.26367H35.1689ZM30.624 2.72168C30.624 2.1123 30.8441 1.61296 31.2842 1.22363C31.7243 0.83431 32.2956 0.639648 32.998 0.639648C33.7005 0.639648 34.2718 0.83431 34.7119 1.22363C35.152 1.61296 35.3721 2.1123 35.3721 2.72168C35.3721 3.33105 35.152 3.8304 34.7119 4.21973C34.2718 4.60905 33.7005 4.80371 32.998 4.80371C32.2956 4.80371 31.7243 4.60905 31.2842 4.21973C30.8441 3.8304 30.624 3.33105 30.624 2.72168ZM49.1084 16.6992V20H38.4697V16.6992H49.1084ZM48.9814 8.57422L40.3867 20H37.4541V17.6133L46.0361 6.26367H48.9814V8.57422ZM47.5723 6.26367V9.56445H37.708V6.26367H47.5723ZM57.665 20.2539C56.5479 20.2539 55.5492 20.0804 54.6689 19.7334C53.7887 19.3779 53.0439 18.8913 52.4346 18.2734C51.8337 17.6556 51.3724 16.9447 51.0508 16.1406C50.7376 15.3366 50.5811 14.486 50.5811 13.5889V13.1064C50.5811 12.0993 50.7207 11.1683 51 10.3135C51.2793 9.4502 51.694 8.69694 52.2441 8.05371C52.7943 7.41048 53.484 6.91113 54.3135 6.55566C55.1429 6.19173 56.1077 6.00977 57.208 6.00977C58.1813 6.00977 59.0531 6.16634 59.8232 6.47949C60.5934 6.79264 61.2451 7.24121 61.7783 7.8252C62.32 8.40918 62.7305 9.11589 63.0098 9.94531C63.2975 10.7747 63.4414 11.7057 63.4414 12.7383V14.4775H52.2188V11.7988H59.2646V11.4688C59.2731 11.0117 59.1927 10.6224 59.0234 10.3008C58.8626 9.97917 58.6257 9.73372 58.3125 9.56445C57.9993 9.39518 57.6185 9.31055 57.1699 9.31055C56.7044 9.31055 56.3193 9.41211 56.0146 9.61523C55.7184 9.81836 55.4857 10.0977 55.3164 10.4531C55.1556 10.8001 55.0413 11.2021 54.9736 11.6592C54.9059 12.1162 54.8721 12.5986 54.8721 13.1064V13.5889C54.8721 14.0967 54.9398 14.5579 55.0752 14.9727C55.2191 15.3874 55.4222 15.7428 55.6846 16.0391C55.9554 16.3268 56.277 16.5511 56.6494 16.7119C57.0303 16.8727 57.4619 16.9531 57.9443 16.9531C58.5283 16.9531 59.1038 16.8431 59.6709 16.623C60.238 16.403 60.7246 16.0391 61.1309 15.5312L63.0732 17.8418C62.7939 18.2396 62.3962 18.6247 61.8799 18.9971C61.3721 19.3695 60.7627 19.6742 60.0518 19.9111C59.3408 20.1396 58.5452 20.2539 57.665 20.2539ZM69.3828 9.19629V20H65.1045V6.26367H69.1162L69.3828 9.19629ZM68.875 12.6621L67.8721 12.6875C67.8721 11.638 67.999 10.7028 68.2529 9.88184C68.5068 9.05241 68.8665 8.34993 69.332 7.77441C69.7975 7.19889 70.3519 6.76302 70.9951 6.4668C71.6468 6.16211 72.3704 6.00977 73.166 6.00977C73.8008 6.00977 74.3805 6.10286 74.9053 6.28906C75.4385 6.47526 75.8955 6.77572 76.2764 7.19043C76.6657 7.60514 76.9619 8.15527 77.165 8.84082C77.3766 9.5179 77.4824 10.3558 77.4824 11.3545V20H73.1787V11.3418C73.1787 10.7917 73.1025 10.3727 72.9502 10.085C72.7979 9.78874 72.5778 9.58561 72.29 9.47559C72.0023 9.36556 71.651 9.31055 71.2363 9.31055C70.7962 9.31055 70.4238 9.39518 70.1191 9.56445C69.8145 9.73372 69.569 9.9707 69.3828 10.2754C69.2051 10.5716 69.0739 10.9229 68.9893 11.3291C68.9131 11.7354 68.875 12.1797 68.875 12.6621Z" fill="#FF475A"/>
</svg> -->

<svg width="78" height="21" viewBox="0 0 78 21" fill="none" xmlns="http://www.w3.org/2000/svg">
    <path d="M4.86523 1.51562V20H0.40918V1.51562H4.86523ZM15.8975 1.51562L8.7373 10.8848L4.54785 15.4678L3.73535 11.3799L6.41406 7.31738L10.4004 1.51562H15.8975ZM10.6289 20L5.85547 11.6719L9.32129 9.12012L15.8975 20H10.6289ZM23.9717 16.5469V10.8848C23.9717 10.4954 23.9167 10.1611 23.8066 9.88184C23.6966 9.60254 23.5231 9.38672 23.2861 9.23438C23.0492 9.07357 22.7318 8.99316 22.334 8.99316C22.0124 8.99316 21.7373 9.04818 21.5088 9.1582C21.2803 9.26823 21.1068 9.43327 20.9883 9.65332C20.8698 9.87337 20.8105 10.1527 20.8105 10.4912H16.5322C16.5322 9.85645 16.6719 9.26823 16.9512 8.72656C17.2389 8.17643 17.6452 7.69824 18.1699 7.29199C18.7031 6.88574 19.3379 6.57259 20.0742 6.35254C20.819 6.12402 21.6484 6.00977 22.5625 6.00977C23.6543 6.00977 24.6276 6.19173 25.4824 6.55566C26.3457 6.9196 27.027 7.46549 27.5264 8.19336C28.0257 8.91276 28.2754 9.81836 28.2754 10.9102V16.5342C28.2754 17.4313 28.3262 18.1126 28.4277 18.5781C28.5293 19.0352 28.6732 19.4372 28.8594 19.7842V20H24.5684C24.3652 19.5768 24.2129 19.0605 24.1113 18.4512C24.0182 17.8333 23.9717 17.1986 23.9717 16.5469ZM24.4922 11.6084L24.5176 13.8936H22.626C22.2282 13.8936 21.8896 13.9486 21.6104 14.0586C21.3395 14.1686 21.1195 14.321 20.9502 14.5156C20.7894 14.7018 20.6709 14.9134 20.5947 15.1504C20.527 15.3874 20.4932 15.637 20.4932 15.8994C20.4932 16.1533 20.5524 16.3818 20.6709 16.585C20.7979 16.7796 20.9671 16.932 21.1787 17.042C21.3903 17.152 21.6273 17.207 21.8896 17.207C22.3636 17.207 22.7656 17.1182 23.0957 16.9404C23.4342 16.7542 23.6924 16.5299 23.8701 16.2676C24.0479 16.0052 24.1367 15.7598 24.1367 15.5312L25.0762 17.2832C24.9069 17.6217 24.7122 17.9645 24.4922 18.3115C24.2806 18.6585 24.014 18.9801 23.6924 19.2764C23.3792 19.5641 22.9941 19.8011 22.5371 19.9873C22.0801 20.165 21.5257 20.2539 20.874 20.2539C20.0277 20.2539 19.249 20.0804 18.5381 19.7334C17.8356 19.3864 17.2728 18.904 16.8496 18.2861C16.4264 17.6598 16.2148 16.9404 16.2148 16.1279C16.2148 15.417 16.3418 14.7822 16.5957 14.2236C16.8581 13.665 17.2516 13.1911 17.7764 12.8018C18.3011 12.4124 18.9697 12.1162 19.7822 11.9131C20.5947 11.71 21.5511 11.6084 22.6514 11.6084H24.4922ZM35.1689 6.26367V20H30.8779V6.26367H35.1689ZM30.624 2.72168C30.624 2.1123 30.8441 1.61296 31.2842 1.22363C31.7243 0.83431 32.2956 0.639648 32.998 0.639648C33.7005 0.639648 34.2718 0.83431 34.7119 1.22363C35.152 1.61296 35.3721 2.1123 35.3721 2.72168C35.3721 3.33105 35.152 3.8304 34.7119 4.21973C34.2718 4.60905 33.7005 4.80371 32.998 4.80371C32.2956 4.80371 31.7243 4.60905 31.2842 4.21973C30.8441 3.8304 30.624 3.33105 30.624 2.72168ZM49.1084 16.6992V20H38.4697V16.6992H49.1084ZM48.9814 8.57422L40.3867 20H37.4541V17.6133L46.0361 6.26367H48.9814V8.57422ZM47.5723 6.26367V9.56445H37.708V6.26367H47.5723ZM57.665 20.2539C56.5479 20.2539 55.5492 20.0804 54.6689 19.7334C53.7887 19.3779 53.0439 18.8913 52.4346 18.2734C51.8337 17.6556 51.3724 16.9447 51.0508 16.1406C50.7376 15.3366 50.5811 14.486 50.5811 13.5889V13.1064C50.5811 12.0993 50.7207 11.1683 51 10.3135C51.2793 9.4502 51.694 8.69694 52.2441 8.05371C52.7943 7.41048 53.484 6.91113 54.3135 6.55566C55.1429 6.19173 56.1077 6.00977 57.208 6.00977C58.1813 6.00977 59.0531 6.16634 59.8232 6.47949C60.5934 6.79264 61.2451 7.24121 61.7783 7.8252C62.32 8.40918 62.7305 9.11589 63.0098 9.94531C63.2975 10.7747 63.4414 11.7057 63.4414 12.7383V14.4775H52.2188V11.7988H59.2646V11.4688C59.2731 11.0117 59.1927 10.6224 59.0234 10.3008C58.8626 9.97917 58.6257 9.73372 58.3125 9.56445C57.9993 9.39518 57.6185 9.31055 57.1699 9.31055C56.7044 9.31055 56.3193 9.41211 56.0146 9.61523C55.7184 9.81836 55.4857 10.0977 55.3164 10.4531C55.1556 10.8001 55.0413 11.2021 54.9736 11.6592C54.9059 12.1162 54.8721 12.5986 54.8721 13.1064V13.5889C54.8721 14.0967 54.9398 14.5579 55.0752 14.9727C55.2191 15.3874 55.4222 15.7428 55.6846 16.0391C55.9554 16.3268 56.277 16.5511 56.6494 16.7119C57.0303 16.8727 57.4619 16.9531 57.9443 16.9531C58.5283 16.9531 59.1038 16.8431 59.6709 16.623C60.238 16.403 60.7246 16.0391 61.1309 15.5312L63.0732 17.8418C62.7939 18.2396 62.3962 18.6247 61.8799 18.9971C61.3721 19.3695 60.7627 19.6742 60.0518 19.9111C59.3408 20.1396 58.5452 20.2539 57.665 20.2539ZM69.3828 9.19629V20H65.1045V6.26367H69.1162L69.3828 9.19629ZM68.875 12.6621L67.8721 12.6875C67.8721 11.638 67.999 10.7028 68.2529 9.88184C68.5068 9.05241 68.8665 8.34993 69.332 7.77441C69.7975 7.19889 70.3519 6.76302 70.9951 6.4668C71.6468 6.16211 72.3704 6.00977 73.166 6.00977C73.8008 6.00977 74.3805 6.10286 74.9053 6.28906C75.4385 6.47526 75.8955 6.77572 76.2764 7.19043C76.6657 7.60514 76.9619 8.15527 77.165 8.84082C77.3766 9.5179 77.4824 10.3558 77.4824 11.3545V20H73.1787V11.3418C73.1787 10.7917 73.1025 10.3727 72.9502 10.085C72.7979 9.78874 72.5778 9.58561 72.29 9.47559C72.0023 9.36556 71.651 9.31055 71.2363 9.31055C70.7962 9.31055 70.4238 9.39518 70.1191 9.56445C69.8145 9.73372 69.569 9.9707 69.3828 10.2754C69.2051 10.5716 69.0739 10.9229 68.9893 11.3291C68.9131 11.7354 68.875 12.1797 68.875 12.6621Z" fill="#156d10"/>
</svg>
