<svg width="128" height="40" viewBox="0 0 128 40" fill="none" xmlns="http://www.w3.org/2000/svg">
<path d="M118.683 39.1571C118.199 39.1571 117.843 39.0965 117.616 38.9751C117.404 38.8386 117.298 38.649 117.298 38.4063V23.8646C117.298 23.6219 117.404 23.4399 117.616 23.3185C117.843 23.182 118.199 23.1138 118.683 23.1138H119.274C119.758 23.1138 120.106 23.182 120.318 23.3185C120.546 23.4399 120.659 23.6219 120.659 23.8646V28.6459C120.871 28.3729 121.136 28.115 121.454 27.8723C121.787 27.6296 122.158 27.4325 122.567 27.2808C122.991 27.1139 123.445 27.0305 123.929 27.0305C124.701 27.0305 125.337 27.167 125.837 27.44C126.352 27.6979 126.73 28.0998 126.972 28.6459C127.215 29.1768 127.336 29.8669 127.336 30.7163V38.4063C127.336 38.649 127.222 38.8386 126.995 38.9751C126.783 39.0965 126.435 39.1571 125.95 39.1571H125.315C124.83 39.1571 124.474 39.0965 124.247 38.9751C124.035 38.8386 123.929 38.649 123.929 38.4063V31.2168C123.929 30.777 123.831 30.4357 123.634 30.193C123.437 29.9351 123.097 29.8062 122.612 29.8062C122.37 29.8062 122.12 29.8669 121.863 29.9882C121.62 30.0944 121.393 30.2461 121.181 30.4433C120.985 30.6404 120.826 30.868 120.705 31.1258V38.4063C120.705 38.649 120.591 38.8386 120.364 38.9751C120.152 39.0965 119.804 39.1571 119.319 39.1571H118.683Z" fill="#DDDFE7"/>
<path d="M113.143 39.1571C112.436 39.1571 111.84 39.0301 111.354 38.7762C110.882 38.5223 110.529 38.1489 110.293 37.656C110.057 37.1481 109.939 36.5282 109.939 35.7963V29.8814H109.232C108.79 29.8814 108.569 29.508 108.569 28.7611V28.3803C108.569 27.6334 108.79 27.26 109.232 27.26H109.939L110.293 25.1315C110.337 24.8925 110.448 24.7133 110.624 24.5938C110.816 24.4743 111.081 24.4146 111.42 24.4146H112.149C112.532 24.4146 112.812 24.4743 112.989 24.5938C113.166 24.7133 113.254 24.8925 113.254 25.1315V27.26H114.602C115.044 27.26 115.265 27.6334 115.265 28.3803V28.7611C115.265 29.508 115.044 29.8814 114.602 29.8814H113.254V35.5723C113.254 35.9009 113.305 36.1399 113.409 36.2892C113.526 36.4237 113.725 36.4909 114.005 36.4909C114.256 36.4909 114.447 36.461 114.58 36.4013C114.727 36.3266 114.852 36.2892 114.955 36.2892C115.044 36.2892 115.125 36.3639 115.198 36.5133C115.272 36.6627 115.331 36.8494 115.375 37.0734C115.434 37.2825 115.478 37.4917 115.508 37.7008C115.537 37.8949 115.552 38.0443 115.552 38.1489C115.552 38.3281 115.427 38.4999 115.176 38.6642C114.926 38.8136 114.617 38.933 114.248 39.0227C113.88 39.1123 113.512 39.1571 113.143 39.1571Z" fill="#DDDFE7"/>
<path d="M105.947 39.1571C105.177 39.1571 104.528 39.0293 103.999 38.7736C103.485 38.5179 103.101 38.1419 102.844 37.6456C102.587 37.1343 102.459 36.5101 102.459 35.7732V23.8582C102.459 23.6176 102.571 23.4371 102.796 23.3168C103.036 23.1814 103.413 23.1138 103.926 23.1138H104.6C105.113 23.1138 105.482 23.1814 105.706 23.3168C105.947 23.4371 106.067 23.6176 106.067 23.8582V35.5476C106.067 35.8785 106.123 36.1191 106.236 36.2695C106.364 36.4048 106.58 36.4725 106.885 36.4725C107.158 36.4725 107.366 36.4424 107.511 36.3823C107.671 36.3071 107.807 36.2695 107.919 36.2695C108.016 36.2695 108.104 36.3447 108.184 36.4951C108.264 36.6455 108.328 36.8335 108.376 37.0591C108.441 37.2696 108.489 37.4802 108.521 37.6908C108.553 37.8863 108.569 38.0367 108.569 38.1419C108.569 38.3224 108.433 38.4954 108.16 38.6608C107.887 38.8112 107.551 38.9315 107.15 39.0218C106.749 39.112 106.348 39.1571 105.947 39.1571Z" fill="#DDDFE7"/>
<path d="M93.1271 39.1575C91.9145 39.1575 91.0537 38.8422 90.5447 38.2115C90.0507 37.5658 89.8037 36.7849 89.8037 35.8689C89.8037 35.4034 89.8711 34.9303 90.0058 34.4498C90.1555 33.9543 90.4474 33.4963 90.8816 33.0758C91.3157 32.6553 91.9594 32.3175 92.8127 32.0622C93.681 31.8069 94.8262 31.6793 96.2484 31.6793V31.0035C96.2484 30.6882 96.1885 30.4329 96.0688 30.2377C95.949 30.0424 95.7619 29.8998 95.5074 29.8097C95.2529 29.7046 94.9161 29.652 94.4969 29.652C93.958 29.652 93.4714 29.7121 93.0373 29.8322C92.6181 29.9373 92.2588 30.05 91.9594 30.1701C91.675 30.2902 91.4579 30.3503 91.3082 30.3503C91.2034 30.3503 91.0986 30.2827 90.9938 30.1476C90.8891 29.9974 90.7917 29.8247 90.7019 29.6295C90.6271 29.4193 90.5672 29.2165 90.5223 29.0213C90.4774 28.8261 90.4549 28.6759 90.4549 28.5708C90.4549 28.3606 90.5822 28.1654 90.8367 27.9852C91.0912 27.805 91.428 27.6398 91.8472 27.4896C92.2663 27.3395 92.7304 27.2268 93.2394 27.1518C93.7484 27.0617 94.2499 27.0166 94.7439 27.0166C95.6271 27.0166 96.3757 27.1142 96.9894 27.3094C97.6032 27.4896 98.0972 27.7524 98.4715 28.0978C98.8607 28.4282 99.1377 28.8261 99.3023 29.2916C99.482 29.7421 99.5718 30.2377 99.5718 30.7783V35.0129C99.5718 35.7938 99.5943 36.3945 99.6392 36.8149C99.6841 37.2204 99.729 37.5282 99.7739 37.7385C99.8188 37.9337 99.8413 38.1139 99.8413 38.2791C99.8413 38.4142 99.7365 38.5268 99.5269 38.6169C99.3323 38.707 99.0853 38.7821 98.7859 38.8422C98.5014 38.9022 98.217 38.9473 97.9326 38.9773C97.6631 38.9923 97.461 38.9998 97.3263 38.9998C97.0867 38.9998 96.9071 38.9173 96.7873 38.7521C96.6825 38.5719 96.6077 38.3616 96.5628 38.1214C96.5179 37.8661 96.473 37.6408 96.4281 37.4456C96.3831 37.5357 96.226 37.7234 95.9565 38.0088C95.702 38.2791 95.3352 38.5418 94.8562 38.7971C94.3921 39.0374 93.8157 39.1575 93.1271 39.1575ZM94.2274 36.5221C94.5119 36.5221 94.7813 36.462 95.0358 36.3419C95.3053 36.2218 95.5448 36.0566 95.7544 35.8464C95.964 35.6211 96.1286 35.3733 96.2484 35.103V33.8642C95.7095 33.8642 95.2454 33.9017 94.8562 33.9768C94.4669 34.0519 94.1376 34.157 93.8681 34.2921C93.6136 34.4273 93.419 34.6 93.2843 34.8102C93.1645 35.0204 93.1047 35.2607 93.1047 35.531C93.1047 35.8163 93.1945 36.0566 93.3741 36.2518C93.5687 36.432 93.8532 36.5221 94.2274 36.5221Z" fill="#DDDFE7"/>
<path d="M83.1032 39.1575C81.0343 39.1575 79.5206 38.6169 78.5622 37.5357C77.6191 36.4395 77.1475 34.9829 77.1475 33.1659C77.1475 31.6793 77.3833 30.4854 77.8549 29.5844C78.3264 28.6834 78.9806 28.0302 79.8173 27.6248C80.654 27.2193 81.6124 27.0166 82.6925 27.0166C83.8943 27.0166 84.8527 27.2869 85.5677 27.8275C86.2827 28.3531 86.7999 29.0514 87.1194 29.9223C87.4541 30.7783 87.6214 31.7093 87.6214 32.7154C87.6214 32.9106 87.5454 33.1208 87.3932 33.3461C87.2563 33.5713 87.089 33.7666 86.8912 33.9317C86.6935 34.0819 86.5109 34.157 86.3436 34.157H80.616C80.6464 35.058 80.905 35.6812 81.3918 36.0266C81.8938 36.3569 82.5176 36.5221 83.263 36.5221C83.7802 36.5221 84.2366 36.4545 84.6321 36.3194C85.0429 36.1692 85.3852 36.0266 85.659 35.8914C85.948 35.7563 86.1686 35.6887 86.3207 35.6887C86.4729 35.6887 86.625 35.8013 86.7771 36.0266C86.9293 36.2518 87.0586 36.5071 87.1651 36.7924C87.2715 37.0627 87.3248 37.2729 87.3248 37.4231C87.3248 37.6484 87.1727 37.8661 86.8684 38.0763C86.5794 38.2866 86.2066 38.4743 85.7503 38.6394C85.2939 38.8046 84.8299 38.9323 84.3583 39.0224C83.8867 39.1125 83.4684 39.1575 83.1032 39.1575ZM80.5703 31.927H84.4039C84.4039 31.1762 84.2518 30.6131 83.9476 30.2377C83.6433 29.8472 83.1793 29.652 82.5556 29.652C82.2818 29.652 81.9927 29.7046 81.6885 29.8097C81.3842 29.9148 81.1256 30.1325 80.9126 30.4629C80.6996 30.7783 80.5855 31.2663 80.5703 31.927Z" fill="#DDDFE7"/>
<path d="M62.3896 39.1571C61.9109 39.1571 61.5558 39.0964 61.3242 38.9748C61.1081 38.8381 61 38.6482 61 38.4051V23.8658C61 23.6227 61.1081 23.4404 61.3242 23.3189C61.5558 23.1821 61.9109 23.1138 62.3896 23.1138H63.2002C63.6942 23.1138 64.0494 23.1821 64.2655 23.3189C64.4817 23.4404 64.5898 23.6227 64.5898 23.8658V29.4719H71.3755V23.8658C71.3755 23.6227 71.4836 23.4404 71.6998 23.3189C71.9314 23.1821 72.2865 23.1138 72.7651 23.1138H73.5757C74.0698 23.1138 74.4249 23.1821 74.6411 23.3189C74.8572 23.4404 74.9653 23.6227 74.9653 23.8658V38.4051C74.9653 38.6482 74.8572 38.8381 74.6411 38.9748C74.4249 39.0964 74.0698 39.1571 73.5757 39.1571H72.7651C72.2865 39.1571 71.9314 39.0964 71.6998 38.9748C71.4836 38.8381 71.3755 38.6482 71.3755 38.4051V32.4572H64.5898V38.4051C64.5898 38.6482 64.4817 38.8381 64.2655 38.9748C64.0494 39.0964 63.6942 39.1571 63.2002 39.1571H62.3896Z" fill="#DDDFE7"/>
<path d="M118.507 17.9105C118.012 17.9105 117.649 17.8476 117.417 17.7217C117.201 17.5802 117.093 17.3836 117.093 17.1319V9.62968C117.093 8.93765 117.07 8.38717 117.024 7.97824C116.993 7.55358 116.954 7.2233 116.908 6.98738C116.877 6.75146 116.861 6.54699 116.861 6.37398C116.861 6.20098 116.969 6.05942 117.186 5.94933C117.417 5.83923 117.688 5.76059 117.997 5.71341C118.321 5.6505 118.622 5.61118 118.901 5.59545C119.194 5.56399 119.403 5.54827 119.526 5.54827C119.712 5.54827 119.851 5.59545 119.943 5.68982C120.036 5.76846 120.113 5.91787 120.175 6.13807C120.252 6.35826 120.329 6.68854 120.407 7.12893C120.638 6.8301 120.924 6.54699 121.264 6.27962C121.619 5.99651 122.013 5.76846 122.446 5.59545C122.894 5.42244 123.365 5.33594 123.859 5.33594C124.647 5.33594 125.296 5.47749 125.806 5.76059C126.331 6.02797 126.717 6.44476 126.965 7.01097C127.212 7.56145 127.335 8.27707 127.335 9.15784V17.1319C127.335 17.3836 127.219 17.5802 126.988 17.7217C126.771 17.8476 126.416 17.9105 125.922 17.9105H125.273C124.779 17.9105 124.416 17.8476 124.184 17.7217C123.968 17.5802 123.859 17.3836 123.859 17.1319V9.67686C123.859 9.22075 123.759 8.86687 123.558 8.61522C123.357 8.34785 123.01 8.21416 122.515 8.21416C122.268 8.21416 122.013 8.27707 121.751 8.40289C121.504 8.51299 121.272 8.67027 121.056 8.87473C120.855 9.0792 120.693 9.31512 120.569 9.58249V17.1319C120.569 17.3836 120.453 17.5802 120.221 17.7217C120.005 17.8476 119.65 17.9105 119.155 17.9105H118.507Z" fill="#DDDFE7"/>
<path d="M109.973 17.9105C107.818 17.9105 106.242 17.3506 105.243 16.2307C104.261 15.0954 103.77 13.5868 103.77 11.7049C103.77 10.1651 104.015 8.92866 104.506 7.99548C104.998 7.06231 105.679 6.38576 106.551 5.96583C107.422 5.5459 108.421 5.33594 109.546 5.33594C110.798 5.33594 111.796 5.61589 112.541 6.17579C113.285 6.72015 113.824 7.44336 114.157 8.34543C114.506 9.23194 114.68 10.1962 114.68 11.2383C114.68 11.4405 114.601 11.6582 114.442 11.8915C114.3 12.1248 114.125 12.327 113.919 12.4981C113.713 12.6536 113.523 12.7313 113.349 12.7313H107.383C107.414 13.6645 107.684 14.31 108.191 14.6677C108.714 15.0098 109.363 15.1809 110.14 15.1809C110.679 15.1809 111.154 15.1109 111.566 14.971C111.994 14.8154 112.35 14.6677 112.636 14.5277C112.937 14.3877 113.167 14.3177 113.325 14.3177C113.484 14.3177 113.642 14.4344 113.8 14.6677C113.959 14.901 114.094 15.1654 114.205 15.4609C114.315 15.7408 114.371 15.9586 114.371 16.1141C114.371 16.3474 114.212 16.5729 113.896 16.7907C113.594 17.0084 113.206 17.2028 112.731 17.3739C112.255 17.545 111.772 17.6772 111.281 17.7705C110.79 17.8638 110.354 17.9105 109.973 17.9105ZM107.335 10.4217H111.328C111.328 9.64409 111.17 9.06086 110.853 8.67204C110.536 8.26766 110.053 8.06547 109.403 8.06547C109.118 8.06547 108.817 8.11991 108.5 8.22878C108.183 8.33765 107.913 8.56317 107.692 8.90533C107.47 9.23194 107.351 9.73741 107.335 10.4217Z" fill="#DDDFE7"/>
<path d="M93.3306 17.9105C93.1233 17.9105 92.948 17.8143 92.8045 17.6219C92.6769 17.4136 92.5813 17.1731 92.5175 16.9007C92.4538 16.6121 92.4219 16.3557 92.4219 16.1313C92.4219 16.0511 92.4219 15.963 92.4219 15.8668C92.4378 15.7706 92.5016 15.6504 92.6132 15.5062L99.1654 6.73044L100.074 8.14898H93.4262C92.948 8.14898 92.7088 7.74826 92.7088 6.94682V6.53809C92.7088 5.73666 92.948 5.33594 93.4262 5.33594H101.891C102.115 5.33594 102.29 5.44012 102.418 5.6485C102.545 5.84084 102.641 6.08127 102.705 6.36979C102.768 6.64228 102.8 6.89072 102.8 7.11512C102.8 7.19527 102.792 7.28343 102.776 7.3796C102.776 7.47577 102.72 7.59599 102.609 7.74024L96.0567 16.516L95.1241 15.0974H102.178C102.657 15.0974 102.896 15.4981 102.896 16.2996V16.7083C102.896 17.5097 102.657 17.9105 102.178 17.9105H93.3306Z" fill="#DDDFE7"/>
<path d="M88.1679 17.9106C87.6713 17.9106 87.3067 17.8478 87.0739 17.7222C86.8567 17.5808 86.748 17.3846 86.748 17.1333V6.27572C86.748 6.0245 86.8567 5.83608 87.0739 5.71047C87.3067 5.56915 87.779 5.33604 88.2755 5.33604H88.7119C89.2085 5.33604 89.673 5.56915 89.8902 5.71047C90.123 5.83608 90.2394 6.0245 90.2394 6.27572V17.1333C90.2394 17.3846 90.123 17.5808 89.8902 17.7222C89.673 17.8478 89.3161 17.9106 88.8196 17.9106H88.1679ZM88.4937 4.34443C87.8885 4.34443 87.4463 4.28162 87.167 4.15601C86.9032 4.0304 86.7713 3.84198 86.7713 3.59076V1.75367C86.7713 1.50245 86.9032 1.31403 87.167 1.18842C87.4463 1.06281 87.8885 1 88.4937 1C89.0989 1 89.5333 1.06281 89.7971 1.18842C90.0764 1.31403 90.2161 1.50245 90.2161 1.75367V3.59076C90.2161 3.84198 90.0764 4.0304 89.7971 4.15601C89.5333 4.28162 89.0989 4.34443 88.4937 4.34443Z" fill="#DDDFE7"/>
<path d="M77.1232 17.9105C75.8579 17.9105 74.9596 17.5839 74.4285 16.9306C73.913 16.2619 73.6553 15.4531 73.6553 14.5044C73.6553 14.0222 73.7256 13.5323 73.8662 13.0346C74.0224 12.5214 74.327 12.047 74.78 11.6115C75.233 11.1761 75.9047 10.8261 76.7951 10.5617C77.7011 10.2973 78.8962 10.1651 80.3802 10.1651V9.46523C80.3802 9.13862 80.3177 8.87422 80.1927 8.67204C80.0677 8.46985 79.8725 8.3221 79.6069 8.22878C79.3414 8.11991 78.9899 8.06547 78.5525 8.06547C77.9901 8.06547 77.4825 8.12768 77.0294 8.25211C76.592 8.36098 76.2171 8.47762 75.9047 8.60205C75.6079 8.72647 75.3814 8.78868 75.2252 8.78868C75.1158 8.78868 75.0065 8.71869 74.8972 8.57872C74.7878 8.42319 74.6863 8.24433 74.5925 8.04214C74.5144 7.8244 74.452 7.61444 74.4051 7.41225C74.3582 7.21006 74.3348 7.05453 74.3348 6.94566C74.3348 6.72792 74.4676 6.52573 74.7331 6.3391C74.9987 6.15247 75.3502 5.98138 75.7876 5.82585C76.225 5.67032 76.7092 5.55368 77.2403 5.47591C77.7714 5.3826 78.2948 5.33594 78.8102 5.33594C79.7319 5.33594 80.513 5.43703 81.1534 5.63922C81.7939 5.82585 82.3094 6.09803 82.6999 6.45575C83.1061 6.79791 83.3951 7.21006 83.5669 7.6922C83.7543 8.15879 83.8481 8.67204 83.8481 9.23194V13.6179C83.8481 14.4266 83.8715 15.0487 83.9184 15.4842C83.9652 15.9041 84.0121 16.223 84.059 16.4407C84.1058 16.6429 84.1292 16.8295 84.1292 17.0006C84.1292 17.1406 84.0199 17.2572 83.8012 17.3506C83.5981 17.4439 83.3404 17.5216 83.028 17.5839C82.7312 17.6461 82.4344 17.6927 82.1376 17.7238C81.8564 17.7394 81.6455 17.7472 81.5049 17.7472C81.255 17.7472 81.0675 17.6616 80.9425 17.4905C80.8332 17.3039 80.7551 17.0862 80.7082 16.8373C80.6614 16.5729 80.6145 16.3396 80.5676 16.1374C80.5208 16.2307 80.3567 16.4252 80.0756 16.7207C79.81 17.0006 79.4273 17.2728 78.9274 17.5372C78.4432 17.786 77.8417 17.9105 77.1232 17.9105ZM78.2713 15.1809C78.5681 15.1809 78.8493 15.1187 79.1149 14.9943C79.396 14.8699 79.646 14.6988 79.8647 14.481C80.0834 14.2478 80.2552 13.9911 80.3802 13.7112V12.4281C79.8178 12.4281 79.3336 12.4669 78.9274 12.5447C78.5213 12.6225 78.1776 12.7313 77.8964 12.8713C77.6309 13.0113 77.4278 13.1902 77.2872 13.4079C77.1622 13.6256 77.0997 13.8745 77.0997 14.1544C77.0997 14.4499 77.1935 14.6988 77.3809 14.901C77.584 15.0876 77.8808 15.1809 78.2713 15.1809Z" fill="#DDDFE7"/>
<path d="M62.4348 17.9106C61.9406 17.9106 61.5739 17.8481 61.3348 17.7233C61.1116 17.5829 61 17.3879 61 17.1382V2.20595C61 1.9563 61.1116 1.76906 61.3348 1.64424C61.5739 1.50381 61.9406 1.43359 62.4348 1.43359H63.2718C63.7819 1.43359 64.1486 1.50381 64.3718 1.64424C64.5949 1.76906 64.7065 1.9563 64.7065 2.20595V8.47843H64.8022L68.8435 2.04212C68.987 1.80807 69.1863 1.65204 69.4414 1.57402C69.6964 1.4804 70.095 1.43359 70.637 1.43359H71.2827C71.8406 1.43359 72.2233 1.4726 72.4305 1.55062C72.6537 1.61303 72.7653 1.73005 72.7653 1.90169C72.7653 1.9641 72.7493 2.04212 72.7175 2.13574C72.6856 2.22936 72.6298 2.33078 72.5501 2.44L67.337 10.4444V8.52524L72.9327 16.7403C73.0443 16.8963 73.116 17.0368 73.1479 17.1616C73.1957 17.2708 73.2196 17.3644 73.2196 17.4425C73.2196 17.6297 73.1001 17.7545 72.8609 17.8169C72.6377 17.8794 72.2711 17.9106 71.7609 17.9106H70.9957C70.4377 17.9106 70.0312 17.8637 69.7761 17.7701C69.5211 17.6765 69.3218 17.5205 69.1783 17.302L64.8022 10.8189H64.7065V17.1382C64.7065 17.3879 64.5949 17.5829 64.3718 17.7233C64.1486 17.8481 63.7819 17.9106 63.2718 17.9106H62.4348Z" fill="#DDDFE7"/>
<path fill-rule="evenodd" clip-rule="evenodd" d="M22.893 4.39697C21.5924 3.48004 19.8439 3.46979 18.5322 4.3714L5.37821 13.7307C4.37036 14.4235 3.77011 15.5556 3.77011 16.7636V32.4966C3.77011 35.1984 6.62197 36.9902 9.12012 35.858L16.1948 32.6516C15.8097 32.3648 15.4286 32.0613 15.0537 31.7471C13.5552 30.4913 12.0325 28.9594 10.5849 27.3633C8.42862 24.9859 8.5633 22.0096 10.1667 19.978C11.7422 17.9816 14.6198 17.0321 17.5486 18.1981L20.2737 19.2829L23.1515 18.1674C26.1075 17.0216 28.9858 18.0127 30.5398 20.0381C32.1203 22.098 32.2152 25.0898 30.0122 27.4456C28.5333 29.0271 26.986 30.5419 25.474 31.7828C25.1139 32.0783 24.7489 32.3641 24.3809 32.6351L31.9127 35.9633C34.4075 37.0657 37.2299 35.2737 37.2299 32.5872V16.7216C37.2299 15.5292 36.645 14.4097 35.6585 13.7143L22.893 4.39697ZM20.2743 34.8801L30.3655 39.3394C35.3552 41.5443 41 37.9602 41 32.5872V16.7216C41 14.3367 39.8302 12.0978 37.8573 10.7069L25.0917 1.38962C22.4905 -0.444252 18.9935 -0.464757 16.3702 1.33847L3.21619 10.6978C1.20049 12.0833 0 14.3475 0 16.7636V32.4966C0 37.9002 5.70371 41.4838 10.7 39.2194L20.2743 34.8801ZM20.2656 30.833C21.0527 30.4471 21.9932 29.8145 23.0563 28.942C24.3963 27.8423 25.8204 26.4547 27.2353 24.9416C28.1765 23.935 28.0433 22.9366 27.5287 22.2659C26.9876 21.5606 25.9037 21.0808 24.5358 21.611L21.3072 22.8625C20.6318 23.1243 19.8797 23.1209 19.2067 22.853L16.1322 21.629C14.7765 21.0893 13.6926 21.554 13.1467 22.2458C12.6285 22.9023 12.4815 23.8881 13.4002 24.901C14.7825 26.425 16.1794 27.8234 17.5012 28.9311C18.5502 29.8103 19.4817 30.4462 20.2656 30.833Z" fill="#DDDFE7"/>
</svg>
