<svg width="85" height="28" viewBox="0 0 85 28" fill="none" xmlns="http://www.w3.org/2000/svg">
<path d="M78.6314 26.303C78.3176 26.303 78.0871 26.2634 77.9401 26.1843C77.8028 26.0953 77.7341 25.9716 77.7341 25.8133V16.3281C77.7341 16.1698 77.8028 16.0511 77.9401 15.9719C78.0871 15.8829 78.3176 15.8384 78.6314 15.8384H79.0138C79.3276 15.8384 79.5531 15.8829 79.6904 15.9719C79.8375 16.0511 79.9111 16.1698 79.9111 16.3281V19.4468C80.0484 19.2687 80.22 19.1006 80.4259 18.9423C80.6416 18.784 80.8819 18.6553 81.1466 18.5564C81.4212 18.4476 81.7154 18.3932 82.0292 18.3932C82.5293 18.3932 82.9411 18.4822 83.2647 18.6603C83.5981 18.8285 83.8433 19.0907 84.0002 19.4468C84.1571 19.7931 84.2355 20.2433 84.2355 20.7973V25.8133C84.2355 25.9716 84.162 26.0953 84.0149 26.1843C83.8776 26.2634 83.6521 26.303 83.3383 26.303H82.9264C82.6126 26.303 82.3822 26.2634 82.2351 26.1843C82.0978 26.0953 82.0292 25.9716 82.0292 25.8133V21.1238C82.0292 20.8369 81.9654 20.6143 81.838 20.456C81.7105 20.2878 81.4898 20.2037 81.176 20.2037C81.0192 20.2037 80.8574 20.2433 80.6907 20.3224C80.5338 20.3917 80.3867 20.4906 80.2494 20.6192C80.1219 20.7478 80.0189 20.8962 79.9405 21.0644V25.8133C79.9405 25.9716 79.8669 26.0953 79.7199 26.1843C79.5826 26.2634 79.357 26.303 79.0432 26.303H78.6314Z" fill="#281B55"/>
<path d="M75.0434 26.3032C74.5854 26.3032 74.1989 26.2204 73.884 26.0547C73.5787 25.8891 73.3497 25.6455 73.1971 25.324C73.0444 24.9928 72.9681 24.5884 72.9681 24.111V20.2529H72.5101C72.2238 20.2529 72.0807 20.0093 72.0807 19.5222V19.2737C72.0807 18.7866 72.2238 18.543 72.5101 18.543H72.9681L73.1971 17.1547C73.2257 16.9988 73.2972 16.8819 73.4117 16.8039C73.5358 16.726 73.7075 16.687 73.927 16.687H74.3993C74.6474 16.687 74.8287 16.726 74.9432 16.8039C75.0577 16.8819 75.1149 16.9988 75.1149 17.1547V18.543H75.988C76.2742 18.543 76.4173 18.7866 76.4173 19.2737V19.5222C76.4173 20.0093 76.2742 20.2529 75.988 20.2529H75.1149V23.9649C75.1149 24.1792 75.1483 24.3351 75.2151 24.4326C75.2914 24.5202 75.4202 24.5641 75.6015 24.5641C75.7637 24.5641 75.8878 24.5446 75.9737 24.5056C76.0691 24.4569 76.1502 24.4326 76.217 24.4326C76.2742 24.4326 76.3267 24.4813 76.3744 24.5787C76.4221 24.6761 76.4603 24.7979 76.4889 24.944C76.5271 25.0804 76.5557 25.2168 76.5748 25.3532C76.5939 25.4799 76.6034 25.5773 76.6034 25.6455C76.6034 25.7624 76.5223 25.8745 76.3601 25.9817C76.1979 26.0791 75.9975 26.157 75.759 26.2155C75.5204 26.2739 75.2819 26.3032 75.0434 26.3032Z" fill="#281B55"/>
<path d="M70.3824 26.303C69.8839 26.303 69.4632 26.2196 69.1204 26.0529C68.788 25.8861 68.5388 25.6408 68.3726 25.3171C68.2064 24.9836 68.1233 24.5765 68.1233 24.0958V16.324C68.1233 16.167 68.196 16.0493 68.3414 15.9708C68.4972 15.8825 68.7413 15.8384 69.0737 15.8384H69.5099C69.8423 15.8384 70.0812 15.8825 70.2266 15.9708C70.3824 16.0493 70.4603 16.167 70.4603 16.324V23.9486C70.4603 24.1644 70.4967 24.3214 70.5694 24.4195C70.6525 24.5078 70.7927 24.5519 70.99 24.5519C71.1666 24.5519 71.3017 24.5323 71.3951 24.4931C71.499 24.444 71.5873 24.4195 71.66 24.4195C71.7223 24.4195 71.7794 24.4685 71.8314 24.5666C71.8833 24.6647 71.9249 24.7874 71.956 24.9345C71.9976 25.0719 72.0287 25.2092 72.0495 25.3465C72.0703 25.4741 72.0807 25.5722 72.0807 25.6408C72.0807 25.7586 71.9924 25.8714 71.8158 25.9793C71.6392 26.0774 71.4211 26.1559 71.1614 26.2147C70.9018 26.2736 70.6421 26.303 70.3824 26.303Z" fill="#281B55"/>
<path d="M62.0785 26.303C61.2931 26.303 60.7356 26.0973 60.4059 25.6859C60.0859 25.2647 59.9259 24.7554 59.9259 24.1579C59.9259 23.8543 59.9695 23.5457 60.0568 23.2323C60.1538 22.909 60.3428 22.6103 60.624 22.336C60.9052 22.0618 61.3222 21.8414 61.8749 21.6749C62.4373 21.5084 63.179 21.4251 64.1002 21.4251V20.9843C64.1002 20.7786 64.0614 20.6121 63.9838 20.4848C63.9063 20.3575 63.7851 20.2644 63.6202 20.2056C63.4554 20.1371 63.2372 20.1028 62.9657 20.1028C62.6166 20.1028 62.3015 20.142 62.0203 20.2203C61.7488 20.2889 61.5161 20.3624 61.3222 20.4407C61.1379 20.5191 60.9974 20.5583 60.9004 20.5583C60.8325 20.5583 60.7646 20.5142 60.6968 20.426C60.6289 20.3281 60.5659 20.2154 60.5077 20.0881C60.4592 19.951 60.4204 19.8187 60.3913 19.6914C60.3622 19.5641 60.3477 19.4661 60.3477 19.3976C60.3477 19.2604 60.4301 19.1331 60.595 19.0156C60.7598 18.898 60.978 18.7903 61.2495 18.6923C61.521 18.5944 61.8215 18.5209 62.1512 18.4719C62.4809 18.4132 62.8057 18.3838 63.1257 18.3838C63.6978 18.3838 64.1826 18.4475 64.5802 18.5748C64.9777 18.6923 65.2977 18.8637 65.5401 19.089C65.7922 19.3045 65.9716 19.5641 66.0782 19.8677C66.1946 20.1616 66.2528 20.4848 66.2528 20.8374V23.5996C66.2528 24.1089 66.2673 24.5007 66.2964 24.775C66.3255 25.0394 66.3546 25.2402 66.3837 25.3774C66.4128 25.5047 66.4273 25.6222 66.4273 25.73C66.4273 25.8181 66.3594 25.8916 66.2237 25.9504C66.0976 26.0091 65.9376 26.0581 65.7437 26.0973C65.5595 26.1365 65.3753 26.1659 65.191 26.1854C65.0165 26.1952 64.8856 26.2001 64.7983 26.2001C64.6432 26.2001 64.5268 26.1463 64.4493 26.0385C64.3814 25.921 64.3329 25.7839 64.3038 25.6271C64.2747 25.4606 64.2456 25.3137 64.2165 25.1864C64.1875 25.2451 64.0856 25.3676 63.9111 25.5537C63.7463 25.73 63.5087 25.9014 63.1984 26.0679C62.8978 26.2246 62.5245 26.303 62.0785 26.303ZM62.7912 24.584C62.9754 24.584 63.1499 24.5448 63.3148 24.4664C63.4893 24.3881 63.6445 24.2803 63.7802 24.1432C63.916 23.9963 64.0226 23.8347 64.1002 23.6584V22.8503C63.7511 22.8503 63.4505 22.8748 63.1984 22.9237C62.9463 22.9727 62.733 23.0413 62.5585 23.1294C62.3936 23.2176 62.2676 23.3302 62.1803 23.4674C62.1027 23.6045 62.064 23.7612 62.064 23.9375C62.064 24.1236 62.1221 24.2803 62.2385 24.4077C62.3645 24.5252 62.5488 24.584 62.7912 24.584Z" fill="#281B55"/>
<path d="M55.5861 26.303C54.2461 26.303 53.2656 25.9504 52.6449 25.2451C52.034 24.5301 51.7285 23.58 51.7285 22.3948C51.7285 21.4251 51.8812 20.6464 52.1867 20.0587C52.4922 19.471 52.9159 19.0449 53.4578 18.7805C53.9997 18.516 54.6205 18.3838 55.3201 18.3838C56.0985 18.3838 56.7193 18.5601 57.1824 18.9127C57.6455 19.2555 57.9805 19.711 58.1874 20.2791C58.4042 20.8374 58.5126 21.4447 58.5126 22.101C58.5126 22.2283 58.4633 22.3654 58.3648 22.5123C58.2761 22.6593 58.1677 22.7866 58.0396 22.8943C57.9115 22.9923 57.7933 23.0413 57.6849 23.0413H53.9751C53.9948 23.629 54.1623 24.0355 54.4776 24.2607C54.8028 24.4762 55.2068 24.584 55.6896 24.584C56.0246 24.584 56.3202 24.5399 56.5764 24.4517C56.8424 24.3538 57.0641 24.2607 57.2415 24.1726C57.4287 24.0844 57.5716 24.0404 57.6701 24.0404C57.7687 24.0404 57.8672 24.1138 57.9657 24.2607C58.0643 24.4077 58.148 24.5742 58.217 24.7603C58.286 24.9366 58.3204 25.0737 58.3204 25.1717C58.3204 25.3186 58.2219 25.4606 58.0248 25.5977C57.8376 25.7349 57.5962 25.8573 57.3006 25.9651C57.005 26.0728 56.7045 26.1561 56.399 26.2148C56.0936 26.2736 55.8226 26.303 55.5861 26.303ZM53.9455 21.5867H56.4286C56.4286 21.097 56.3301 20.7297 56.133 20.4848C55.9359 20.2301 55.6354 20.1028 55.2314 20.1028C55.054 20.1028 54.8668 20.1371 54.6698 20.2056C54.4727 20.2742 54.3052 20.4162 54.1672 20.6317C54.0293 20.8374 53.9554 21.1558 53.9455 21.5867Z" fill="#281B55"/>
<path d="M42.1697 26.303C41.8597 26.303 41.6297 26.2634 41.4797 26.1841C41.3397 26.0949 41.2697 25.971 41.2697 25.8125V16.3289C41.2697 16.1704 41.3397 16.0514 41.4797 15.9722C41.6297 15.883 41.8597 15.8384 42.1697 15.8384H42.6947C43.0147 15.8384 43.2447 15.883 43.3848 15.9722C43.5248 16.0514 43.5948 16.1704 43.5948 16.3289V19.9856H47.99V16.3289C47.99 16.1704 48.06 16.0514 48.2 15.9722C48.35 15.883 48.58 15.8384 48.89 15.8384H49.415C49.7351 15.8384 49.9651 15.883 50.1051 15.9722C50.2451 16.0514 50.3151 16.1704 50.3151 16.3289V25.8125C50.3151 25.971 50.2451 26.0949 50.1051 26.1841C49.9651 26.2634 49.7351 26.303 49.415 26.303H48.89C48.58 26.303 48.35 26.2634 48.2 26.1841C48.06 26.0949 47.99 25.971 47.99 25.8125V21.9328H43.5948V25.8125C43.5948 25.971 43.5248 26.0949 43.3848 26.1841C43.2447 26.2634 43.0147 26.303 42.6947 26.303H42.1697Z" fill="#281B55"/>
<path d="M78.5171 12.4442C78.1969 12.4442 77.9617 12.4032 77.8116 12.3211C77.6715 12.2288 77.6015 12.1005 77.6015 11.9364V7.04288C77.6015 6.59148 77.5865 6.23242 77.5565 5.96569C77.5365 5.6887 77.5115 5.47326 77.4814 5.31938C77.4614 5.16549 77.4514 5.03213 77.4514 4.91928C77.4514 4.80643 77.5215 4.7141 77.6615 4.64229C77.8116 4.57047 77.9867 4.51918 78.1869 4.4884C78.397 4.44737 78.5921 4.42172 78.7722 4.41146C78.9623 4.39094 79.0974 4.38068 79.1775 4.38068C79.2975 4.38068 79.3876 4.41146 79.4476 4.47301C79.5077 4.52431 79.5577 4.62177 79.5977 4.76539C79.6477 4.90902 79.6978 5.12446 79.7478 5.41171C79.8979 5.21679 80.083 5.03213 80.3031 4.85772C80.5333 4.67306 80.7884 4.52431 81.0686 4.41146C81.3588 4.29861 81.6639 4.24219 81.9841 4.24219C82.4944 4.24219 82.9147 4.33452 83.2449 4.51918C83.5851 4.69358 83.8352 4.96544 83.9953 5.33476C84.1554 5.69383 84.2355 6.16061 84.2355 6.73511V11.9364C84.2355 12.1005 84.1604 12.2288 84.0104 12.3211C83.8703 12.4032 83.6401 12.4442 83.3199 12.4442H82.8997C82.5795 12.4442 82.3444 12.4032 82.1943 12.3211C82.0542 12.2288 81.9841 12.1005 81.9841 11.9364V7.07365C81.9841 6.77614 81.9191 6.54532 81.789 6.38118C81.6589 6.20677 81.4338 6.11957 81.1136 6.11957C80.9535 6.11957 80.7884 6.16061 80.6183 6.24268C80.4582 6.31449 80.3081 6.41708 80.168 6.55045C80.038 6.68381 79.9329 6.8377 79.8529 7.0121V11.9364C79.8529 12.1005 79.7778 12.2288 79.6277 12.3211C79.4876 12.4032 79.2575 12.4442 78.9373 12.4442H78.5171Z" fill="#281B55"/>
<path d="M72.9897 12.4442C71.5938 12.4442 70.5725 12.079 69.9259 11.3486C69.2895 10.608 68.9713 9.62397 68.9713 8.39646C68.9713 7.39213 69.1304 6.58562 69.4486 5.97694C69.7668 5.36825 70.2081 4.92696 70.7726 4.65305C71.3372 4.37914 71.9838 4.24219 72.7125 4.24219C73.5234 4.24219 74.17 4.42479 74.6524 4.79C75.1348 5.14507 75.4838 5.6168 75.6993 6.20519C75.9251 6.78344 76.0381 7.41242 76.0381 8.09212C76.0381 8.224 75.9867 8.36602 75.8841 8.51819C75.7917 8.67037 75.6788 8.80225 75.5454 8.91384C75.412 9.01529 75.2888 9.06601 75.1759 9.06601H71.3115C71.332 9.67469 71.5065 10.0957 71.835 10.329C72.1737 10.5522 72.5945 10.6638 73.0974 10.6638C73.4464 10.6638 73.7543 10.6182 74.0212 10.5269C74.2983 10.4254 74.5293 10.329 74.714 10.2377C74.909 10.1464 75.0578 10.1008 75.1605 10.1008C75.2631 10.1008 75.3658 10.1769 75.4684 10.329C75.571 10.4812 75.6583 10.6537 75.7301 10.8464C75.802 11.029 75.8379 11.171 75.8379 11.2725C75.8379 11.4247 75.7353 11.5718 75.53 11.7138C75.335 11.8558 75.0835 11.9826 74.7756 12.0942C74.4677 12.2058 74.1546 12.292 73.8364 12.3529C73.5182 12.4138 73.236 12.4442 72.9897 12.4442ZM71.2807 7.55952H73.8672C73.8672 7.05228 73.7646 6.67185 73.5593 6.41823C73.354 6.15447 73.041 6.02259 72.6202 6.02259C72.4354 6.02259 72.2404 6.0581 72.0351 6.12911C71.8298 6.20012 71.6553 6.34722 71.5116 6.5704C71.3679 6.78344 71.291 7.11315 71.2807 7.55952Z" fill="#281B55"/>
<path d="M62.2105 12.4442C62.0763 12.4442 61.9627 12.3815 61.8698 12.256C61.7872 12.1201 61.7252 11.9633 61.6839 11.7855C61.6426 11.5973 61.6219 11.4301 61.6219 11.2837C61.6219 11.2314 61.6219 11.1739 61.6219 11.1112C61.6323 11.0485 61.6736 10.97 61.7459 10.8759L65.9898 5.15178L66.5783 6.07706H62.2725C61.9627 6.07706 61.8078 5.81568 61.8078 5.29292V5.02632C61.8078 4.50356 61.9627 4.24219 62.2725 4.24219H67.7555C67.9001 4.24219 68.0136 4.31015 68.0962 4.44606C68.1789 4.57152 68.2408 4.72835 68.2821 4.91654C68.3234 5.09428 68.3441 5.25633 68.3441 5.4027C68.3441 5.45498 68.3389 5.51248 68.3286 5.57521C68.3286 5.63794 68.2924 5.71636 68.2202 5.81045L63.9762 11.5346L63.3722 10.6093H67.9414C68.2511 10.6093 68.406 10.8707 68.406 11.3935V11.6601C68.406 12.1828 68.2511 12.4442 67.9414 12.4442H62.2105Z" fill="#281B55"/>
<path d="M58.8668 12.4444C58.5451 12.4444 58.309 12.4034 58.1582 12.3215C58.0175 12.2293 57.9471 12.1013 57.9471 11.9374V4.85527C57.9471 4.6914 58.0175 4.5685 58.1582 4.48657C58.309 4.39439 58.6149 4.24235 58.9365 4.24235H59.2192C59.5408 4.24235 59.8417 4.39439 59.9824 4.48657C60.1331 4.5685 60.2085 4.6914 60.2085 4.85527V11.9374C60.2085 12.1013 60.1331 12.2293 59.9824 12.3215C59.8417 12.4034 59.6105 12.4444 59.2889 12.4444H58.8668ZM59.0778 3.59554C58.6859 3.59554 58.3994 3.55458 58.2185 3.47264C58.0476 3.39071 57.9622 3.26781 57.9622 3.10394V1.90566C57.9622 1.7418 58.0476 1.6189 58.2185 1.53696C58.3994 1.45503 58.6859 1.41406 59.0778 1.41406C59.4698 1.41406 59.7512 1.45503 59.9221 1.53696C60.103 1.6189 60.1934 1.7418 60.1934 1.90566V3.10394C60.1934 3.26781 60.103 3.39071 59.9221 3.47264C59.7512 3.55458 59.4698 3.59554 59.0778 3.59554Z" fill="#281B55"/>
<path d="M51.7132 12.4442C50.8937 12.4442 50.3119 12.2312 49.9679 11.8051C49.634 11.3689 49.467 10.8413 49.467 10.2225C49.467 9.90802 49.5126 9.58846 49.6036 9.26383C49.7048 8.92906 49.9021 8.61964 50.1955 8.33559C50.489 8.05154 50.924 7.82328 51.5007 7.65082C52.0876 7.47836 52.8616 7.39213 53.8228 7.39213V6.93562C53.8228 6.72258 53.7823 6.55012 53.7014 6.41823C53.6205 6.28635 53.494 6.18998 53.322 6.12911C53.15 6.0581 52.9223 6.02259 52.639 6.02259C52.2748 6.02259 51.9459 6.06317 51.6525 6.14433C51.3692 6.21534 51.1264 6.29142 50.924 6.37258C50.7318 6.45374 50.5851 6.49432 50.4839 6.49432C50.4131 6.49432 50.3422 6.44867 50.2714 6.35737C50.2006 6.25592 50.1348 6.13925 50.0741 6.00737C50.0235 5.86535 49.9831 5.72839 49.9527 5.59651C49.9223 5.46463 49.9072 5.36318 49.9072 5.29217C49.9072 5.15014 49.9932 5.01826 50.1652 4.89652C50.3372 4.77479 50.5648 4.66319 50.8481 4.56175C51.1314 4.4603 51.4451 4.38421 51.7891 4.33349C52.1331 4.27262 52.4721 4.24219 52.806 4.24219C53.4029 4.24219 53.9088 4.30813 54.3236 4.44001C54.7385 4.56175 55.0724 4.73928 55.3253 4.97261C55.5884 5.19579 55.7756 5.46463 55.8869 5.77912C56.0083 6.08346 56.069 6.41823 56.069 6.78344V9.64426C56.069 10.1718 56.0842 10.5776 56.1145 10.8616C56.1449 11.1355 56.1752 11.3435 56.2056 11.4855C56.2359 11.6174 56.2511 11.7391 56.2511 11.8507C56.2511 11.942 56.1803 12.0181 56.0386 12.079C55.9071 12.1399 55.7402 12.1906 55.5378 12.2312C55.3456 12.2717 55.1533 12.3022 54.9611 12.3225C54.779 12.3326 54.6424 12.3377 54.5513 12.3377C54.3894 12.3377 54.268 12.2819 54.1871 12.1703C54.1162 12.0486 54.0656 11.9065 54.0353 11.7442C54.0049 11.5718 53.9746 11.4196 53.9442 11.2877C53.9139 11.3486 53.8076 11.4754 53.6255 11.6681C53.4535 11.8507 53.2056 12.0283 52.8818 12.2007C52.5682 12.363 52.1786 12.4442 51.7132 12.4442ZM52.4569 10.6638C52.6491 10.6638 52.8313 10.6232 53.0033 10.5421C53.1854 10.4609 53.3473 10.3493 53.4889 10.2073C53.6306 10.0551 53.7419 9.88773 53.8228 9.70513V8.86819C53.4586 8.86819 53.1449 8.89355 52.8818 8.94427C52.6188 8.995 52.3962 9.06601 52.2141 9.15731C52.0421 9.24862 51.9105 9.36528 51.8195 9.50731C51.7385 9.64933 51.698 9.81165 51.698 9.99425C51.698 10.187 51.7588 10.3493 51.8802 10.4812C52.0117 10.6029 52.2039 10.6638 52.4569 10.6638Z" fill="#281B55"/>
<path d="M42.199 12.4443C41.8789 12.4443 41.6414 12.4035 41.4865 12.3221C41.3419 12.2305 41.2697 12.1033 41.2697 11.9405V2.20057C41.2697 2.03772 41.3419 1.91559 41.4865 1.83417C41.6414 1.74258 41.8789 1.69678 42.199 1.69678H42.7411C43.0715 1.69678 43.309 1.74258 43.4536 1.83417C43.5981 1.91559 43.6704 2.03772 43.6704 2.20057V6.29193H43.7324L46.35 2.0937C46.4429 1.94104 46.572 1.83926 46.7372 1.78837C46.9024 1.72731 47.1605 1.69678 47.5116 1.69678H47.9298C48.2912 1.69678 48.539 1.72222 48.6733 1.77311C48.8178 1.81382 48.8901 1.89015 48.8901 2.0021C48.8901 2.04281 48.8798 2.0937 48.8591 2.15477C48.8385 2.21583 48.8023 2.28199 48.7507 2.35323L45.3742 7.5743V6.32247L48.9985 11.6809C49.0708 11.7827 49.1173 11.8743 49.1379 11.9557C49.1689 12.027 49.1844 12.088 49.1844 12.1389C49.1844 12.2611 49.107 12.3425 48.9521 12.3832C48.8075 12.4239 48.57 12.4443 48.2396 12.4443H47.744C47.3825 12.4443 47.1192 12.4137 46.954 12.3527C46.7888 12.2916 46.6597 12.1898 46.5668 12.0473L43.7324 7.81856H43.6704V11.9405C43.6704 12.1033 43.5981 12.2305 43.4536 12.3221C43.309 12.4035 43.0715 12.4443 42.7411 12.4443H42.199Z" fill="#281B55"/>
<path fill-rule="evenodd" clip-rule="evenodd" d="M15.6255 3.07788C14.7378 2.43603 13.5443 2.42885 12.649 3.05998L3.67086 9.61149C2.98296 10.0964 2.57327 10.8889 2.57327 11.7345V22.7476C2.57327 24.6389 4.51979 25.8931 6.22488 25.1006L11.0536 22.8561C10.7908 22.6554 10.5307 22.4429 10.2748 22.223C9.25202 21.3439 8.21271 20.2715 7.22463 19.1543C5.7529 17.4902 5.84483 15.4067 6.93922 13.9846C8.0146 12.5871 9.97868 11.9225 11.9777 12.7387L13.8377 13.4981L15.8019 12.7172C17.8195 11.9151 19.7841 12.6089 20.8448 14.0267C21.9235 15.4686 21.9883 17.5628 20.4847 19.2119C19.4752 20.319 18.4191 21.3793 17.3871 22.2479C17.1413 22.4548 16.8922 22.6548 16.641 22.8446L21.7818 25.1743C23.4846 25.946 25.411 24.6916 25.411 22.811V11.7051C25.411 10.8704 25.0118 10.0868 24.3385 9.59998L15.6255 3.07788ZM13.8381 24.4161L20.7258 27.5376C24.1315 29.081 27.9843 26.5721 27.9843 22.811V11.7051C27.9843 10.0357 27.1858 8.46845 25.8393 7.49483L17.1262 0.972731C15.3508 -0.310976 12.9639 -0.32533 11.1734 0.936928L2.19519 7.48844C0.819385 8.45833 0 10.0433 0 11.7345V22.7476C0 26.5301 3.89303 29.0387 7.30323 27.4536L13.8381 24.4161ZM13.8321 21.5831C14.3694 21.313 15.0113 20.8701 15.7369 20.2594C16.6516 19.4896 17.6235 18.5183 18.5893 17.4591C19.2317 16.7545 19.1408 16.0556 18.7896 15.5861C18.4202 15.0924 17.6804 14.7565 16.7467 15.1277L14.5431 16.0037C14.0821 16.187 13.5687 16.1846 13.1094 15.9971L11.0109 15.1403C10.0856 14.7625 9.34583 15.0878 8.97317 15.5721C8.61951 16.0316 8.51919 16.7217 9.14623 17.4307C10.0897 18.4975 11.0431 19.4764 11.9453 20.2518C12.6613 20.8672 13.2971 21.3123 13.8321 21.5831Z" fill="#281B55"/>
</svg>
