<svg width="54" height="54" viewBox="0 0 54 54" fill="none" xmlns="http://www.w3.org/2000/svg">
<g filter="url(#filter0_d_1048_11269)">
<rect x="3" y="3" width="44" height="44" rx="8" fill="url(#paint0_linear_1048_11269)"/>
<path fill-rule="evenodd" clip-rule="evenodd" d="M21.0381 15.2477C21.0381 15.0052 20.9418 14.7726 20.7703 14.6012C20.5989 14.4297 20.3663 14.3334 20.1238 14.3334C19.8814 14.3334 19.6488 14.4297 19.4774 14.6012C19.3059 14.7726 19.2096 15.0052 19.2096 15.2477V16.7715H18.9048C18.339 16.7715 17.7964 16.9962 17.3963 17.3963C16.9962 17.7964 16.7715 18.339 16.7715 18.9048V19.2096H15.2477C15.0052 19.2096 14.7726 19.3059 14.6012 19.4774C14.4297 19.6488 14.3334 19.8814 14.3334 20.1238C14.3334 20.3663 14.4297 20.5989 14.6012 20.7703C14.7726 20.9418 15.0052 21.0381 15.2477 21.0381H16.7715V24.0858H15.2477C15.0052 24.0858 14.7726 24.1821 14.6012 24.3535C14.4297 24.525 14.3334 24.7576 14.3334 25C14.3334 25.2425 14.4297 25.4751 14.6012 25.6465C14.7726 25.818 15.0052 25.9143 15.2477 25.9143H16.7715V28.9619H15.2477C15.0052 28.9619 14.7726 29.0583 14.6012 29.2297C14.4297 29.4012 14.3334 29.6337 14.3334 29.8762C14.3334 30.1187 14.4297 30.3513 14.6012 30.5227C14.7726 30.6942 15.0052 30.7905 15.2477 30.7905H16.7715V31.0953C16.7715 32.2729 17.7272 33.2286 18.9048 33.2286H19.2096V34.7524C19.2096 34.9949 19.3059 35.2275 19.4774 35.3989C19.6488 35.5704 19.8814 35.6667 20.1238 35.6667C20.3663 35.6667 20.5989 35.5704 20.7703 35.3989C20.9418 35.2275 21.0381 34.9949 21.0381 34.7524V33.2286H24.0858V34.7524C24.0858 34.9949 24.1821 35.2275 24.3535 35.3989C24.525 35.5704 24.7576 35.6667 25 35.6667C25.2425 35.6667 25.4751 35.5704 25.6465 35.3989C25.818 35.2275 25.9143 34.9949 25.9143 34.7524V33.2286H28.9619V34.7524C28.9619 34.9949 29.0583 35.2275 29.2297 35.3989C29.4012 35.5704 29.6337 35.6667 29.8762 35.6667C30.1187 35.6667 30.3513 35.5704 30.5227 35.3989C30.6942 35.2275 30.7905 34.9949 30.7905 34.7524V33.2286H31.0953C31.6611 33.2286 32.2037 33.0038 32.6038 32.6038C33.0038 32.2037 33.2286 31.6611 33.2286 31.0953V30.7905H34.7524C34.9949 30.7905 35.2275 30.6942 35.3989 30.5227C35.5704 30.3513 35.6667 30.1187 35.6667 29.8762C35.6667 29.6337 35.5704 29.4012 35.3989 29.2297C35.2275 29.0583 34.9949 28.9619 34.7524 28.9619H33.2286V25.9143H34.7524C34.9949 25.9143 35.2275 25.818 35.3989 25.6465C35.5704 25.4751 35.6667 25.2425 35.6667 25C35.6667 24.7576 35.5704 24.525 35.3989 24.3535C35.2275 24.1821 34.9949 24.0858 34.7524 24.0858H33.2286V21.0381H34.7524C34.9949 21.0381 35.2275 20.9418 35.3989 20.7703C35.5704 20.5989 35.6667 20.3663 35.6667 20.1238C35.6667 19.8814 35.5704 19.6488 35.3989 19.4774C35.2275 19.3059 34.9949 19.2096 34.7524 19.2096H33.2286V18.9048C33.2286 18.339 33.0038 17.7964 32.6038 17.3963C32.2037 16.9962 31.6611 16.7715 31.0953 16.7715H30.7905V15.2477C30.7905 15.0052 30.6942 14.7726 30.5227 14.6012C30.3513 14.4297 30.1187 14.3334 29.8762 14.3334C29.6337 14.3334 29.4012 14.4297 29.2297 14.6012C29.0583 14.7726 28.9619 15.0052 28.9619 15.2477V16.7715H25.9143V15.2477C25.9143 15.0052 25.818 14.7726 25.6465 14.6012C25.4751 14.4297 25.2425 14.3334 25 14.3334C24.7576 14.3334 24.525 14.4297 24.3535 14.6012C24.1821 14.7726 24.0858 15.0052 24.0858 15.2477V16.7715H21.0381V15.2477ZM18.6 18.9048C18.6 18.824 18.6321 18.7465 18.6893 18.6893C18.7465 18.6321 18.824 18.6 18.9048 18.6H31.0953C31.1761 18.6 31.2536 18.6321 31.3108 18.6893C31.3679 18.7465 31.4 18.824 31.4 18.9048V31.0953C31.4 31.1761 31.3679 31.2536 31.3108 31.3108C31.2536 31.3679 31.1761 31.4 31.0953 31.4H18.9048C18.824 31.4 18.7465 31.3679 18.6893 31.3108C18.6321 31.2536 18.6 31.1761 18.6 31.0953V18.9048ZM24.755 28.3561L24.4198 27.415H21.9488L21.6135 28.3561C21.5321 28.5845 21.3632 28.7712 21.144 28.8751C20.9249 28.979 20.6735 28.9916 20.4451 28.9101C20.2166 28.8287 20.03 28.6598 19.926 28.4407C19.8221 28.2215 19.8095 27.9701 19.891 27.7417L21.9634 21.9268L21.9671 21.9159L21.9719 21.9037C22.1572 21.4258 22.601 21.0369 23.1837 21.0369C23.7676 21.0369 24.2101 21.4258 24.3966 21.9049L24.4003 21.9159L24.4051 21.928L26.4775 27.7429C26.555 27.9704 26.5398 28.2192 26.4352 28.4356C26.3307 28.6519 26.1451 28.8184 25.9187 28.899C25.6923 28.9796 25.4433 28.9678 25.2255 28.8662C25.0077 28.7646 24.8387 28.5814 24.755 28.3561ZM23.1837 23.9492L23.7676 25.5864H22.5997L23.1837 23.9492ZM27.7429 21.95C27.7429 21.7075 27.8392 21.4749 28.0107 21.3035C28.1821 21.132 28.4147 21.0357 28.6572 21.0357C28.8997 21.0357 29.1322 21.132 29.3037 21.3035C29.4751 21.4749 29.5715 21.7075 29.5715 21.95V28.0489C29.5715 28.2914 29.4751 28.5239 29.3037 28.6954C29.1322 28.8668 28.8997 28.9632 28.6572 28.9632C28.4147 28.9632 28.1821 28.8668 28.0107 28.6954C27.8392 28.5239 27.7429 28.2914 27.7429 28.0489V21.95Z" fill="#F5F6FC"/>
</g>
<defs>
<filter id="filter0_d_1048_11269" x="0" y="0" width="54" height="54" filterUnits="userSpaceOnUse" color-interpolation-filters="sRGB">
<feFlood flood-opacity="0" result="BackgroundImageFix"/>
<feColorMatrix in="SourceAlpha" type="matrix" values="0 0 0 0 0 0 0 0 0 0 0 0 0 0 0 0 0 0 127 0" result="hardAlpha"/>
<feMorphology radius="1" operator="dilate" in="SourceAlpha" result="effect1_dropShadow_1048_11269"/>
<feOffset dx="2" dy="2"/>
<feGaussianBlur stdDeviation="2"/>
<feComposite in2="hardAlpha" operator="out"/>
<feColorMatrix type="matrix" values="0 0 0 0 0 0 0 0 0 0 0 0 0 0 0 0 0 0 0.12 0"/>
<feBlend mode="normal" in2="BackgroundImageFix" result="effect1_dropShadow_1048_11269"/>
<feBlend mode="normal" in="SourceGraphic" in2="effect1_dropShadow_1048_11269" result="shape"/>
</filter>
<linearGradient id="paint0_linear_1048_11269" x1="39.9619" y1="43.5975" x2="9.05932" y2="3.09494" gradientUnits="userSpaceOnUse">
<stop stop-color="#6E40F3"/>
<stop offset="1" stop-color="#281B55"/>
</linearGradient>
</defs>
</svg>
