<svg width="54" height="54" viewBox="0 0 54 54" fill="none" xmlns="http://www.w3.org/2000/svg">
<g filter="url(#filter0_d_1048_11273)">
<rect x="3" y="3" width="44" height="44" rx="8" fill="url(#paint0_linear_1048_11273)"/>
<path d="M27.3709 14.3334V19.0741C27.3709 19.3884 27.4958 19.6899 27.718 19.9122C27.9403 20.1344 28.2418 20.2593 28.5561 20.2593H33.2968" stroke="#F5F6FC" stroke-width="1.77778" stroke-linecap="round" stroke-linejoin="round"/>
<path d="M30.9263 35.6667H19.0745C18.4458 35.6667 17.8429 35.417 17.3984 34.9724C16.9538 34.5279 16.7041 33.925 16.7041 33.2963V16.7037C16.7041 16.0751 16.9538 15.4722 17.3984 15.0276C17.8429 14.5831 18.4458 14.3334 19.0745 14.3334H27.3708L33.2967 20.2593V33.2963C33.2967 33.925 33.047 34.5279 32.6024 34.9724C32.1579 35.417 31.555 35.6667 30.9263 35.6667Z" stroke="#F5F6FC" stroke-width="1.77778" stroke-linecap="round" stroke-linejoin="round"/>
<path d="M25.0005 23.8148V30.9259" stroke="#F5F6FC" stroke-width="1.77778" stroke-linecap="round" stroke-linejoin="round"/>
<path d="M21.445 27.3705L25.0006 30.926L28.5561 27.3705" stroke="#F5F6FC" stroke-width="1.77778" stroke-linecap="round" stroke-linejoin="round"/>
</g>
<defs>
<filter id="filter0_d_1048_11273" x="0" y="0" width="54" height="54" filterUnits="userSpaceOnUse" color-interpolation-filters="sRGB">
<feFlood flood-opacity="0" result="BackgroundImageFix"/>
<feColorMatrix in="SourceAlpha" type="matrix" values="0 0 0 0 0 0 0 0 0 0 0 0 0 0 0 0 0 0 127 0" result="hardAlpha"/>
<feMorphology radius="1" operator="dilate" in="SourceAlpha" result="effect1_dropShadow_1048_11273"/>
<feOffset dx="2" dy="2"/>
<feGaussianBlur stdDeviation="2"/>
<feComposite in2="hardAlpha" operator="out"/>
<feColorMatrix type="matrix" values="0 0 0 0 0 0 0 0 0 0 0 0 0 0 0 0 0 0 0.12 0"/>
<feBlend mode="normal" in2="BackgroundImageFix" result="effect1_dropShadow_1048_11273"/>
<feBlend mode="normal" in="SourceGraphic" in2="effect1_dropShadow_1048_11273" result="shape"/>
</filter>
<linearGradient id="paint0_linear_1048_11273" x1="39.9619" y1="43.5975" x2="9.05932" y2="3.09494" gradientUnits="userSpaceOnUse">
<stop stop-color="#6E40F3"/>
<stop offset="1" stop-color="#281B55"/>
</linearGradient>
</defs>
</svg>
