<svg width="775" height="683" viewBox="0 0 775 683" fill="none" xmlns="http://www.w3.org/2000/svg">
<path d="M115.52 0.406794C91.8949 0.402583 68.6734 11.215 52.1043 31.5803C30.1018 58.6239 23.6364 97.9362 33.9047 142.274C41.1928 173.765 57.1038 207.734 76.6271 233.627C100.219 274.362 126.682 313.749 152.29 351.86C194.313 414.409 237.753 479.057 267.249 548.518C271.979 568.276 269.967 588.077 262.033 600.295C246.484 614.062 228.012 618.945 205.662 615.229C170.351 609.354 125.602 581.423 79.6634 536.592C35.0789 493.079 0.785132 445.511 -16.4384 415.505C-25.196 400.244 -43.3507 395.822 -56.9807 405.626C-70.6144 415.425 -74.5669 435.736 -65.8093 450.992C-46.402 484.798 -8.12579 538.04 41.0956 586.077C79.4989 623.56 137.728 670.308 197.031 680.175C236.96 686.819 273.284 675.848 302.085 648.449C303.311 647.281 304.448 646.005 305.488 644.628C327.961 614.873 334.487 571.126 322.939 527.608C322.521 526.031 321.997 524.491 321.373 523.005C289.289 446.494 243.485 378.327 199.192 312.402C173.817 274.638 147.582 235.589 124.865 196.181C124.125 194.892 123.306 193.67 122.412 192.511C94.4003 156.224 76.9337 98.5972 95.4922 75.7841C103.666 65.7415 117.098 63.1472 128.152 69.474C148.333 81.0187 168.402 111.611 175.002 121.661C175.346 122.189 175.705 122.703 176.076 123.205C182.062 131.269 190.543 143.09 201.279 158.053C238.598 210.061 301.053 297.104 363.246 371.523C398.149 413.287 429.089 446.356 455.201 469.822C490.665 501.686 518.262 517.206 542.052 518.658C558.909 519.679 573.732 513.595 584.938 501.054C603.845 479.898 620.313 441.695 591.385 379.837C574.891 344.571 546.707 306.92 519.455 270.512C490.564 231.911 460.69 192.001 448.579 159.907C443.22 145.697 451.286 136.905 455.003 133.788C457.935 131.327 468.356 124.097 479.458 134.215C488.085 142.077 497.404 152.015 508.192 163.522C557.929 216.559 633.09 296.706 773.152 303.079C789.374 303.807 803 289.727 803.658 271.608C804.316 253.49 791.726 238.205 775.534 237.468C657.565 232.104 597.189 167.719 548.674 115.987C537.482 104.049 526.911 92.7768 516.516 83.3033C488.089 57.3937 449.222 56.5694 419.8 81.253C390.458 105.874 380.298 147.747 394.522 185.444C410.052 226.614 442.801 270.366 474.47 312.674C499.726 346.412 525.838 381.298 539.393 410.283C552.709 438.753 548.382 448.478 544.755 453.089C538.166 452.549 504.852 443.695 411.372 332.943C348.992 259.034 285.168 170.087 247.034 116.942C236.448 102.183 228.019 90.4377 221.778 82.0062C206.787 59.2306 183.7 27.5048 154.866 11.0099C142.38 3.86724 128.885 0.406793 115.52 0.406794Z" fill="#6E40F3" fill-opacity="0.08"/>
</svg>
